<?xml version="1.0" encoding="UTF-8" standalone="no"?>
<svg
   xmlns:osb="http://www.openswatchbook.org/uri/2009/osb"
   xmlns:dc="http://purl.org/dc/elements/1.1/"
   xmlns:cc="http://creativecommons.org/ns#"
   xmlns:rdf="http://www.w3.org/1999/02/22-rdf-syntax-ns#"
   xmlns:svg="http://www.w3.org/2000/svg"
   xmlns="http://www.w3.org/2000/svg"
   xmlns:sodipodi="http://sodipodi.sourceforge.net/DTD/sodipodi-0.dtd"
   xmlns:inkscape="http://www.inkscape.org/namespaces/inkscape"
   version="1.1"
   id="svg17109"
   inkscape:version="0.91 r13725"
   sodipodi:docname="curved2.svg"
   width="766.13489"
   height="339.80331">
  <defs
     id="defs72">
    <marker
       inkscape:isstock="true"
       style="overflow:visible"
       id="marker16419"
       refX="0"
       refY="0"
       orient="auto"
       inkscape:stockid="Arrow1Mend">
      <path
         inkscape:connector-curvature="0"
         transform="matrix(-0.4,0,0,-0.4,-4,0)"
         style="fill:#000000;fill-opacity:1;fill-rule:evenodd;stroke:#000000;stroke-width:1pt;stroke-opacity:1"
         d="M 0,0 5,-5 -12.5,0 5,5 0,0 Z"
         id="path16421" />
    </marker>
    <linearGradient
       id="linearGradient15484"
       osb:paint="solid">
      <stop
         style="stop-color:#000000;stop-opacity:1;"
         offset="0"
         id="stop15486" />
    </linearGradient>
    <linearGradient
       id="linearGradient15478"
       osb:paint="solid">
      <stop
         style="stop-color:#4d4d4d;stop-opacity:1;"
         offset="0"
         id="stop15480" />
    </linearGradient>
    <marker
       inkscape:isstock="true"
       style="overflow:visible"
       id="marker12020"
       refX="0"
       refY="0"
       orient="auto"
       inkscape:stockid="Arrow1Mend">
      <path
         inkscape:connector-curvature="0"
         transform="matrix(-0.4,0,0,-0.4,-4,0)"
         style="fill:#000000;fill-opacity:1;fill-rule:evenodd;stroke:#000000;stroke-width:1pt;stroke-opacity:1"
         d="M 0,0 5,-5 -12.5,0 5,5 0,0 Z"
         id="path12022" />
    </marker>
    <marker
       inkscape:isstock="true"
       style="overflow:visible"
       id="marker5079"
       refX="0"
       refY="0"
       orient="auto"
       inkscape:stockid="Arrow1Mend">
      <path
         inkscape:connector-curvature="0"
         transform="matrix(-0.4,0,0,-0.4,-4,0)"
         style="fill:#000000;fill-opacity:1;fill-rule:evenodd;stroke:#000000;stroke-width:1pt;stroke-opacity:1"
         d="M 0,0 5,-5 -12.5,0 5,5 0,0 Z"
         id="path5081" />
    </marker>
    <marker
       inkscape:stockid="TriangleOutM"
       orient="auto"
       refY="0"
       refX="0"
       id="marker4821"
       style="overflow:visible"
       inkscape:isstock="true">
      <path
         id="path4823"
         d="m 5.77,0 -8.65,5 0,-10 8.65,5 z"
         style="fill:#000000;fill-opacity:1;fill-rule:evenodd;stroke:#000000;stroke-width:1pt;stroke-opacity:1"
         transform="scale(0.4,0.4)"
         inkscape:connector-curvature="0" />
    </marker>
    <marker
       inkscape:stockid="TriangleOutL"
       orient="auto"
       refY="0"
       refX="0"
       id="TriangleOutL"
       style="overflow:visible"
       inkscape:isstock="true">
      <path
         id="path4348"
         d="m 5.77,0 -8.65,5 0,-10 8.65,5 z"
         style="fill:#000000;fill-opacity:1;fill-rule:evenodd;stroke:#000000;stroke-width:1pt;stroke-opacity:1"
         transform="scale(0.8,0.8)"
         inkscape:connector-curvature="0" />
    </marker>
    <marker
       inkscape:stockid="TriangleOutM"
       orient="auto"
       refY="0"
       refX="0"
       id="TriangleOutM"
       style="overflow:visible"
       inkscape:isstock="true">
      <path
         id="path4351"
         d="m 5.77,0 -8.65,5 0,-10 8.65,5 z"
         style="fill:#000000;fill-opacity:1;fill-rule:evenodd;stroke:#000000;stroke-width:1pt;stroke-opacity:1"
         transform="scale(0.4,0.4)"
         inkscape:connector-curvature="0" />
    </marker>
    <marker
       inkscape:stockid="Arrow2Lend"
       orient="auto"
       refY="0"
       refX="0"
       id="Arrow2Lend"
       style="overflow:visible"
       inkscape:isstock="true">
      <path
         id="path4227"
         style="fill:#000000;fill-opacity:1;fill-rule:evenodd;stroke:#000000;stroke-width:0.625;stroke-linejoin:round;stroke-opacity:1"
         d="M 8.7185878,4.0337352 -2.2072895,0.01601326 8.7185884,-4.0017078 c -1.7454984,2.3720609 -1.7354408,5.6174519 -6e-7,8.035443 z"
         transform="matrix(-1.1,0,0,-1.1,-1.1,0)"
         inkscape:connector-curvature="0" />
    </marker>
    <marker
       inkscape:stockid="Arrow1Mend"
       orient="auto"
       refY="0"
       refX="0"
       id="Arrow1Mend"
       style="overflow:visible"
       inkscape:isstock="true"
       inkscape:collect="always">
      <path
         id="path4215"
         d="M 0,0 5,-5 -12.5,0 5,5 0,0 Z"
         style="fill:#000000;fill-opacity:1;fill-rule:evenodd;stroke:#000000;stroke-width:1pt;stroke-opacity:1"
         transform="matrix(-0.4,0,0,-0.4,-4,0)"
         inkscape:connector-curvature="0" />
    </marker>
    <marker
       inkscape:stockid="Arrow1Lend"
       orient="auto"
       refY="0"
       refX="0"
       id="Arrow1Lend"
       style="overflow:visible"
       inkscape:isstock="true">
      <path
         id="path4209"
         d="M 0,0 5,-5 -12.5,0 5,5 0,0 Z"
         style="fill:#000000;fill-opacity:1;fill-rule:evenodd;stroke:#000000;stroke-width:1pt;stroke-opacity:1"
         transform="matrix(-0.8,0,0,-0.8,-10,0)"
         inkscape:connector-curvature="0" />
    </marker>
    <marker
       inkscape:isstock="true"
       style="overflow:visible"
       id="marker5079-6"
       refX="0"
       refY="0"
       orient="auto"
       inkscape:stockid="Arrow1Mend">
      <path
         inkscape:connector-curvature="0"
         transform="matrix(-0.4,0,0,-0.4,-4,0)"
         style="fill:#000000;fill-opacity:1;fill-rule:evenodd;stroke:#000000;stroke-width:1pt;stroke-opacity:1"
         d="M 0,0 5,-5 -12.5,0 5,5 0,0 Z"
         id="path5081-4" />
    </marker>
    <marker
       inkscape:isstock="true"
       style="overflow:visible"
       id="marker5079-0"
       refX="0"
       refY="0"
       orient="auto"
       inkscape:stockid="Arrow1Mend">
      <path
         inkscape:connector-curvature="0"
         transform="matrix(-0.4,0,0,-0.4,-4,0)"
         style="fill:#000000;fill-opacity:1;fill-rule:evenodd;stroke:#000000;stroke-width:1pt;stroke-opacity:1"
         d="M 0,0 5,-5 -12.5,0 5,5 0,0 Z"
         id="path5081-6" />
    </marker>
    <marker
       inkscape:isstock="true"
       style="overflow:visible"
       id="marker5079-6-9"
       refX="0"
       refY="0"
       orient="auto"
       inkscape:stockid="Arrow1Mend">
      <path
         inkscape:connector-curvature="0"
         transform="matrix(-0.4,0,0,-0.4,-4,0)"
         style="fill:#000000;fill-opacity:1;fill-rule:evenodd;stroke:#000000;stroke-width:1pt;stroke-opacity:1"
         d="M 0,0 5,-5 -12.5,0 5,5 0,0 Z"
         id="path5081-4-6" />
    </marker>
    <marker
       inkscape:isstock="true"
       style="overflow:visible"
       id="marker5079-3"
       refX="0"
       refY="0"
       orient="auto"
       inkscape:stockid="Arrow1Mend">
      <path
         inkscape:connector-curvature="0"
         transform="matrix(-0.4,0,0,-0.4,-4,0)"
         style="fill:#000000;fill-opacity:1;fill-rule:evenodd;stroke:#000000;stroke-width:1pt;stroke-opacity:1"
         d="M 0,0 5,-5 -12.5,0 5,5 0,0 Z"
         id="path5081-1" />
    </marker>
    <marker
       inkscape:isstock="true"
       style="overflow:visible"
       id="marker5079-6-8"
       refX="0"
       refY="0"
       orient="auto"
       inkscape:stockid="Arrow1Mend">
      <path
         inkscape:connector-curvature="0"
         transform="matrix(-0.4,0,0,-0.4,-4,0)"
         style="fill:#000000;fill-opacity:1;fill-rule:evenodd;stroke:#000000;stroke-width:1pt;stroke-opacity:1"
         d="M 0,0 5,-5 -12.5,0 5,5 0,0 Z"
         id="path5081-4-8" />
    </marker>
    <marker
       inkscape:isstock="true"
       style="overflow:visible"
       id="marker5079-6-9-9"
       refX="0"
       refY="0"
       orient="auto"
       inkscape:stockid="Arrow1Mend">
      <path
         inkscape:connector-curvature="0"
         transform="matrix(-0.4,0,0,-0.4,-4,0)"
         style="fill:#000000;fill-opacity:1;fill-rule:evenodd;stroke:#000000;stroke-width:1pt;stroke-opacity:1"
         d="M 0,0 5,-5 -12.5,0 5,5 0,0 Z"
         id="path5081-4-6-2" />
    </marker>
    <marker
       inkscape:isstock="true"
       style="overflow:visible"
       id="marker5079-0-6"
       refX="0"
       refY="0"
       orient="auto"
       inkscape:stockid="Arrow1Mend">
      <path
         inkscape:connector-curvature="0"
         transform="matrix(-0.4,0,0,-0.4,-4,0)"
         style="fill:#000000;fill-opacity:1;fill-rule:evenodd;stroke:#000000;stroke-width:1pt;stroke-opacity:1"
         d="M 0,0 5,-5 -12.5,0 5,5 0,0 Z"
         id="path5081-6-7" />
    </marker>
    <marker
       inkscape:isstock="true"
       style="overflow:visible"
       id="marker5079-6-9-6"
       refX="0"
       refY="0"
       orient="auto"
       inkscape:stockid="Arrow1Mend">
      <path
         inkscape:connector-curvature="0"
         transform="matrix(-0.4,0,0,-0.4,-4,0)"
         style="fill:#000000;fill-opacity:1;fill-rule:evenodd;stroke:#000000;stroke-width:1pt;stroke-opacity:1"
         d="M 0,0 5,-5 -12.5,0 5,5 0,0 Z"
         id="path5081-4-6-9" />
    </marker>
    <marker
       inkscape:isstock="true"
       style="overflow:visible"
       id="marker12020-0"
       refX="0"
       refY="0"
       orient="auto"
       inkscape:stockid="Arrow1Mend">
      <path
         inkscape:connector-curvature="0"
         transform="matrix(-0.4,0,0,-0.4,-4,0)"
         style="fill:#000000;fill-opacity:1;fill-rule:evenodd;stroke:#000000;stroke-width:1pt;stroke-opacity:1"
         d="M 0,0 5,-5 -12.5,0 5,5 0,0 Z"
         id="path12022-6" />
    </marker>
    <marker
       inkscape:isstock="true"
       style="overflow:visible"
       id="marker12020-0-0"
       refX="0"
       refY="0"
       orient="auto"
       inkscape:stockid="Arrow1Mend">
      <path
         inkscape:connector-curvature="0"
         transform="matrix(-0.4,0,0,-0.4,-4,0)"
         style="fill:#000000;fill-opacity:1;fill-rule:evenodd;stroke:#000000;stroke-width:1pt;stroke-opacity:1"
         d="M 0,0 5,-5 -12.5,0 5,5 0,0 Z"
         id="path12022-6-2" />
    </marker>
    <marker
       inkscape:isstock="true"
       style="overflow:visible"
       id="marker12020-4"
       refX="0"
       refY="0"
       orient="auto"
       inkscape:stockid="Arrow1Mend">
      <path
         inkscape:connector-curvature="0"
         transform="matrix(-0.4,0,0,-0.4,-4,0)"
         style="fill:#000000;fill-opacity:1;fill-rule:evenodd;stroke:#000000;stroke-width:1pt;stroke-opacity:1"
         d="M 0,0 5,-5 -12.5,0 5,5 0,0 Z"
         id="path12022-0" />
    </marker>
  </defs>
  <metadata
     id="metadata27533">
    <rdf:RDF>
      <cc:Work
         rdf:about="">
        <dc:format>image/svg+xml</dc:format>
        <dc:type
           rdf:resource="http://purl.org/dc/dcmitype/StillImage" />
        <dc:title></dc:title>
      </cc:Work>
    </rdf:RDF>
  </metadata>
  <sodipodi:namedview
     id="namedview27531"
     inkscape:zoom="1.6210423"
     inkscape:cx="394.45405"
     inkscape:cy="69.05596"
     inkscape:window-width="1920"
     inkscape:window-height="1062"
     inkscape:window-x="0"
     inkscape:window-y="18"
     inkscape:window-maximized="1"
     inkscape:current-layer="svg17109"
     showgrid="false"
     fit-margin-top="20"
     fit-margin-left="20"
     fit-margin-right="20"
     fit-margin-bottom="20" />
  <g
     id="g47586"
     transform="matrix(0.40914985,0,0,0.40914985,126.23438,159.85219)">
    <polyline
       style="fill:#bccbee;fill-opacity:1;stroke:#393869;stroke-width:1.78409922;stroke-miterlimit:4;stroke-dasharray:none;stroke-opacity:1"
       points="117.469,297.633 99.8673,297.633 99.8673,280.031 99.8673,277.516 99.8673,262.429 99.8673,257.399 99.8673,244.827 99.8673,237.283 99.8673,227.224 99.8673,217.166 99.8673,209.622 99.8673,197.05 99.8673,192.02 99.8673,176.933 99.8673,174.418 99.8673,156.816 99.8673,156.816 99.8673,139.214 99.8673,136.7 99.8673,121.612 99.8673,116.583 99.8673,104.01 99.8673,96.4665 99.8673,86.4082 99.8673,76.3499 99.8673,68.8061 99.8673,56.2332 99.8673,51.2041 99.8673,36.1166 99.8673,33.602 99.8673,16 117.469,16 119.984,16 135.071,16 140.101,16 152.673,16 160.217,16 170.276,16 180.334,16 187.878,16 200.45,16 205.48,16 220.567,16 223.082,16 240.684,16 240.684,16 258.286,16 260.8,16 275.888,16 280.917,16 293.49,16 301.034,16 311.092,16 321.15,16 328.694,16 341.267,16 346.296,16 361.383,16 363.898,16 381.5,16 381.5,33.602 381.5,36.1166 381.5,51.2041 381.5,56.2332 381.5,68.8061 381.5,76.3499 381.5,86.4082 381.5,96.4665 381.5,104.01 381.5,116.583 381.5,121.612 381.5,136.7 381.5,139.214 381.5,156.816 381.5,156.816 381.5,174.418 381.5,176.933 381.5,192.02 381.5,197.05 381.5,209.622 381.5,217.166 381.5,227.224 381.5,237.283 381.5,244.827 381.5,257.399 381.5,262.429 381.5,277.516 381.5,280.031 381.5,297.633 363.898,297.633 361.383,297.633 346.296,297.633 341.267,297.633 328.694,297.633 321.15,297.633 311.092,297.633 301.034,297.633 293.49,297.633 280.917,297.633 275.888,297.633 260.8,297.633 258.286,297.633 240.684,297.633 240.684,297.633 223.082,297.633 220.567,297.633 205.48,297.633 200.45,297.633 187.878,297.633 180.334,297.633 170.276,297.633 160.217,297.633 152.673,297.633 140.101,297.633 135.071,297.633 119.984,297.633 117.469,297.633 "
       id="polyline37726"
       transform="matrix(2.3247724,0,0,2.3247724,-489.74155,-345.69645)" />
    <rect
       style="opacity:1;fill:#ca8794;fill-opacity:1;stroke:#000000;stroke-width:4.15495682;stroke-linecap:butt;stroke-linejoin:miter;stroke-miterlimit:4;stroke-dasharray:none;stroke-dashoffset:0.5;stroke-opacity:1"
       id="rect15704"
       width="489.78458"
       height="490.50327"
       x="-175.84834"
       y="-226.97595" />
    <polyline
       style="fill:none;stroke:#393869;stroke-width:1.05132544;stroke-miterlimit:4;stroke-dasharray:none;stroke-opacity:0.32156863"
       points="135.071,297.633 135.071,280.031 135.071,277.516 135.071,262.429 135.071,257.399 135.071,244.827 135.071,237.283 135.071,227.224 135.071,217.166 135.071,209.622 135.071,197.05 135.071,192.02 135.071,176.933 135.071,174.418 135.071,156.816 135.071,156.816 135.071,139.214 135.071,136.7 135.071,121.612 135.071,116.583 135.071,104.01 135.071,96.4665 135.071,86.4082 135.071,76.3499 135.071,68.8061 135.071,56.2332 135.071,51.2041 135.071,36.1166 135.071,33.602 135.071,16 "
       id="polyline37730"
       transform="matrix(2.3247724,0,0,2.3247724,-489.74155,-345.69645)" />
    <polyline
       style="fill:none;stroke:#393869;stroke-width:1.05132544;stroke-miterlimit:4;stroke-dasharray:none;stroke-opacity:0.32156863"
       points="170.276,297.633 170.276,280.031 170.276,277.516 170.276,262.429 170.276,257.399 170.276,244.827 170.276,237.283 170.276,227.224 170.276,217.166 170.276,209.622 170.276,197.05 170.276,192.02 170.276,176.933 170.276,174.418 170.276,156.816 170.276,156.816 170.276,139.214 170.276,136.7 170.276,121.612 170.276,116.583 170.276,104.01 170.276,96.4665 170.276,86.4082 170.276,76.3499 170.276,68.8061 170.276,56.2332 170.276,51.2041 170.276,36.1166 170.276,33.602 170.276,16 "
       id="polyline37734"
       transform="matrix(2.3247724,0,0,2.3247724,-489.74155,-345.69645)" />
    <polyline
       style="fill:none;stroke:#393869;stroke-width:1.05132544;stroke-miterlimit:4;stroke-dasharray:none;stroke-opacity:0.32156863"
       points="205.48,297.633 205.48,280.031 205.48,277.516 205.48,262.429 205.48,257.399 205.48,244.827 205.48,237.283 205.48,227.224 205.48,217.166 205.48,209.622 205.48,197.05 205.48,192.02 205.48,176.933 205.48,174.418 205.48,156.816 205.48,156.816 205.48,139.214 205.48,136.7 205.48,121.612 205.48,116.583 205.48,104.01 205.48,96.4665 205.48,86.4082 205.48,76.3499 205.48,68.8061 205.48,56.2332 205.48,51.2041 205.48,36.1166 205.48,33.602 205.48,16 "
       id="polyline37738"
       transform="matrix(2.3247724,0,0,2.3247724,-489.74155,-345.69645)" />
    <polyline
       style="fill:none;stroke:#393869;stroke-width:1.05132544;stroke-miterlimit:4;stroke-dasharray:none;stroke-opacity:0.32156863"
       points="275.888,297.633 275.888,280.031 275.888,277.516 275.888,262.429 275.888,257.399 275.888,244.827 275.888,237.283 275.888,227.224 275.888,217.166 275.888,209.622 275.888,197.05 275.888,192.02 275.888,176.933 275.888,174.418 275.888,156.816 275.888,156.816 275.888,139.214 275.888,136.7 275.888,121.612 275.888,116.583 275.888,104.01 275.888,96.4665 275.888,86.4082 275.888,76.3499 275.888,68.8061 275.888,56.2332 275.888,51.2041 275.888,36.1166 275.888,33.602 275.888,16 "
       id="polyline37744"
       transform="matrix(2.3247724,0,0,2.3247724,-489.74155,-345.69645)" />
    <polyline
       style="fill:none;stroke:#393869;stroke-width:1.05132544;stroke-miterlimit:4;stroke-dasharray:none;stroke-opacity:0.32156863"
       points="311.092,297.633 311.092,280.031 311.092,277.516 311.092,262.429 311.092,257.399 311.092,244.827 311.092,237.283 311.092,227.224 311.092,217.166 311.092,209.622 311.092,197.05 311.092,192.02 311.092,176.933 311.092,174.418 311.092,156.816 311.092,156.816 311.092,139.214 311.092,136.7 311.092,121.612 311.092,116.583 311.092,104.01 311.092,96.4665 311.092,86.4082 311.092,76.3499 311.092,68.8061 311.092,56.2332 311.092,51.2041 311.092,36.1166 311.092,33.602 311.092,16 "
       id="polyline37748"
       transform="matrix(2.3247724,0,0,2.3247724,-489.74155,-345.69645)" />
    <polyline
       style="fill:none;stroke:#393869;stroke-width:1.05132544;stroke-miterlimit:4;stroke-dasharray:none;stroke-opacity:0.32156863"
       points="346.296,297.633 346.296,280.031 346.296,277.516 346.296,262.429 346.296,257.399 346.296,244.827 346.296,237.283 346.296,227.224 346.296,217.166 346.296,209.622 346.296,197.05 346.296,192.02 346.296,176.933 346.296,174.418 346.296,156.816 346.296,156.816 346.296,139.214 346.296,136.7 346.296,121.612 346.296,116.583 346.296,104.01 346.296,96.4665 346.296,86.4082 346.296,76.3499 346.296,68.8061 346.296,56.2332 346.296,51.2041 346.296,36.1166 346.296,33.602 346.296,16 "
       id="polyline37752"
       transform="matrix(2.3247724,0,0,2.3247724,-489.74155,-345.69645)" />
    <polyline
       style="fill:none;stroke:#393869;stroke-width:1.05132544;stroke-miterlimit:4;stroke-dasharray:none;stroke-opacity:0.32156863"
       points="99.8673,262.429 117.469,262.429 119.984,262.429 135.071,262.429 140.101,262.429 152.673,262.429 160.217,262.429 170.276,262.429 180.334,262.429 187.878,262.429 200.45,262.429 205.48,262.429 220.567,262.429 223.082,262.429 240.684,262.429 240.684,262.429 258.286,262.429 260.8,262.429 275.888,262.429 280.917,262.429 293.49,262.429 301.034,262.429 311.092,262.429 321.15,262.429 328.694,262.429 341.267,262.429 346.296,262.429 361.383,262.429 363.898,262.429 381.5,262.429 "
       id="polyline37760"
       transform="matrix(2.3247724,0,0,2.3247724,-489.74155,-345.69645)" />
    <polyline
       style="fill:none;stroke:#393869;stroke-width:1.05132544;stroke-miterlimit:4;stroke-dasharray:none;stroke-opacity:0.32156863"
       points="99.8673,227.224 117.469,227.224 119.984,227.224 135.071,227.224 140.101,227.224 152.673,227.224 160.217,227.224 170.276,227.224 180.334,227.224 187.878,227.224 200.45,227.224 205.48,227.224 220.567,227.224 223.082,227.224 240.684,227.224 240.684,227.224 258.286,227.224 260.8,227.224 275.888,227.224 280.917,227.224 293.49,227.224 301.034,227.224 311.092,227.224 321.15,227.224 328.694,227.224 341.267,227.224 346.296,227.224 361.383,227.224 363.898,227.224 381.5,227.224 "
       id="polyline37764"
       transform="matrix(2.3247724,0,0,2.3247724,-489.74155,-345.69645)" />
    <polyline
       style="fill:none;stroke:#393869;stroke-width:1.05132544;stroke-miterlimit:4;stroke-dasharray:none;stroke-opacity:0.32156863"
       points="99.8673,192.02 117.469,192.02 119.984,192.02 135.071,192.02 140.101,192.02 152.673,192.02 160.217,192.02 170.276,192.02 180.334,192.02 187.878,192.02 200.45,192.02 205.48,192.02 220.567,192.02 223.082,192.02 240.684,192.02 240.684,192.02 258.286,192.02 260.8,192.02 275.888,192.02 280.917,192.02 293.49,192.02 301.034,192.02 311.092,192.02 321.15,192.02 328.694,192.02 341.267,192.02 346.296,192.02 361.383,192.02 363.898,192.02 381.5,192.02 "
       id="polyline37768"
       transform="matrix(2.3247724,0,0,2.3247724,-489.74155,-345.69645)" />
    <polyline
       style="fill:none;stroke:#393869;stroke-width:1.05132544;stroke-miterlimit:4;stroke-dasharray:none;stroke-opacity:0.32156863"
       points="99.8673,121.612 117.469,121.612 119.984,121.612 135.071,121.612 140.101,121.612 152.673,121.612 160.217,121.612 170.276,121.612 180.334,121.612 187.878,121.612 200.45,121.612 205.48,121.612 220.567,121.612 223.082,121.612 240.684,121.612 240.684,121.612 258.286,121.612 260.8,121.612 275.888,121.612 280.917,121.612 293.49,121.612 301.034,121.612 311.092,121.612 321.15,121.612 328.694,121.612 341.267,121.612 346.296,121.612 361.383,121.612 363.898,121.612 381.5,121.612 "
       id="polyline37776"
       transform="matrix(2.3247724,0,0,2.3247724,-489.74155,-345.69645)" />
    <polyline
       style="fill:none;stroke:#393869;stroke-width:1.05132544;stroke-miterlimit:4;stroke-dasharray:none;stroke-opacity:0.32156863"
       points="99.8673,86.4082 117.469,86.4082 119.984,86.4082 135.071,86.4082 140.101,86.4082 152.673,86.4082 160.217,86.4082 170.276,86.4082 180.334,86.4082 187.878,86.4082 200.45,86.4082 205.48,86.4082 220.567,86.4082 223.082,86.4082 240.684,86.4082 240.684,86.4082 258.286,86.4082 260.8,86.4082 275.888,86.4082 280.917,86.4082 293.49,86.4082 301.034,86.4082 311.092,86.4082 321.15,86.4082 328.694,86.4082 341.267,86.4082 346.296,86.4082 361.383,86.4082 363.898,86.4082 381.5,86.4082 "
       id="polyline37780"
       transform="matrix(2.3247724,0,0,2.3247724,-489.74155,-345.69645)" />
    <polyline
       style="fill:none;stroke:#393869;stroke-width:1.05132544;stroke-miterlimit:4;stroke-dasharray:none;stroke-opacity:0.32156863"
       points="99.8673,51.2041 117.469,51.2041 119.984,51.2041 135.071,51.2041 140.101,51.2041 152.673,51.2041 160.217,51.2041 170.276,51.2041 180.334,51.2041 187.878,51.2041 200.45,51.2041 205.48,51.2041 220.567,51.2041 223.082,51.2041 240.684,51.2041 240.684,51.2041 258.286,51.2041 260.8,51.2041 275.888,51.2041 280.917,51.2041 293.49,51.2041 301.034,51.2041 311.092,51.2041 321.15,51.2041 328.694,51.2041 341.267,51.2041 346.296,51.2041 361.383,51.2041 363.898,51.2041 381.5,51.2041 "
       id="polyline37784"
       transform="matrix(2.3247724,0,0,2.3247724,-489.74155,-345.69645)" />
    <polyline
       style="fill:none;stroke:#393869;stroke-width:1.05132544;stroke-miterlimit:4;stroke-dasharray:none;stroke-opacity:0.32156863"
       points="223.082,297.633 223.082,280.031 223.082,277.516 223.082,262.429 223.082,257.399 223.082,244.827 223.082,237.283 223.082,227.224 223.082,217.166 223.082,209.622 223.082,197.05 223.082,192.02 223.082,176.933 223.082,174.418 223.082,156.816 223.082,156.816 223.082,139.214 223.082,136.7 223.082,121.612 223.082,116.583 223.082,104.01 223.082,96.4665 223.082,86.4082 223.082,76.3499 223.082,68.8061 223.082,56.2332 223.082,51.2041 223.082,36.1166 223.082,33.602 223.082,16 "
       id="polyline37740-8"
       transform="matrix(2.3247724,0,0,2.3247724,-449.74155,-345.69645)" />
    <polyline
       style="fill:none;stroke:#393869;stroke-width:1.05132544;stroke-miterlimit:4;stroke-dasharray:none;stroke-opacity:0.32156863"
       points="99.8673,139.214 117.469,139.214 119.984,139.214 135.071,139.214 140.101,139.214 152.673,139.214 160.217,139.214 170.276,139.214 180.334,139.214 187.878,139.214 200.45,139.214 205.48,139.214 220.567,139.214 223.082,139.214 240.684,139.214 240.684,139.214 258.286,139.214 260.8,139.214 275.888,139.214 280.917,139.214 293.49,139.214 301.034,139.214 311.092,139.214 321.15,139.214 328.694,139.214 341.267,139.214 346.296,139.214 361.383,139.214 363.898,139.214 381.5,139.214 "
       id="polyline37772-7"
       transform="matrix(2.3247724,0,0,2.3247724,-489.74155,-305.69645)" />
  </g>
  <g
     id="g47763"
     transform="translate(-99.755202,-159.5422)"
     style="fill:none;fill-opacity:1">
    <polyline
       transform="translate(363.60412,169.69701)"
       style="fill:#bccbee;fill-opacity:1;stroke:#393869;stroke-width:1.69700003;stroke-miterlimit:4;stroke-dasharray:none;stroke-opacity:1"
       id="polyline26612-4"
       points="118.575,284.852 101.898,278.134 106.83,261.457 107.601,259.075 112.56,244.78 114.332,240.015 119,228.103 121.953,220.955 126.05,211.425 130.309,201.895 132.494,197.13 133.598,194.748 134.71,192.366 136.957,187.601 139.23,182.836 141.528,178.071 141.528,178.071 143.846,173.306 146.183,168.541 148.534,163.776 149.715,161.393 150.898,159.011 153.271,154.246 155.65,149.481 158.032,144.716 158.032,144.716 160.414,139.951 162.793,135.186 165.166,130.421 166.349,128.039 167.529,125.656 169.881,120.892 172.217,116.127 174.536,111.362 174.536,111.362 176.833,106.597 179.107,101.832 181.353,97.0668 182.465,94.6844 183.57,92.3019 185.754,87.537 190.014,78.0071 194.11,68.4772 197.063,61.3298 201.731,49.4175 203.503,44.6525 208.462,30.3577 209.234,27.9752 214.166,11.298 230.843,18.0152 233.225,18.9227 247.52,24.0652 252.285,25.6577 264.197,29.3535 271.345,31.3659 276.11,32.6183 280.875,33.7976 280.875,33.7976 285.64,34.9023 290.405,35.9308 295.169,36.882 297.552,37.3282 299.934,37.7546 304.699,38.5475 309.464,39.2596 314.229,39.8902 314.229,39.8902 318.994,40.4383 323.759,40.9032 328.524,41.2844 330.907,41.4435 333.289,41.5815 338.054,41.7939 342.819,41.9215 347.584,41.964 347.584,41.964 352.349,41.9215 357.114,41.7939 361.879,41.5815 364.261,41.4435 366.644,41.2844 371.408,40.9032 376.173,40.4383 380.938,39.8902 380.938,39.8902 385.703,39.2596 390.468,38.5475 395.233,37.7546 397.616,37.3282 399.998,36.882 404.763,35.9308 409.528,34.9023 414.293,33.7976 414.293,33.7976 419.058,32.6183 423.823,31.3659 428.588,30.0418 430.97,29.3535 433.353,28.6479 438.118,27.1859 442.883,25.6577 447.647,24.0652 447.647,24.0652 452.412,22.4104 457.177,20.6955 461.942,18.9227 464.325,18.0152 466.707,17.0941 471.472,15.2122 476.237,13.2793 481.002,11.298 479.679,16.0629 478.287,20.8278 476.826,25.5928 476.07,27.9752 475.299,30.3577 473.707,35.1227 472.054,39.8876 470.34,44.6525 470.34,44.6525 468.568,49.4175 466.74,54.1824 464.859,58.9473 463.9,61.3298 462.927,63.7123 460.947,68.4772 458.92,73.2421 456.85,78.0071 456.85,78.0071 454.74,82.772 452.591,87.537 450.406,92.3019 449.302,94.6844 448.19,97.0668 445.943,101.832 443.67,106.597 441.372,111.362 441.372,111.362 439.054,116.127 436.717,120.892 434.366,125.656 433.185,128.039 432.002,130.421 429.629,135.186 427.25,139.951 424.868,144.716 424.868,144.716 422.486,149.481 420.107,154.246 417.734,159.011 416.551,161.393 415.371,163.776 413.019,168.541 410.683,173.306 408.364,178.071 408.364,178.071 406.067,182.836 403.793,187.601 401.547,192.366 400.435,194.748 399.33,197.13 397.146,201.895 394.997,206.66 392.886,211.425 392.886,211.425 390.816,216.19 388.79,220.955 386.809,225.72 385.837,228.103 384.877,230.485 382.996,235.25 381.169,240.015 379.397,244.78 379.397,244.78 377.683,249.545 376.029,254.31 374.438,259.075 373.666,261.457 372.911,263.84 371.45,268.605 370.057,273.369 368.734,278.134 363.97,280.116 359.205,282.049 354.44,283.931 352.057,284.852 349.675,285.759 344.91,287.532 340.145,289.247 335.38,290.902 335.38,290.902 330.615,292.494 325.85,294.022 321.085,295.484 318.703,296.19 316.32,296.878 311.555,298.202 306.79,299.455 302.025,300.634 302.025,300.634 297.26,301.739 292.495,302.767 287.731,303.718 285.348,304.165 282.966,304.591 278.201,305.384 273.436,306.096 268.671,306.727 268.671,306.727 263.906,307.275 259.141,307.74 254.376,308.121 251.993,308.28 249.611,308.418 244.846,308.63 240.081,308.758 235.316,308.8 235.316,308.8 230.551,308.758 225.786,308.63 221.021,308.418 218.639,308.28 216.256,308.121 211.492,307.74 206.727,307.275 201.962,306.727 201.962,306.727 197.197,306.096 192.432,305.384 187.667,304.591 185.284,304.165 182.902,303.718 178.137,302.767 173.372,301.739 168.607,300.634 168.607,300.634 163.842,299.455 159.077,298.202 151.93,296.19 140.017,292.494 135.253,290.902 120.958,285.759 118.575,284.852 " />
    <path
       id="polyline26664-5-2"
       transform="translate(363.60412,169.69701)"
       style="fill:#d6514d;fill-opacity:0.55760366;stroke:#000000;stroke-width:1.7;stroke-miterlimit:4;stroke-dasharray:none;stroke-opacity:1"
       d="m 150.68,259.14 4.765,1.528 4.765,1.462 2.382,0.705 2.383,0.689 4.765,1.324 4.764,1.252 4.765,1.18 0,0 4.765,1.104 4.765,1.029 4.765,0.951 2.383,0.446 2.382,0.426 4.765,0.793 4.765,0.713 4.765,0.63 0,0 4.765,0.548 4.765,0.465 4.765,0.381 2.382,0.159 2.383,0.138 4.765,0.213 4.765,0.127 4.764,0.043 0,0 4.765,-0.043 4.765,-0.127 4.765,-0.213 2.383,-0.138 2.382,-0.159 4.765,-0.381 4.765,-0.465 4.765,-0.548 0,0 4.765,-0.63 4.765,-0.713 4.765,-0.793 2.382,-0.426 2.383,-0.446 4.765,-0.951 4.765,-1.029 4.765,-1.104 0,0 4.765,-1.18 4.764,-1.252 4.765,-1.324 2.383,-0.689 2.382,-0.705 4.765,-1.462 4.765,-1.528 4.765,-1.593 1.772,-4.765 1.828,-4.765 1.881,-4.765 0.959,-2.382 0.973,-2.383 1.98,-4.765 2.027,-4.765 2.07,-4.764 0,0 2.11,-4.765 2.149,-4.765 2.184,-4.765 1.105,-2.383 1.112,-2.382 2.247,-4.765 2.273,-4.765 2.298,-4.765 0,0 2.318,-4.765 2.337,-4.765 2.351,-4.765 1.181,-2.382 1.183,-2.383 2.373,-4.765 2.379,-4.765 2.382,-4.765 0,0 2.382,-4.765 2.379,-4.764 2.372,-4.765 1.184,-2.383 1.18,-2.382 2.352,-4.765 2.336,-4.765 2.319,-4.765 0,0 2.297,-4.765 2.274,-4.765 2.246,-4.765 1.112,-2.382 1.105,-2.383 2.184,-4.765 2.149,-4.7648 2.111,-4.7649 0,0 2.07,-4.7649 2.026,-4.765 1.981,-4.7649 0.972,-2.3825 0.96,-2.3824 1.881,-4.765 1.827,-4.7649 1.772,-4.7649 -4.765,1.5925 -4.765,1.5282 -4.765,1.462 -2.382,0.7056 -2.383,0.6883 -4.765,1.324 -4.764,1.2525 -4.765,1.1793 0,0 -4.765,1.1046 -4.765,1.0286 -4.765,0.9512 -2.383,0.4462 -2.382,0.4264 -4.765,0.7928 -4.765,0.7122 -4.765,0.6305 0,0 -4.765,0.5481 -4.765,0.465 -4.765,0.3812 -2.382,0.1591 -2.383,0.1379 -4.765,0.2124 -4.765,0.1276 -4.764,0.0425 0,0 -4.765,-0.0425 -4.765,-0.1276 -4.765,-0.2124 -2.383,-0.1379 -2.382,-0.1591 -4.765,-0.3812 -4.765,-0.465 -4.765,-0.5481 0,0 -4.765,-0.6305 -4.765,-0.7122 -4.765,-0.7928 -2.382,-0.4264 -2.383,-0.4462 -4.765,-0.9512 -4.765,-1.0286 -4.765,-1.1046 0,0 -4.765,-1.1793 -4.764,-1.2525 -4.765,-1.324 -2.383,-0.6883 -2.382,-0.7056 -4.765,-1.462 -4.765,-1.5282 -4.765,-1.5925 -1.772,4.7649 -1.828,4.7649 -1.881,4.765 -0.959,2.3824 -0.973,2.3825 -1.98,4.7649 -2.027,4.765 -2.07,4.7649 0,0 -2.11,4.7649 -2.149,4.7648 -2.184,4.765 -1.105,2.383 -1.112,2.382 -2.247,4.765 -2.273,4.765 -2.298,4.765 0,0 -2.318,4.765 -2.337,4.765 -2.351,4.765 -1.181,2.382 -1.183,2.383 -2.373,4.765 -2.379,4.764 -2.382,4.765 0,0 -2.382,4.765 -2.379,4.765 -2.372,4.765 -1.184,2.383 -1.18,2.382 -2.352,4.765 -2.336,4.765 -2.319,4.765 0,0 -2.297,4.765 -2.274,4.765 -2.246,4.765 -1.112,2.382 -1.105,2.383 -2.184,4.765 -2.149,4.765 -2.111,4.765 0,0 -2.07,4.764 -2.026,4.765 -1.981,4.765 -0.972,2.383 -0.96,2.382 -1.881,4.765 -1.827,4.765 -1.772,4.765 z"
       inkscape:connector-curvature="0"
       sodipodi:nodetypes="ccccccccccccccccccccccccccccccccccccccccccccccccccccccccccccccccccccccccccccccccccccccccccccccccccccccccccccccccccccccccccccccccccccccccccccccccccccccccccccccccccccccccccccccccccccccccccccccccccccccccccccccccccccc" />
    <polyline
       style="fill:none;fill-opacity:1;stroke:#393869;stroke-width:0.99965215;stroke-miterlimit:4;stroke-dasharray:none;stroke-opacity:0.32258067"
       id="polyline26616-6"
       points="135.253,290.902 140.184,274.224 140.956,271.842 145.915,257.547 147.687,252.782 149.514,248.017 151.395,243.252 152.355,240.87 153.327,238.487 155.308,233.722 157.334,228.957 159.404,224.193 159.404,224.193 161.515,219.428 163.664,214.663 165.848,209.898 166.953,207.515 168.065,205.133 170.311,200.368 172.585,195.603 174.882,190.838 174.882,190.838 177.201,186.073 179.537,181.308 181.889,176.543 183.069,174.161 184.253,171.778 186.625,167.013 189.004,162.248 191.386,157.483 191.386,157.483 193.768,152.718 196.147,147.954 198.52,143.189 199.703,140.806 200.884,138.424 203.235,133.659 205.572,128.894 207.89,124.129 207.89,124.129 210.188,119.364 212.461,114.599 214.708,109.834 215.82,107.452 216.925,105.069 219.109,100.304 221.258,95.5392 223.368,90.7743 223.368,90.7743 225.438,86.0094 227.465,81.2444 229.445,76.4795 230.418,74.097 231.377,71.7146 233.258,66.9496 235.086,62.1847 236.858,57.4198 241.817,43.1249 242.588,40.7425 247.52,24.0652 "
       transform="translate(363.60412,169.69701)" />
    <polyline
       style="fill:none;fill-opacity:1;stroke:#393869;stroke-width:0.99965215;stroke-miterlimit:4;stroke-dasharray:none;stroke-opacity:0.32258067"
       id="polyline26622-4"
       points="235.316,308.8 236.639,304.035 238.032,299.271 239.492,294.506 240.248,292.123 241.02,289.741 242.611,284.976 244.265,280.211 245.978,275.446 245.978,275.446 247.75,270.681 249.578,265.916 251.459,261.151 252.419,258.769 253.391,256.386 255.371,251.621 257.398,246.856 259.468,242.091 259.468,242.091 261.579,237.326 263.728,232.561 265.912,227.797 267.016,225.414 268.129,223.032 270.375,218.267 272.649,213.502 274.946,208.737 274.946,208.737 277.264,203.972 279.601,199.207 281.953,194.442 283.133,192.059 284.316,189.677 286.689,184.912 289.068,180.147 291.45,175.382 291.45,175.382 293.832,170.617 296.211,165.852 298.584,161.087 299.767,158.705 300.947,156.322 303.299,151.558 305.636,146.793 307.954,142.028 307.954,142.028 310.251,137.263 312.525,132.498 314.771,127.733 315.884,125.35 316.988,122.968 319.172,118.203 321.321,113.438 323.432,108.673 323.432,108.673 325.502,103.908 327.529,99.1432 329.509,94.3783 330.481,91.9958 331.441,89.6134 333.322,84.8484 335.15,80.0835 336.922,75.3185 336.922,75.3185 338.635,70.5536 340.289,65.7887 341.88,61.0237 342.652,58.6413 343.408,56.2588 344.868,51.4939 346.261,46.7289 347.584,41.964 "
       transform="translate(363.60412,169.69701)" />
    <polyline
       style="fill:none;fill-opacity:1;stroke:#393869;stroke-width:0.99965215;stroke-miterlimit:4;stroke-dasharray:none;stroke-opacity:0.32258067"
       id="polyline26628-2"
       points="380.938,39.8902 379.616,44.6551 378.223,49.42 376.762,54.185 376.007,56.5674 375.235,58.9499 373.644,63.7148 371.99,68.4798 370.276,73.2447 370.276,73.2447 368.504,78.0097 366.677,82.7746 364.796,87.5395 363.836,89.922 362.864,92.3045 360.883,97.0694 358.857,101.834 356.787,106.599 356.787,106.599 354.676,111.364 352.527,116.129 350.343,120.894 349.238,123.277 348.126,125.659 345.879,130.424 343.606,135.189 341.309,139.954 341.309,139.954 338.99,144.719 336.654,149.484 334.302,154.249 333.121,156.631 331.938,159.014 329.565,163.779 327.187,168.543 324.805,173.308 324.805,173.308 322.423,178.073 320.044,182.838 317.671,187.603 316.488,189.986 315.307,192.368 312.955,197.133 310.619,201.898 308.3,206.663 308.3,206.663 306.003,211.428 303.73,216.193 301.483,220.958 300.371,223.34 299.266,225.723 297.082,230.488 294.933,235.253 292.823,240.017 292.823,240.017 290.753,244.782 288.726,249.547 286.745,254.312 285.773,256.695 284.813,259.077 282.932,263.842 281.105,268.607 279.333,273.372 279.333,273.372 277.619,278.137 275.966,282.902 274.374,287.667 273.602,290.049 272.847,292.432 271.386,297.197 269.994,301.962 268.671,306.727 "
       transform="translate(363.60412,169.69701)" />
    <polyline
       style="fill:none;fill-opacity:1;stroke:#393869;stroke-width:0.99965215;stroke-miterlimit:4;stroke-dasharray:none;stroke-opacity:0.32258067"
       id="polyline26630-3"
       points="168.607,300.634 169.93,295.869 171.323,291.104 172.783,286.339 173.539,283.957 174.31,281.574 175.902,276.809 177.556,272.044 179.269,267.28 179.269,267.28 181.041,262.515 182.869,257.75 184.75,252.985 185.71,250.602 186.682,248.22 188.662,243.455 190.689,238.69 192.759,233.925 192.759,233.925 194.87,229.16 197.018,224.395 199.203,219.63 200.307,217.248 201.419,214.865 203.666,210.1 205.939,205.335 208.237,200.57 208.237,200.57 210.555,195.805 212.892,191.041 215.243,186.276 216.424,183.893 217.607,181.511 219.98,176.746 222.359,171.981 224.741,167.216 224.741,167.216 227.123,162.451 229.502,157.686 231.875,152.921 233.058,150.539 234.238,148.156 236.59,143.391 238.927,138.626 241.245,133.861 241.245,133.861 243.542,129.096 245.816,124.331 248.062,119.566 249.175,117.184 250.279,114.802 252.463,110.037 254.612,105.272 256.723,100.507 256.723,100.507 258.793,95.7418 260.819,90.9769 262.8,86.2119 263.772,83.8295 264.732,81.447 266.613,76.6821 268.441,71.9171 270.212,67.1522 270.212,67.1522 271.926,62.3873 273.58,57.6223 275.171,52.8574 275.943,50.4749 276.698,48.0924 278.159,43.3275 279.552,38.5626 280.875,33.7976 "
       transform="translate(363.60412,169.69701)" />
    <polyline
       style="fill:none;fill-opacity:1;stroke:#393869;stroke-width:0.99965215;stroke-miterlimit:4;stroke-dasharray:none;stroke-opacity:0.32258067"
       id="polyline26634-2"
       points="302.025,300.634 303.348,295.869 304.741,291.104 306.202,286.339 306.957,283.957 307.729,281.574 309.32,276.809 310.974,272.044 312.688,267.28 312.688,267.28 314.459,262.515 316.287,257.75 318.168,252.985 319.128,250.602 320.1,248.22 322.081,243.455 324.107,238.69 326.177,233.925 326.177,233.925 328.288,229.16 330.437,224.395 332.621,219.63 333.725,217.248 334.838,214.865 337.084,210.1 339.358,205.335 341.655,200.57 341.655,200.57 343.973,195.805 346.31,191.041 348.662,186.276 349.842,183.893 351.025,181.511 353.398,176.746 355.777,171.981 358.159,167.216 358.159,167.216 360.541,162.451 362.92,157.686 365.293,152.921 366.476,150.539 367.657,148.156 370.008,143.391 372.345,138.626 374.663,133.861 374.663,133.861 376.961,129.096 379.234,124.331 381.481,119.566 382.593,117.184 383.697,114.802 385.882,110.037 388.03,105.272 390.141,100.507 390.141,100.507 392.211,95.7418 394.238,90.9769 396.218,86.2119 397.19,83.8295 398.15,81.447 400.031,76.6821 401.859,71.9171 403.631,67.1522 403.631,67.1522 405.344,62.3873 406.998,57.6223 408.59,52.8574 409.361,50.4749 410.117,48.0924 411.577,43.3275 412.97,38.5626 414.293,33.7976 "
       transform="translate(363.60412,169.69701)" />
    <polyline
       style="fill:none;fill-opacity:1;stroke:#393869;stroke-width:0.99965215;stroke-miterlimit:4;stroke-dasharray:none;stroke-opacity:0.32258067"
       id="polyline26638-7"
       points="314.229,39.8902 312.906,44.6551 311.514,49.42 310.053,54.185 309.298,56.5674 308.526,58.9499 306.934,63.7148 305.281,68.4798 303.567,73.2447 303.567,73.2447 301.795,78.0097 299.968,82.7746 298.087,87.5395 297.127,89.922 296.155,92.3045 294.174,97.0694 292.147,101.834 290.077,106.599 290.077,106.599 287.967,111.364 285.818,116.129 283.634,120.894 282.529,123.277 281.417,125.659 279.17,130.424 276.897,135.189 274.6,139.954 274.6,139.954 272.281,144.719 269.945,149.484 267.593,154.249 266.412,156.631 265.229,159.014 262.856,163.779 260.477,168.543 258.095,173.308 258.095,173.308 255.713,178.073 253.335,182.838 250.962,187.603 249.779,189.986 248.598,192.368 246.246,197.133 243.91,201.898 241.591,206.663 241.591,206.663 239.294,211.428 237.021,216.193 234.774,220.958 233.662,223.34 232.557,225.723 230.373,230.488 228.224,235.253 226.113,240.017 226.113,240.017 224.043,244.782 222.017,249.547 220.036,254.312 219.064,256.695 218.104,259.077 216.223,263.842 214.396,268.607 212.624,273.372 212.624,273.372 210.91,278.137 209.256,282.902 207.665,287.667 206.893,290.049 206.138,292.432 204.677,297.197 203.284,301.962 201.962,306.727 "
       transform="translate(363.60412,169.69701)" />
    <polyline
       style="fill:none;fill-opacity:1;stroke:#393869;stroke-width:0.99965215;stroke-miterlimit:4;stroke-dasharray:none;stroke-opacity:0.32258067"
       id="polyline26642-9"
       points="447.647,24.0652 446.325,28.8301 444.932,33.5951 443.471,38.36 442.716,40.7425 441.944,43.1249 440.353,47.8899 438.699,52.6548 436.985,57.4198 436.985,57.4198 435.213,62.1847 433.386,66.9496 431.505,71.7146 430.545,74.097 429.573,76.4795 427.592,81.2444 425.566,86.0094 423.496,90.7743 423.496,90.7743 421.385,95.5392 419.236,100.304 417.052,105.069 415.947,107.452 414.835,109.834 412.589,114.599 410.315,119.364 408.018,124.129 408.018,124.129 405.699,128.894 403.363,133.659 401.011,138.424 399.831,140.806 398.647,143.189 396.275,147.954 393.896,152.718 391.514,157.483 391.514,157.483 389.132,162.248 386.753,167.013 384.38,171.778 383.197,174.161 382.016,176.543 379.665,181.308 377.328,186.073 375.01,190.838 375.01,190.838 372.712,195.603 370.439,200.368 368.192,205.133 367.08,207.515 365.975,209.898 363.791,214.663 361.642,219.428 359.532,224.193 359.532,224.193 357.462,228.957 355.435,233.722 353.455,238.487 352.482,240.87 351.523,243.252 349.642,248.017 347.814,252.782 346.042,257.547 346.042,257.547 344.328,262.312 342.675,267.077 341.083,271.842 340.312,274.224 339.556,276.607 338.095,281.372 336.703,286.137 335.38,290.902 "
       transform="translate(363.60412,169.69701)" />
    <polyline
       style="fill:none;fill-opacity:1;stroke:#393869;stroke-width:0.99965215;stroke-miterlimit:4;stroke-dasharray:none;stroke-opacity:0.32258067"
       id="polyline26646-4"
       points="112.56,244.78 129.238,251.497 131.62,252.405 145.915,257.547 150.68,259.14 155.445,260.668 160.21,262.13 162.592,262.835 164.975,263.524 169.74,264.848 174.504,266.1 179.269,267.28 179.269,267.28 184.034,268.384 188.799,269.413 193.564,270.364 195.947,270.81 198.329,271.236 203.094,272.029 207.859,272.742 212.624,273.372 212.624,273.372 217.389,273.92 222.154,274.385 226.919,274.766 229.301,274.925 231.684,275.063 236.449,275.276 241.214,275.403 245.978,275.446 245.978,275.446 250.743,275.403 255.508,275.276 260.273,275.063 262.656,274.925 265.038,274.766 269.803,274.385 274.568,273.92 279.333,273.372 279.333,273.372 284.098,272.742 288.863,272.029 293.628,271.236 296.01,270.81 298.393,270.364 303.158,269.413 307.923,268.384 312.688,267.28 312.688,267.28 317.453,266.1 322.217,264.848 326.982,263.524 329.365,262.835 331.747,262.13 336.512,260.668 341.277,259.14 346.042,257.547 346.042,257.547 350.807,255.892 355.572,254.177 360.337,252.405 362.719,251.497 365.102,250.576 369.867,248.694 374.632,246.761 379.397,244.78 "
       transform="translate(363.60412,169.69701)" />
    <polyline
       style="fill:none;fill-opacity:1;stroke:#393869;stroke-width:0.99965215;stroke-miterlimit:4;stroke-dasharray:none;stroke-opacity:0.32258067"
       id="polyline26650-2"
       points="126.05,211.425 142.727,218.143 145.109,219.05 149.874,220.823 154.639,222.538 159.404,224.193 159.404,224.193 164.169,225.785 168.934,227.313 173.699,228.775 176.082,229.481 178.464,230.169 183.229,231.493 187.994,232.746 192.759,233.925 192.759,233.925 197.524,235.03 202.289,236.058 207.054,237.009 209.436,237.456 211.819,237.882 216.584,238.675 221.348,239.387 226.113,240.017 226.113,240.017 230.878,240.566 235.643,241.031 240.408,241.412 242.791,241.571 245.173,241.709 249.938,241.921 254.703,242.049 259.468,242.091 259.468,242.091 264.233,242.049 268.998,241.921 273.763,241.709 276.145,241.571 278.528,241.412 283.293,241.031 288.058,240.566 292.823,240.017 292.823,240.017 297.587,239.387 302.352,238.675 307.117,237.882 309.5,237.456 311.882,237.009 316.647,236.058 321.412,235.03 326.177,233.925 326.177,233.925 330.942,232.746 335.707,231.493 340.472,230.169 342.854,229.481 345.237,228.775 350.002,227.313 354.767,225.785 359.532,224.193 359.532,224.193 364.297,222.538 369.061,220.823 373.826,219.05 376.209,218.143 378.591,217.221 383.356,215.34 388.121,213.407 392.886,211.425 "
       transform="translate(363.60412,169.69701)" />
    <polyline
       style="fill:none;fill-opacity:1;stroke:#393869;stroke-width:0.99965215;stroke-miterlimit:4;stroke-dasharray:none;stroke-opacity:0.32258067"
       id="polyline26656-6"
       points="424.868,144.716 420.103,146.698 415.338,148.63 410.573,150.512 408.191,151.433 405.808,152.341 401.044,154.114 396.279,155.829 391.514,157.483 391.514,157.483 386.749,159.076 381.984,160.604 377.219,162.066 374.836,162.772 372.454,163.46 367.689,164.784 362.924,166.037 358.159,167.216 358.159,167.216 353.394,168.32 348.629,169.349 343.864,170.3 341.482,170.746 339.099,171.173 334.334,171.966 329.569,172.678 324.805,173.308 324.805,173.308 320.04,173.856 315.275,174.321 310.51,174.703 308.127,174.862 305.745,175 300.98,175.212 296.215,175.34 291.45,175.382 291.45,175.382 286.685,175.34 281.92,175.212 277.155,175 274.773,174.862 272.39,174.703 267.625,174.321 262.86,173.856 258.095,173.308 258.095,173.308 253.331,172.678 248.566,171.966 243.801,171.173 241.418,170.746 239.036,170.3 234.271,169.349 229.506,168.32 224.741,167.216 224.741,167.216 219.976,166.037 215.211,164.784 210.446,163.46 208.064,162.772 205.681,162.066 200.916,160.604 196.151,159.076 191.386,157.483 191.386,157.483 186.621,155.829 181.856,154.114 177.092,152.341 174.709,151.433 172.327,150.512 167.562,148.63 162.797,146.698 158.032,144.716 "
       transform="translate(363.60412,169.69701)" />
    <polyline
       style="fill:none;fill-opacity:1;stroke:#393869;stroke-width:0.99965215;stroke-miterlimit:4;stroke-dasharray:none;stroke-opacity:0.32258067"
       id="polyline26658-8"
       points="174.536,111.362 179.301,113.343 184.066,115.276 188.831,117.158 191.213,118.079 193.596,118.986 198.361,120.759 203.125,122.474 207.89,124.129 207.89,124.129 212.655,125.721 217.42,127.25 222.185,128.712 224.568,129.417 226.95,130.106 231.715,131.43 236.48,132.682 241.245,133.861 241.245,133.861 246.01,134.966 250.775,135.995 255.54,136.946 257.922,137.392 260.305,137.818 265.07,138.611 269.835,139.323 274.6,139.954 274.6,139.954 279.364,140.502 284.129,140.967 288.894,141.348 291.277,141.507 293.659,141.645 298.424,141.858 303.189,141.985 307.954,142.028 307.954,142.028 312.719,141.985 317.484,141.858 322.249,141.645 324.631,141.507 327.014,141.348 331.779,140.967 336.544,140.502 341.309,139.954 341.309,139.954 346.074,139.323 350.839,138.611 355.603,137.818 357.986,137.392 360.368,136.946 365.133,135.995 369.898,134.966 374.663,133.861 374.663,133.861 379.428,132.682 384.193,131.43 388.958,130.106 391.34,129.417 393.723,128.712 398.488,127.25 403.253,125.721 408.018,124.129 408.018,124.129 412.783,122.474 417.548,120.759 422.313,118.986 424.695,118.079 427.078,117.158 431.842,115.276 436.607,113.343 441.372,111.362 "
       transform="translate(363.60412,169.69701)" />
    <polyline
       style="fill:none;fill-opacity:1;stroke:#393869;stroke-width:0.99965215;stroke-miterlimit:4;stroke-dasharray:none;stroke-opacity:0.32258067"
       id="polyline26660-6"
       points="190.014,78.0071 206.691,84.7243 209.074,85.6318 213.839,87.4046 218.603,89.1195 223.368,90.7743 223.368,90.7743 228.133,92.3668 232.898,93.895 237.663,95.357 240.046,96.0626 242.428,96.7509 247.193,98.075 251.958,99.3274 256.723,100.507 256.723,100.507 261.488,101.611 266.253,102.64 271.018,103.591 273.4,104.037 275.783,104.464 280.548,105.257 285.313,105.969 290.077,106.599 290.077,106.599 294.842,107.147 299.607,107.612 304.372,107.994 306.755,108.153 309.137,108.291 313.902,108.503 318.667,108.631 323.432,108.673 323.432,108.673 328.197,108.631 332.962,108.503 337.727,108.291 340.109,108.153 342.492,107.994 347.257,107.612 352.022,107.147 356.787,106.599 356.787,106.599 361.552,105.969 366.316,105.257 371.081,104.464 373.464,104.037 375.846,103.591 380.611,102.64 385.376,101.611 390.141,100.507 390.141,100.507 394.906,99.3274 399.671,98.075 404.436,96.7509 406.818,96.0626 409.201,95.357 413.966,93.895 418.731,92.3668 423.496,90.7743 423.496,90.7743 428.261,89.1195 433.026,87.4046 437.791,85.6318 440.173,84.7243 442.555,83.8032 447.32,81.9213 452.085,79.9884 456.85,78.0071 "
       transform="translate(363.60412,169.69701)" />
    <polyline
       style="fill:none;fill-opacity:1;stroke:#393869;stroke-width:0.99965215;stroke-miterlimit:4;stroke-dasharray:none;stroke-opacity:0.32258067"
       id="polyline26664-5"
       points="203.503,44.6525 220.181,51.3698 222.563,52.2772 236.858,57.4198 241.623,59.0123 246.388,60.5405 251.153,62.0025 253.535,62.7081 255.918,63.3964 260.683,64.7204 265.447,65.9729 270.212,67.1522 270.212,67.1522 274.977,68.2568 279.742,69.2854 284.507,70.2366 286.89,70.6828 289.272,71.1092 294.037,71.902 298.802,72.6142 303.567,73.2447 303.567,73.2447 308.332,73.7928 313.097,74.2578 317.862,74.639 320.244,74.7981 322.627,74.936 327.392,75.1484 332.157,75.276 336.922,75.3185 336.922,75.3185 341.686,75.276 346.451,75.1484 351.216,74.936 353.599,74.7981 355.981,74.639 360.746,74.2578 365.511,73.7928 370.276,73.2447 370.276,73.2447 375.041,72.6142 379.806,71.902 384.571,71.1092 386.953,70.6828 389.336,70.2366 394.101,69.2854 398.866,68.2568 403.631,67.1522 403.631,67.1522 408.396,65.9729 413.16,64.7204 417.925,63.3964 420.308,62.7081 422.69,62.0025 427.455,60.5405 432.22,59.0123 436.985,57.4198 436.985,57.4198 441.75,55.765 446.515,54.0501 451.28,52.2772 453.662,51.3698 456.045,50.4487 460.81,48.5668 465.575,46.6339 470.34,44.6525 "
       transform="translate(363.60412,169.69701)" />
    <polyline
       style="fill:none;fill-opacity:1;stroke:#393869;stroke-width:0.99965215;stroke-miterlimit:4;stroke-dasharray:none;stroke-opacity:0.32258067"
       id="polyline26670-6"
       points="141.528,178.071 146.293,180.052 151.058,181.985 155.822,183.867 158.205,184.788 160.587,185.695 165.352,187.468 170.117,189.183 174.882,190.838 174.882,190.838 179.647,192.43 184.412,193.959 189.177,195.421 191.56,196.126 193.942,196.815 198.707,198.139 203.472,199.391 208.237,200.57 208.237,200.57 213.002,201.675 217.767,202.704 222.532,203.655 224.914,204.101 227.297,204.527 232.061,205.32 236.826,206.032 241.591,206.663 241.591,206.663 246.356,207.211 251.121,207.676 255.886,208.057 258.269,208.216 260.651,208.354 265.416,208.567 270.181,208.694 274.946,208.737 274.946,208.737 279.711,208.694 284.476,208.567 289.241,208.354 291.623,208.216 294.006,208.057 298.771,207.676 303.536,207.211 308.3,206.663 308.3,206.663 313.065,206.032 317.83,205.32 322.595,204.527 324.978,204.101 327.36,203.655 332.125,202.704 336.89,201.675 341.655,200.57 341.655,200.57 346.42,199.391 351.185,198.139 355.95,196.815 358.332,196.126 360.715,195.421 365.48,193.959 370.245,192.43 375.01,190.838 375.01,190.838 379.775,189.183 384.539,187.468 389.304,185.695 391.687,184.788 394.069,183.867 398.834,181.985 403.599,180.052 408.364,178.071 "
       transform="translate(363.60412,169.69701)" />
  </g>
  <path
     style="fill:none;fill-rule:evenodd;stroke:#000000;stroke-width:1.6;stroke-linecap:butt;stroke-linejoin:miter;stroke-miterlimit:4;stroke-dasharray:none;stroke-opacity:1;marker-end:url(#Arrow1Mend)"
     d="m 303.01756,136.67742 c 37.02566,-8.12954 71.11901,-6.48471 101.16947,8.63642"
     id="path4200"
     inkscape:connector-curvature="0"
     sodipodi:nodetypes="cc" />
  <path
     style="fill:none;fill-rule:evenodd;stroke:#000000;stroke-width:1.9;stroke-linecap:butt;stroke-linejoin:miter;stroke-opacity:1;marker-end:url(#marker12020);stroke-miterlimit:4;stroke-dasharray:none"
     d="m 53.669173,267.62753 0,-200.488291"
     id="path11922"
     inkscape:connector-curvature="0" />
  <path
     style="fill:none;fill-rule:evenodd;stroke:#000000;stroke-width:1.90716422;stroke-linecap:butt;stroke-linejoin:miter;stroke-miterlimit:4;stroke-dasharray:none;stroke-opacity:1;marker-end:url(#marker12020-0)"
     d="m 52.471548,267.62753 202.003082,0"
     id="path11922-2"
     inkscape:connector-curvature="0" />
  <rect
     style="opacity:1;fill-opacity:0.19354838;stroke:#000000;stroke-width:1.89964133;stroke-linecap:butt;stroke-linejoin:miter;stroke-miterlimit:4;stroke-dasharray:none;stroke-dashoffset:0.5;stroke-opacity:1;fill:#ffffff"
     id="rect15271"
     width="195.08972"
     height="219.2327"
     x="481.8479"
     y="-69.500938"
     ry="1.1738132"
     transform="matrix(0.96364704,0.26717854,-0.36096503,0.93257935,0,0)"
     inkscape:transform-center-x="-133.85475"
     inkscape:transform-center-y="-76.75391" />
  <path
     style="fill:none;fill-rule:evenodd;stroke:#000000;stroke-width:1.83494413;stroke-linecap:butt;stroke-linejoin:miter;stroke-miterlimit:4;stroke-dasharray:none;stroke-opacity:1;marker-end:url(#marker12020-0-0)"
     d="m 409.69527,268.0206 187.67739,52.34515"
     id="path11922-2-3"
     inkscape:connector-curvature="0"
     inkscape:transform-center-x="-93.334658"
     inkscape:transform-center-y="24.802709" />
  <path
     style="fill:none;fill-rule:evenodd;stroke:#000000;stroke-width:2.08420753;stroke-linecap:butt;stroke-linejoin:miter;stroke-miterlimit:4;stroke-dasharray:none;stroke-opacity:1;marker-end:url(#marker12020-4)"
     d="M 410.12694,268.08972 488.7615,65.501512"
     id="path11922-0"
     inkscape:connector-curvature="0"
     inkscape:transform-center-x="-38.247093"
     inkscape:transform-center-y="-101.55848" />
  <text
     xml:space="preserve"
     style="font-style:normal;font-variant:normal;font-weight:500;font-stretch:normal;font-size:40px;line-height:125%;font-family:'URW Palladio L';-inkscape-font-specification:'URW Palladio L Medium';letter-spacing:0px;word-spacing:0px;fill:#000000;fill-opacity:1;stroke:none;stroke-width:1px;stroke-linecap:butt;stroke-linejoin:miter;stroke-opacity:1"
     x="347.3074"
     y="119.57464"
     id="text15193"
     sodipodi:linespacing="125%"><tspan
       sodipodi:role="line"
       id="tspan15195"
       x="347.3074"
       y="119.57464"
       style="font-style:normal;font-variant:normal;font-weight:normal;font-stretch:normal;font-size:20px;font-family:cmmi10;-inkscape-font-specification:cmmi10">f</tspan></text>
</svg>
