<svg width="604" height="327" font-family="Arial" font-size="15" font-weight="400" version="1.1" xmlns="http://www.w3.org/2000/svg" xmlns:xlink="http://www.w3.org/1999/xlink">
<path id="alpha" d="M113.6 60.3c-2.5 2.5-7.4 2.3-9.3-.07s-1.57-6.56 1.77-7.96 7.89.08 8.8 4.56c.51-1.63.69-2.2.71-3.72.01-.11.06-.2.22-.21h.45c.31 0 .41.32.41.4 0 1.7-.41 3.29-1.36 4.98.6 2 .93 2.77 1.24 3.02.69-.03.99-.45.98-.79.01-.11.04-.21.2-.22h.48c.26 0 .41.27.41.35-.04 1.85-3.46 2.15-5.01-.34Zm-.5-.8c-1.01-2.9-1.52-6.92-4.21-6.91-2.68.1-2.88 2.44-2.93 3.56-.01 1.48-.21 3.66 1.12 4.63 1.18.84 3.73.76 6.02-1.28Z" fill="#4430BA"/>
<path id="beta" d="M351.71 160.05c.07-2.29 1.53-4.2 3.6-5.09 1.7-.74 4.2-.67 5.65.87 1.49 1.6 1.1 4.34.05 5.34 2.7 1.48 2.63 4.82 1.91 6.44-1.21 2.49-3.63 2.92-5.17 2.9-2.2-.01-3.94-.97-4.94-2.21v6.02c0 .15-.08.22-.23.22h-.53c-.19-.03-.29-.12-.32-.29Zm1.11 5.42c0 2.48 2.26 4.2 4.64 4.24s3.05-1.87 3.05-3.33.2-3.43-.69-4.4c-.55.42-4.63 1.08-4.63-.71 0-1.51 3.55-.92 4.05-.81.2-.17.37-3.46-.08-4.34-.7-1.27-2.43-.71-3.06-.51-2.55.97-3.28 3.4-3.28 4.44Zm5.9-4.24c-.31-.08-.63-.13-.96-.13-.52 0-1.5-.03-1.5.33 0 .18 1.04.2 1.34.2.44 0 .81-.14 1.12-.4Z" fill="#AC0D99"/>

<path id="sigma" d="M523.63 47.63a1.07 1.07 0 0 1 0 2.14h-2.34c.81 1.01 1.27 3.6.58 5.17-.64 1.56-2.09 2.79-4.74 2.79-3.33 0-5.23-2.11-5.23-4.78 0-3.3 2.07-5.32 5.07-5.32Zm-6.5 2.13c-.21 0-1.34-.03-2 .58-.67.66-.68 1.45-.72 1.98 0 .57-.06 2.56.35 3.32.46.9 1.52 1.6 3.25 1.1.66-.23 1.39-.97 1.58-1.9.09-.47.12-1.72.11-2.61-.05-.38-.02-1.11-.5-1.78-.61-.72-1.95-.69-2.07-.69Z" fill="#6701AB"/>
<g font-size="22">
<text x="531" y="57.5">=</text>
<use xlink:href="#alpha" x="447.39" y="-4.37"/>
<text x="572" y="57.5">+</text>
<use xlink:href="#beta" x="239.9" y="-112.67"/>
</g>

<g id="v">
<text x="147.68" y="85.94">+2</text>
<text x="147.68" y="108">+1</text>
<text x="152.29" y="130.06">0</text>
<text x="147.68" y="151.13">−1</text>
</g>
<text x="347.71" y="72.9">+2</text>
<text x="321.21" y="63.46">+1</text>
<text x="297.82" y="55.53">0</text>
<text x="269.21" y="48.09">−1</text>
<use xlink:href="#v" x="412.53" y="43.76"/>

<path d="M24.19 86.95l-7.08 16.87h5.23v47.77h3.71V103.82h5.23Z" fill="#F3C600"/>
<path d="M36.87 125.73 22.5 150.32l3.2 1.87 14.6-24.97Z" fill="#02F522"/>
<g stroke-width="1.2">
<path id="alphaPlane" d="M25.22 151.6l54.16-28.18 60.17 22.26-54.19 28.14Z" fill="#423FFF" stroke="#1E02AB" opacity=".8"/>
<use xlink:href="#alphaPlane" y="-21.46"/>
<path d="M37.13 125.44l3.17 1.62L73.09 71.89l4.51 2.63 1.35-16.2-13.57 9.07 4.51 2.63Z" fill="#02F522"/>
<use xlink:href="#alphaPlane" y="-42.92"/>
<use xlink:href="#alphaPlane" y="-64.38"/>

<path id="betaPlane" d="M211.09 153.1V87.57l54.39-30.46v65.91Z" fill="#9D00F3" stroke="#AA0082" opacity=".8"/>
<path d="M266.35 56.18l-13.89 9.35 4.61 2.71-48.49 82.69 3.28 1.92 48.49-82.69 4.62 2.71Z" fill="#02F522"/>
<use xlink:href="#betaPlane" x="26.7" y="10.27"/>
<use xlink:href="#betaPlane" x="53.4" y="20.54"/>
<use xlink:href="#betaPlane" x="80.1" y="30.81"/>
<path d="M210.75 87.51l-7.08 16.87h5.23v47.77h3.71V104.38h5.23Z" fill="#F3C600"/>

<path d="M411.64 56.46l-7.08 16.87h5.23V121.1h3.71V73.33h5.23Z" fill="#F3C600"/>
<path id="sigmaPlane" d="M412.12 119.62l54.86-30.77 79.56 98.74-54.86 30.74Z" fill="#7A4AFF" stroke="#6701AB" opacity=".8"/>
<path d="M409.75 119.23l3.2 1.87 47.39-80.3 4.51 2.62 1.35-16.2-13.57 9.08 4.51 2.63Z" fill="#02F522"/>
<use xlink:href="#sigmaPlane" y="-20.83"/>
<use xlink:href="#sigmaPlane" y="-41.66"/>
<use xlink:href="#sigmaPlane" y="-62.5"/>
</g>

<g fill-opacity=".5">
<path d="M143.39 50.15l-7.08 17.32h5.23v93.72h3.71V67.47h5.23Z" fill="#4430BA"/>
<path d="M377.71 92.11 365.33 80.09 363.55 85 259.97 47.49l-1.26 3.49L362.28 88.5l-1.78 4.91Z" fill="#AC0D99"/>
<path d="M555.93 93.91l-7.09 17.32h5.23v93.71h3.71V111.23h5.23Z" fill="#6701AB"/>
</g>

<g font-size="22" font-weight="700">
<g fill="#FCA000">
<text x="187.82" y="95.71">u</text>
<text x="390.71" y="57.25">u</text>
<text y="99.68">u</text>
</g>
<g fill="#00D819">
<text x="240.28" y="60.72">v</text>
<text x="453.88" y="22.35">v</text>
<text x="69.25" y="55.1">v</text>
</g>
<g fill="#F20707">
<path d="M93.47 179.05 79.76 165.64l-1.99 4.81-53.72-22.56-1.41 3.42 53.72 22.55-2 4.81Zm185.46 1.6-13.71-13.41-1.99 4.81-53.72-22.56-1.41 3.41 53.72 22.55-2 4.81Zm201-30-13.71-13.41-1.99 4.81-53.72-22.56-1.41 3.41 53.71 22.55-2 4.81Z"/>
<text x="82.85" y="201.94">w</text>
<text x="268.96" y="197.56">w</text>
<text x="484.77" y="146.77">w</text>
</g>
</g>

<g id="eq">
<g fill="none" stroke="#000">
<path d="M50.73 233.5l-4.52 13.21 4.52 13.2m1.69 7.17-4.53 13.2 4.52 13.2m-4.21 6.65-4.52 13.2 4.52 13.21M85.7 233.5l4.52 13.21-4.52 13.2m0 7.17 4.52 13.2-4.52 13.2m0 6.65 4.52 13.21-4.52 13.2" stroke-width=".67"/>
<path d="M99.09 244.54h9.62m0 3.44H99.09m0 30.13h9.62m0 3.44H99.09m0 30.07h9.62m0 3.44H99.09" stroke-width=".9"/>
</g>
<text x="65.71" y="251.4">,</text>
<text x="67.4" y="284.97">,</text>
<text x="63.18" y="318.03">,</text>
<g font-size="19" font-weight="700">
<text x="72.72" y="251.4" fill="#FCA000">u</text>
<text x="74.41" y="284.97" fill="#00D819">v</text>
<text x="70.19" y="318.03" fill="#F20707">w</text>
</g>
</g>
<use id="alphaSm" xlink:href="#alpha" x="-40.76" y="235.55" transform="scale(.85)"/>
<use xlink:href="#alphaSm" x="1.69" y="33.58"/>
<use xlink:href="#alphaSm" x="-2.53" y="66.63"/>

<use xlink:href="#eq" x="189.8"/>
<use id="betaSm" xlink:href="#beta" x="-66.1" y="127.28" transform="scale(.85)"/>
<use xlink:href="#betaSm" x="1.96" y="33.58"/>
<use xlink:href="#betaSm" x="-1.92" y="66.63"/>

<use xlink:href="#eq" x="391.46"/>
<use id="sigmaSm" xlink:href="#sigma" x="11.29" y="239.98" transform="scale(.85)"/>
<use xlink:href="#sigmaSm" x=".84" y="33.57"/>
<use xlink:href="#sigmaSm" x="-1.65" y="66.63"/>
<g font-size="19">
<g fill="#FCA000">
<text x="114.44" y="253.9">3</text>
<text x="304.86" y="253.84">0</text>
<text x="506.52" y="253.84">3</text>
</g>
<g fill="#00D819">
<text x="114.44" y="287.77">3</text>
<text x="304.86" y="287.42">0</text>
<text x="505.4" y="287.42">3</text>
</g>
<g fill="#F20707">
<text x="114.77" y="320.34">0</text>
<text x="305.19" y="320.34">2.5</text>
<text x="507.13" y="320.34">2.5</text>
</g>
</g>
</svg>