<?xml version="1.0" encoding="UTF-8" standalone="no"?>
<svg
   xmlns:dc="http://purl.org/dc/elements/1.1/"
   xmlns:cc="http://web.resource.org/cc/"
   xmlns:rdf="http://www.w3.org/1999/02/22-rdf-syntax-ns#"
   xmlns:svg="http://www.w3.org/2000/svg"
   xmlns="http://www.w3.org/2000/svg"
   xmlns:sodipodi="http://inkscape.sourceforge.net/DTD/sodipodi-0.dtd"
   xmlns:inkscape="http://www.inkscape.org/namespaces/inkscape"
   width="700"
   height="900"
   id="svg2"
   sodipodi:version="0.32"
   inkscape:version="0.43"
   sodipodi:docbase="/home/jholland"
   sodipodi:docname="section.svg">
  <defs
     id="defs4" />
  <sodipodi:namedview
     id="base"
     pagecolor="#ffffff"
     bordercolor="#666666"
     borderopacity="1.0"
     inkscape:pageopacity="0.0"
     inkscape:pageshadow="2"
     inkscape:zoom="2"
     inkscape:cx="211.21895"
     inkscape:cy="767.76585"
     inkscape:document-units="px"
     inkscape:current-layer="layer1"
     inkscape:window-width="1270"
     inkscape:window-height="999"
     inkscape:window-x="0"
     inkscape:window-y="0" />
  <metadata
     id="metadata7">
    <rdf:RDF>
      <cc:Work
         rdf:about="">
        <dc:format>image/svg+xml</dc:format>
        <dc:type
           rdf:resource="http://purl.org/dc/dcmitype/StillImage" />
      </cc:Work>
    </rdf:RDF>
  </metadata>
  <g
     inkscape:label="Layer 1"
     inkscape:groupmode="layer"
     id="layer1">
    <rect
       style="opacity:1;fill:none;fill-opacity:1;fill-rule:evenodd;stroke:#020004;stroke-width:3.67499995;stroke-miterlimit:4;stroke-dasharray:none;stroke-opacity:1"
       id="rect1307"
       width="494.28571"
       height="431.42856"
       x="125.71429"
       y="132.36218"
       transform="" />
    <rect
       style="opacity:1;fill:#000000;fill-opacity:1;fill-rule:evenodd;stroke:#020004;stroke-width:4.10091972;stroke-miterlimit:4;stroke-dasharray:none;stroke-opacity:1"
       id="rect1309"
       width="494.50391"
       height="98.340683"
       x="662.10388"
       y="-1009.5444"
       transform="matrix(1,0,0.544988,-0.838444,0,0)" />
    <rect
       style="opacity:1;fill:none;fill-opacity:1;fill-rule:evenodd;stroke:#020004;stroke-width:4.214921;stroke-miterlimit:4;stroke-dasharray:none;stroke-opacity:1"
       id="rect2186"
       width="491.31534"
       height="101.56042"
       x="190.2717"
       y="42.256596"
       transform="matrix(1,0,-0.434609,0.900619,0,0)" />
    <path
       style="fill:none;fill-opacity:0.75;fill-rule:evenodd;stroke:#000000;stroke-width:3;stroke-linecap:butt;stroke-linejoin:miter;stroke-opacity:1;stroke-miterlimit:4;stroke-dasharray:none"
       d="M 662.85714,40.933611 C 660,475.21933 660,475.21933 660,475.21933 C 622.85714,563.79075 622.85714,563.79075 622.85714,563.79075"
       id="path2198" />
    <path
       style="fill:#000000;fill-opacity:1;fill-rule:nonzero;stroke:none;stroke-width:1px;stroke-linecap:butt;stroke-linejoin:miter;stroke-opacity:1"
       id="path2204"
       d="M 163.76562,366.7627 C 179.53386,362.02655 196.99555,361.76484 213.60186,361.46718 C 233.05227,361.39618 252.52083,360.63315 271.88312,362.34679 C 289.46876,365.92075 305.66842,374.83967 322.36216,381.53957 C 336.02003,388.33286 348.30152,395.97813 362.84396,393.17115 C 374.7071,391.14835 385.61686,396.58041 397.27449,398.17504 C 409.93758,398.57805 422.61354,398.3812 435.28193,398.37045 C 452.26088,397.98244 469.31255,399.53677 486.20134,397.46002 C 504.72619,396.23195 521.04461,389.77436 537.65061,381.58294 C 610.64598,353.15103 444.84855,428.9612 580.51734,361.41243 C 568.16222,368.79665 555.82763,376.21873 543.45198,383.56507 C 528.35065,392.52941 603.54896,347.14298 588.50869,356.2194 C 505.40485,406.37041 582.74702,351.45091 612.60447,347.04134 C 625.16312,346.53052 637.7421,346.70593 650.1308,348.10207 C 653.44436,348.41804 656.47303,349.78033 659.66272,350.62438 L 622.15351,377.54919 C 619.0359,376.82944 615.95955,375.86536 612.78669,375.38671 C 600.60846,374.78777 588.3007,374.43529 576.10491,375.45561 C 557.43066,380.88453 532.2106,399.00234 596.71235,359.67946 C 611.95247,350.38846 535.68865,396.72903 550.9185,387.41956 C 563.20755,379.90768 575.5075,372.41527 587.82723,364.95878 C 588.4967,364.55358 586.52309,365.82934 585.87103,366.26462 C 572.20358,374.52858 558.53614,382.79253 544.8687,391.05649 C 529.15296,398.80756 505.1278,413.84388 570.54999,374.36208 C 572.7442,373.03789 518.46827,412.50755 502.55489,410.80941 C 485.66607,418.96716 468.75628,424.59426 450.0261,425.63724 C 432.89803,426.75668 415.69611,426.13527 398.53568,426.36012 C 385.78371,426.37644 373.00136,426.71683 360.2731,425.81052 C 348.99864,423.85654 338.38708,418.28138 326.99762,422.49766 C 311.93483,422.85282 298.42104,414.19848 284.64885,407.92299 C 268.42601,401.07326 252.46974,392.35045 235.03014,389.71749 C 215.86582,388.74254 196.6225,389.085 177.42032,389.12232 C 160.26431,389.61604 143.22804,391.39913 126.55147,395.10452 L 163.76562,366.7627 z " />
    <path
       sodipodi:type="star"
       style="opacity:1;fill:#000000;fill-opacity:1;fill-rule:evenodd;stroke:#020004;stroke-width:3.67499995;stroke-miterlimit:4;stroke-dasharray:none;stroke-opacity:1"
       id="path2208"
       sodipodi:sides="3"
       sodipodi:cx="-1208.5714"
       sodipodi:cy="386.64789"
       sodipodi:r1="22.857141"
       sodipodi:r2="35.828388"
       sodipodi:arg1="3.4356545e-08"
       sodipodi:arg2="1.0471976"
       inkscape:flatsided="true"
       inkscape:rounded="0"
       inkscape:randomized="0"
       d="M -1185.7143,386.64789 L -1220,406.44275 L -1220,366.85302 L -1185.7143,386.64789 z "
       transform="matrix(0,1,-1.132077,0,692.0009,1938.077)" />
    <path
       style="fill:none;fill-opacity:0.75;fill-rule:evenodd;stroke:#000000;stroke-width:5.19999981;stroke-linecap:butt;stroke-linejoin:miter;stroke-miterlimit:4;stroke-dasharray:none;stroke-opacity:1"
       d="M 254.28571,578.07647 C 254.28571,715.21933 254.28571,718.07647 254.28571,718.07647"
       id="path3083" />
    <path
       sodipodi:type="star"
       style="opacity:1;fill:#000000;fill-opacity:1;fill-rule:evenodd;stroke:#020004;stroke-width:3.67499995;stroke-miterlimit:4;stroke-dasharray:none;stroke-opacity:1"
       id="path3958"
       sodipodi:sides="3"
       sodipodi:cx="-1208.5714"
       sodipodi:cy="386.64789"
       sodipodi:r1="22.857141"
       sodipodi:r2="35.828388"
       sodipodi:arg1="3.4356545e-08"
       sodipodi:arg2="1.0471976"
       inkscape:flatsided="true"
       inkscape:rounded="0"
       inkscape:randomized="0"
       d="M -1185.7143,386.64789 L -1220,406.44275 L -1220,366.85302 L -1185.7143,386.64789 z "
       transform="matrix(0,-1.763863,-0.808702,0,765.5401,-1619.104)" />
    <path
       style="fill:none;fill-opacity:0.75;fill-rule:evenodd;stroke:#000000;stroke-width:5.83703327;stroke-linecap:butt;stroke-linejoin:miter;stroke-miterlimit:4;stroke-dasharray:none;stroke-opacity:1"
       d="M 452.85714,779.75019 C 452.85714,537.84893 452.85714,532.80933 452.85714,532.80933"
       id="path3960" />
    <path
       style="font-size:36px;font-style:normal;font-variant:normal;font-weight:normal;font-stretch:normal;text-align:start;line-height:125%;writing-mode:lr-tb;text-anchor:start;fill:#000000;fill-opacity:1;stroke:none;stroke-width:1px;stroke-linecap:butt;stroke-linejoin:miter;stroke-opacity:1;font-family:Bitstream Vera Sans"
       d="M 203.6875,631.71875 C 201.67023,631.76829 199.73384,632.60987 198.4375,634.09375 C 199.35143,630.73635 192.07472,631.48463 194.1875,635.1875 C 194.1875,643.57292 194.1875,651.95833 194.1875,660.34375 C 198.41112,661.48404 199.02738,659.01697 198.4375,655.34375 C 198.54371,653.03312 197.68167,649.63372 200.28125,652.46875 C 204.92627,655.05674 211.18514,652.03449 212.21875,646.84375 C 214.03512,641.09482 212.02581,632.54185 205.15625,631.75 C 204.66653,631.72719 204.17791,631.63843 203.6875,631.71875 z M 203.1875,635.40625 C 208.2759,635.21129 209.17692,641.7957 208.09375,645.625 C 207.67042,649.25563 202.75072,651.12362 200.1875,648.3125 C 197.67772,644.9938 197.65653,639.11463 200.75,636.25 C 201.46152,635.73345 202.30027,635.44078 203.1875,635.40625 z "
       id="text3962" />
    <text
       xml:space="preserve"
       style="font-size:36px;font-style:normal;font-variant:normal;font-weight:normal;font-stretch:normal;text-align:start;line-height:125%;writing-mode:lr-tb;text-anchor:start;fill:#000000;fill-opacity:1;stroke:none;stroke-width:1px;stroke-linecap:butt;stroke-linejoin:miter;stroke-opacity:1;font-family:Bitstream Vera Sans"
       x="487.92383"
       y="649.6991"
       id="text3966"
       sodipodi:linespacing="125%"><tspan
         sodipodi:role="line"
         id="tspan3968"
         x="487.92383"
         y="649.6991">s</tspan></text>
    <text
       xml:space="preserve"
       style="font-size:36px;font-style:normal;font-variant:normal;font-weight:normal;font-stretch:normal;text-align:start;line-height:125%;writing-mode:lr-tb;text-anchor:start;fill:#000000;fill-opacity:1;stroke:none;stroke-width:1px;stroke-linecap:butt;stroke-linejoin:miter;stroke-opacity:1;font-family:Bitstream Vera Sans"
       x="39.923828"
       y="234.6991"
       id="text7462"
       sodipodi:linespacing="125%"><tspan
         sodipodi:role="line"
         id="tspan7464"
         x="39.923828"
         y="234.6991">E</tspan></text>
    <text
       xml:space="preserve"
       style="font-size:36px;font-style:normal;font-variant:normal;font-weight:normal;font-stretch:normal;text-align:start;line-height:125%;writing-mode:lr-tb;text-anchor:start;fill:#000000;fill-opacity:1;stroke:none;stroke-width:1px;stroke-linecap:butt;stroke-linejoin:miter;stroke-opacity:1;font-family:Bitstream Vera Sans"
       x="48.923828"
       y="825.6991"
       id="text7466"
       sodipodi:linespacing="125%"><tspan
         sodipodi:role="line"
         id="tspan7468"
         x="48.923828"
         y="825.6991">B</tspan></text>
  </g>
</svg>
