<?xml version="1.0" encoding="UTF-8" standalone="no"?>
<!-- Created with Serif DrawPlus 11, 0, 3, 23 (Feb 25, 14:12:55) (http://www.serif.com) -->
<svg version="1.1" xmlns="http://www.w3.org/2000/svg" xmlns:xlink="http://www.w3.org/1999/xlink" xmlns:inkscape="http://www.inkscape.org/namespaces/inkscape" width="200.352" height="170.188">
	<g id="dp_group001" transform="matrix(1,0,0,1,-806.799,-636.407)">
		<path id="dp_path002" fill="none" fill-rule="evenodd" stroke="black" stroke-width="0.718667" d="M 969.647,736.793 L 927.097,737.959"/>
		<g id="dp_group003">
			<path id="dp_path004" fill="#423fff" fill-rule="evenodd" fill-opacity="0.796078" d="M 911.193,800.201 L 851.04,777.968 L 905.2,749.805 L 965.355,772.04 Z "/>
			<g id="dp_group005">
				<g id="dp_group006">
					<path id="dp_path007" fill="#1e02ab" fill-opacity="0.796078" d="M 852.519,777.876 L 905.24,750.46 L 963.876,772.132 L 911.153,799.547 L 852.519,777.876 L 849.561,778.06 L 911.233,800.856 L 966.833,771.948 L 905.16,749.151 L 849.561,778.06 Z "/>
				</g>
			</g>
		</g>
		<path id="dp_path008" fill="#1e02ab" fill-rule="evenodd" fill-opacity="0.501961" stroke="none" stroke-width="1.33333" d="M 974.231,655.863 L 965.695,672.016 L 971.729,672.021 L 971.627,788.316 L 976.604,788.32 L 976.707,672.025 L 982.741,672.031 Z "/>
		<text id="dp_text001" transform="matrix(1,0,0,1,986.781,736.343)" xml:space="preserve" fill="#aa0082" font-family="Arial" font-size="15" font-weight="400" x="0" y="0">0 </text>
		<text id="dp_text002" transform="matrix(1,0,0,1,978.171,692.218)" xml:space="preserve" fill="#1e02ab" font-family="Arial" font-size="15" font-weight="400" x="0" y="0">+1</text>
		<text id="dp_text003" transform="matrix(1,0,0,1,978.171,692.218)" xml:space="preserve" fill="#1e02ab" font-family="Times New Roman" font-size="15" font-weight="400" x="16.74" y="0"> </text>
		<text id="dp_text004" transform="matrix(1,0,0,1,978.171,714.28)" xml:space="preserve" fill="#1e02ab" font-family="Arial" font-size="15" font-weight="400" x="0" y="0">+0.5</text>
		<text id="dp_text005" transform="matrix(1,0,0,1,978.171,714.28)" xml:space="preserve" fill="#1e02ab" font-family="Times New Roman" font-size="15" font-weight="400" x="28.98" y="0"> </text>
		<text id="dp_text006" transform="matrix(1,0,0,1,978.171,780.471)" xml:space="preserve" fill="#1e02ab" font-family="Arial" font-size="15" font-weight="400" x="0" y="0">−</text>
		<text id="dp_text007" transform="matrix(1,0,0,1,978.171,780.471)" xml:space="preserve" fill="#1e02ab" font-family="Arial" font-size="15" font-weight="400" x="8.56533" y="0">1</text>
		<text id="dp_text008" transform="matrix(1,0,0,1,978.171,780.471)" xml:space="preserve" fill="#1e02ab" font-family="Times New Roman" font-size="15" font-weight="400" x="16.74" y="0"> </text>
		<text id="dp_text009" transform="matrix(1,0,0,1,978.171,757.407)" xml:space="preserve" fill="#1e02ab" font-family="Arial" font-size="15" font-weight="400" x="0" y="0">−</text>
		<text id="dp_text010" transform="matrix(1,0,0,1,978.171,757.407)" xml:space="preserve" fill="#1e02ab" font-family="Arial" font-size="15" font-weight="400" x="8.56533" y="0">0.5</text>
		<text id="dp_text011" transform="matrix(1,0,0,1,978.171,757.407)" xml:space="preserve" fill="#1e02ab" font-family="Times New Roman" font-size="15" font-weight="400" x="28.98" y="0"> </text>
		<path id="dp_path020" fill="none" fill-rule="evenodd" stroke="black" stroke-width="0.666667" d="M 867.033,806.455 L 878.023,782.508"/>
		<path id="dp_path021" fill="none" fill-rule="evenodd" stroke="black" stroke-width="0.666667" d="M 878.023,782.508 L 887.276,762.345"/>
		<g id="dp_group022">
			<g id="dp_group023">
				<path id="dp_path024" fill="black" fill-rule="evenodd" d="M 943.793,787.933 L 943.308,788.391 L 942.339,789.307 L 945.839,790.587 L 944.763,787.019 Z "/>
				<path id="dp_path025" fill="black" d="M 923.277,767.163 L 943.308,788.392 L 943.793,787.933 L 923.763,766.704 Z "/>
			</g>
		</g>
		<g id="dp_group026">
			<path id="dp_path027" fill="#423fff" fill-rule="evenodd" fill-opacity="0.796078" d="M 911.193,779.107 L 851.04,756.875 L 905.2,728.712 L 965.355,750.947 Z "/>
			<g id="dp_group028">
				<g id="dp_group029">
					<path id="dp_path030" fill="#1e02ab" fill-opacity="0.796078" d="M 852.519,756.783 L 905.24,729.367 L 963.876,751.039 L 911.153,778.452 L 852.519,756.783 L 849.561,756.967 L 911.233,779.761 L 966.833,750.855 L 905.16,728.057 L 849.561,756.967 Z "/>
				</g>
			</g>
		</g>
		<path id="dp_path031" fill="none" fill-rule="evenodd" stroke="black" stroke-width="0.666667" d="M 897.145,738.981 L 923.52,766.933"/>
		<path id="dp_path032" fill="none" fill-rule="evenodd" stroke="black" stroke-width="0.666667" d="M 887.276,762.345 L 898.117,738.721"/>
		<path id="dp_path033" fill="#1e02ab" fill-rule="evenodd" stroke="none" stroke-width="1.33333" d="M 915.241,653.981 L 915.241,653.915 C 915.212,653.84 915.16,653.769 915.084,653.701 C 915.009,653.635 914.927,653.601 914.837,653.601 L 914.409,653.601 C 914.244,653.601 914.161,653.683 914.161,653.847 C 914.161,654.056 914.067,654.235 913.877,654.384 C 913.685,654.532 913.465,654.607 913.216,654.607 C 912.977,654.607 912.552,653.599 911.941,651.584 C 912.373,650.867 912.709,650.083 912.948,649.232 C 913.185,648.381 913.305,647.501 913.305,646.591 C 913.305,646.561 913.297,646.539 913.283,646.524 C 913.268,646.448 913.223,646.377 913.147,646.309 C 913.072,646.243 912.991,646.209 912.901,646.209 L 912.472,646.209 C 912.307,646.209 912.225,646.291 912.225,646.455 C 912.225,647.097 912.161,647.725 912.035,648.336 C 911.908,648.949 911.733,649.539 911.509,650.105 L 911.287,649.345 C 911.092,648.703 910.804,648.12 910.416,647.599 C 910.029,647.075 909.571,646.628 909.041,646.253 C 908.513,645.881 907.936,645.595 907.312,645.392 C 906.685,645.191 906.037,645.089 905.367,645.089 C 904.639,645.089 903.92,645.195 903.212,645.403 C 902.505,645.611 901.875,645.971 901.325,646.477 C 900.804,646.955 900.417,647.515 900.164,648.156 C 899.911,648.797 899.784,649.468 899.784,650.171 C 899.784,650.888 899.911,651.577 900.164,652.241 C 900.417,652.904 900.819,653.484 901.371,653.976 C 901.949,654.497 902.605,654.868 903.335,655.084 C 904.065,655.3 904.796,655.408 905.525,655.408 C 906.448,655.408 907.304,655.255 908.093,654.949 C 908.884,654.644 909.597,654.208 910.237,653.643 C 910.595,654.164 911.043,654.588 911.579,654.916 C 912.115,655.244 912.711,655.408 913.367,655.408 C 913.588,655.408 913.812,655.377 914.035,655.319 C 914.259,655.259 914.46,655.171 914.639,655.052 C 914.817,654.933 914.963,654.784 915.075,654.607 C 915.187,654.428 915.241,654.22 915.241,653.981 Z M 909.748,652.747 C 909.167,653.329 908.508,653.785 907.769,654.113 C 907.032,654.443 906.232,654.607 905.367,654.607 C 904.92,654.607 904.507,654.517 904.127,654.339 C 903.747,654.159 903.437,653.897 903.2,653.555 C 902.901,653.12 902.727,652.631 902.675,652.085 C 902.623,651.541 902.596,650.955 902.596,650.327 C 902.596,649.715 902.623,649.133 902.675,648.58 C 902.727,648.027 902.909,647.519 903.221,647.056 C 903.475,646.667 903.811,646.377 904.228,646.181 C 904.644,645.988 905.077,645.891 905.524,645.891 C 905.971,645.891 906.365,645.999 906.708,646.215 C 907.051,646.432 907.356,646.727 907.624,647.101 C 907.893,647.473 908.128,647.904 908.328,648.388 C 908.529,648.875 908.712,649.387 908.876,649.925 L 909.591,652.321 C 909.621,652.396 909.647,652.467 909.669,652.533 C 909.692,652.601 909.717,652.672 909.748,652.747 Z "/>
		<path id="dp_path034" fill="none" fill-rule="evenodd" stroke="black" stroke-width="0.666667" d="M 927.097,737.959 L 897.373,738.907"/>
		<g id="dp_group035">
			<path id="dp_path036" fill="#9d00f3" fill-rule="evenodd" fill-opacity="0.796078" d="M 911.193,758.013 L 851.04,735.78 L 905.2,707.619 L 965.355,729.852 Z "/>
			<g id="dp_group037">
				<g id="dp_group038">
					<path id="dp_path039" fill="#aa0082" fill-opacity="0.796078" d="M 852.519,735.688 L 905.24,708.273 L 963.876,729.944 L 911.153,757.359 L 852.519,735.688 L 849.561,735.872 L 911.233,758.668 L 966.833,729.76 L 905.16,706.964 L 849.561,735.872 Z "/>
				</g>
			</g>
		</g>
		<g id="dp_group040">
			<g id="dp_group041">
				<path id="dp_path042" fill="black" fill-rule="evenodd" d="M 821.405,741.664 L 821.384,740.997 L 821.341,739.665 L 818.063,741.437 L 821.448,742.997 Z "/>
				<path id="dp_path043" fill="black" d="M 897.363,738.573 L 821.384,740.997 L 821.405,741.664 L 897.384,739.24 Z "/>
			</g>
		</g>
		<path id="dp_path044" fill="none" fill-rule="evenodd" stroke="black" stroke-width="0.666667" d="M 871.384,711.68 L 897.145,738.981"/>
		<path id="dp_path045" fill="none" fill-rule="evenodd" stroke="black" stroke-width="0.666667" d="M 898.117,738.721 L 908.701,715.66"/>
		<g id="dp_group046">
			<path id="dp_path047" fill="#423fff" fill-rule="evenodd" fill-opacity="0.796078" d="M 911.193,736.92 L 851.04,714.687 L 905.2,686.524 L 965.355,708.759 Z "/>
			<g id="dp_group048">
				<g id="dp_group049">
					<path id="dp_path050" fill="#1e02ab" fill-opacity="0.796078" d="M 852.519,714.595 L 905.24,687.179 L 963.876,708.851 L 911.153,736.265 L 852.519,714.595 L 849.561,714.779 L 911.233,737.575 L 966.833,708.667 L 905.16,685.869 L 849.561,714.779 Z "/>
				</g>
			</g>
		</g>
		<path id="dp_path051" fill="none" fill-rule="evenodd" stroke="black" stroke-width="0.666667" d="M 840.252,678.724 L 871.384,711.68"/>
		<path id="dp_path052" fill="none" fill-rule="evenodd" stroke="black" stroke-width="0.666667" d="M 908.701,715.66 L 919.217,692.748"/>
		<g id="dp_group053">
			<path id="dp_path054" fill="#423fff" fill-rule="evenodd" fill-opacity="0.796078" d="M 911.193,715.825 L 851.04,693.592 L 905.2,665.429 L 965.355,687.664 Z "/>
			<g id="dp_group055">
				<g id="dp_group056">
					<path id="dp_path057" fill="#1e02ab" fill-opacity="0.796078" d="M 852.519,693.5 L 905.24,666.084 L 963.876,687.756 L 911.153,715.171 L 852.519,693.5 L 849.561,693.684 L 911.233,716.48 L 966.833,687.572 L 905.16,664.775 L 849.561,693.684 Z "/>
				</g>
			</g>
		</g>
		<g id="dp_group058">
			<g id="dp_group059">
				<path id="dp_path060" fill="black" fill-rule="evenodd" d="M 934.123,659.472 L 934.728,659.749 L 935.94,660.305 L 935.816,656.581 L 932.911,658.915 Z "/>
				<path id="dp_path061" fill="black" d="M 919.52,692.887 L 934.728,659.749 L 934.123,659.472 L 918.915,692.609 Z "/>
			</g>
		</g>
		<text id="dp_text012" transform="matrix(1,0,0,1,806.837,746.407)" xml:space="preserve" fill="black" font-family="Arial" font-size="15" font-weight="400" font-style="italic" x="0" y="0">x</text>
		<text id="dp_text013" transform="matrix(1,0,0,1,806.837,746.407)" xml:space="preserve" fill="black" font-family="Times New Roman" font-size="15" font-weight="400" font-style="italic" x="7.35333" y="0"> </text>
		<text id="dp_text014" transform="matrix(1,0,0,1,947.504,802.407)" xml:space="preserve" fill="black" font-family="Arial" font-size="15" font-weight="400" font-style="italic" x="0" y="0">y</text>
		<text id="dp_text015" transform="matrix(1,0,0,1,947.504,802.407)" xml:space="preserve" fill="black" font-family="Times New Roman" font-size="15" font-weight="400" font-style="italic" x="7.35333" y="0"> </text>
		<text id="dp_text016" transform="matrix(1,0,0,1,936.837,651.073)" xml:space="preserve" fill="black" font-family="Arial" font-size="15" font-weight="400" font-style="italic" x="0" y="0">z</text>
		<text id="dp_text017" transform="matrix(1,0,0,1,936.837,651.073)" xml:space="preserve" fill="black" font-family="Times New Roman" font-size="15" font-weight="400" font-style="italic" x="7.352" y="0"> </text>
	</g>
</svg>