<?xml version="1.0" encoding="UTF-8" standalone="no"?>
<svg
   xmlns:dc="http://purl.org/dc/elements/1.1/"
   xmlns:cc="http://web.resource.org/cc/"
   xmlns:rdf="http://www.w3.org/1999/02/22-rdf-syntax-ns#"
   xmlns:svg="http://www.w3.org/2000/svg"
   xmlns="http://www.w3.org/2000/svg"
   xmlns:sodipodi="http://inkscape.sourceforge.net/DTD/sodipodi-0.dtd"
   xmlns:inkscape="http://www.inkscape.org/namespaces/inkscape"
   preserveAspectRatio="xMinYMin meet"
   width="400"
   height="770pt"
   viewBox="0 0 199.20605 1"
   version="1.0"
   id="svg2"
   sodipodi:version="0.32"
   inkscape:version="0.43"
   sodipodi:docname="Tangent_bundle.svg"
   sodipodi:docbase="/home/aoleg/diverse/wiki">
  <metadata
     id="metadata188">
    <rdf:RDF>
      <cc:Work
         rdf:about="">
        <dc:format>image/svg+xml</dc:format>
        <dc:type
           rdf:resource="http://purl.org/dc/dcmitype/StillImage" />
      </cc:Work>
    </rdf:RDF>
  </metadata>
  <defs
     id="defs186" />
  <sodipodi:namedview
     inkscape:window-height="993"
     inkscape:window-width="1139"
     inkscape:pageshadow="2"
     inkscape:pageopacity="0.0"
     guidetolerance="10.0"
     gridtolerance="10.0"
     objecttolerance="10.0"
     borderopacity="1.0"
     bordercolor="#666666"
     pagecolor="#ffffff"
     id="base"
     height="540.56px"
     width="331.49289px"
     inkscape:zoom="0.34261008"
     inkscape:cx="37.172998"
     inkscape:cy="-157.12907"
     inkscape:window-x="62"
     inkscape:window-y="-20"
     inkscape:current-layer="svg2"
     showgrid="true" />
  <desc
     id="desc4">Matlab Figure Converted by PLOT2SVG written by Juerg Schwizer</desc>
  <g
     id="g2564"
     transform="matrix(0.575346,2.214053e-2,-2.214053e-2,0.575346,-63.55036,-54.20274)">
    <rect
       style="opacity:1;fill:#ffffff;fill-opacity:0;fill-rule:evenodd;stroke:none;stroke-width:2;stroke-linecap:butt;stroke-linejoin:bevel;stroke-miterlimit:4;stroke-dasharray:none;stroke-dashoffset:0;stroke-opacity:1"
       id="rect2734"
       width="199.20605"
       height="489.73987"
       x="-1.459385"
       y="30.495306"
       transform="matrix(1.735514,-6.678622e-2,6.678622e-2,1.735514,114.4086,36.80282)" />
    <g
       id="g3577"
       transform="translate(-320.5476,60.79123)">
      <g
         id="g3409"
         transform="translate(323.4734,16.24967)">
        <clipPath
           id="clipPath3581">
          <rect
             id="rect3412"
             height="342.29999"
             width="434"
             y="31.5"
             x="72.800003" />
        </clipPath>
        <g
           id="g3414">
          <g
             id="g3416"
             clip-path="url(#ID000000)">
            <polyline
               id="polyline3418"
               points="350.248,202.479 350.126,198.645 349.762,194.827 349.156,191.040 348.311,187.298 347.230,183.618 345.918,180.014 344.380,176.500 342.623,173.091 340.652,169.800 338.477,166.640 336.106,163.625 333.549,160.767 330.815,158.076 327.917,155.564 324.864,153.242 321.671,151.117 318.349,149.199 314.912,147.496 311.375,146.014 307.750,144.759 304.053,143.737 300.299,142.952 296.502,142.406 292.679,142.102 288.843,142.041 285.012,142.224 281.200,142.649 277.423,143.315 273.695,144.219 270.033,145.358 266.450,146.727 262.961,148.320 259.580,150.132 256.320,152.154 253.196,154.379 250.219,156.797 247.401,159.400 244.754,162.176 242.289,165.114 240.015,168.203 237.941,171.430 236.076,174.781 234.428,178.245 233.002,181.806 231.805,185.450 230.842,189.162 230.116,192.929 229.630,196.733 229.387,200.561 229.387,204.397 229.630,208.225 230.116,212.030 230.842,215.796 231.805,219.509 233.002,223.153 234.428,226.714 236.076,230.177 237.941,233.529 240.015,236.755 242.289,239.844 244.754,242.782 247.401,245.558 250.219,248.161 253.196,250.579 256.320,252.804 259.580,254.827 262.961,256.638 266.450,258.231 270.033,259.600 273.695,260.739 277.423,261.643 281.200,262.310 285.012,262.735 288.843,262.917 292.679,262.856 296.502,262.552 300.299,262.006 304.053,261.221 307.750,260.199 311.375,258.944 314.912,257.462 318.349,255.759 321.671,253.841 324.864,251.717 327.917,249.394 330.815,246.882 333.549,244.191 336.106,241.333 338.477,238.318 340.652,235.159 342.623,231.868 344.380,228.458 345.918,224.944 347.230,221.340 348.311,217.660 349.156,213.919 349.762,210.131 350.126,206.313 350.248,202.479 "
               style="fill:none;stroke:#0080cc;stroke-width:4pt;stroke-dasharray:none" />
            <g
               id="g3420" />
          </g>
          <g
             id="g3422"
             clip-path="url(#ID000000)">
            <polyline
               id="polyline3424"
               points="363.390,357.191 343.213,39.696 "
               style="fill:none;stroke:#dd0f23;stroke-width:2pt;stroke-dasharray:none" />
            <g
               id="g3426" />
          </g>
          <g
             id="g3428"
             clip-path="url(#ID000000)">
            <polyline
               id="polyline3430"
               points="399.887,333.751 300.618,31.500 "
               style="fill:none;stroke:#dd0f23;stroke-width:2pt;stroke-dasharray:none" />
            <g
               id="g3432" />
          </g>
          <g
             id="g3434"
             clip-path="url(#ID000000)">
            <polyline
               id="polyline3436"
               points="429.327,301.896 257.330,34.264 "
               style="fill:none;stroke:#dd0f23;stroke-width:2pt;stroke-dasharray:none" />
            <g
               id="g3438" />
          </g>
          <g
             id="g3440"
             clip-path="url(#ID000000)">
            <polyline
               id="polyline3442"
               points="449.824,263.668 216.124,47.811 "
               style="fill:none;stroke:#dd0f23;stroke-width:2pt;stroke-dasharray:none" />
            <g
               id="g3444" />
          </g>
          <g
             id="g3446"
             clip-path="url(#ID000000)">
            <polyline
               id="polyline3448"
               points="460.062,221.518 179.641,71.272 "
               style="fill:none;stroke:#dd0f23;stroke-width:2pt;stroke-dasharray:none" />
            <g
               id="g3450" />
          </g>
          <g
             id="g3452"
             clip-path="url(#ID000000)">
            <polyline
               id="polyline3454"
               points="459.387,178.147 150.219,103.144 "
               style="fill:none;stroke:#dd0f23;stroke-width:2pt;stroke-dasharray:none" />
            <g
               id="g3456" />
          </g>
          <g
             id="g3458"
             clip-path="url(#ID000000)">
            <polyline
               id="polyline3460"
               points="447.840,136.336 129.745,141.384 "
               style="fill:none;stroke:#dd0f23;stroke-width:2pt;stroke-dasharray:none" />
            <g
               id="g3462" />
          </g>
          <g
             id="g3464"
             clip-path="url(#ID000000)">
            <polyline
               id="polyline3466"
               points="426.163,98.765 119.532,183.540 "
               style="fill:none;stroke:#dd0f23;stroke-width:2pt;stroke-dasharray:none" />
            <g
               id="g3468" />
          </g>
          <g
             id="g3470"
             clip-path="url(#ID000000)">
            <polyline
               id="polyline3472"
               points="395.745,67.843 120.232,226.910 "
               style="fill:none;stroke:#dd0f23;stroke-width:2pt;stroke-dasharray:none" />
            <g
               id="g3474" />
          </g>
          <g
             id="g3476"
             clip-path="url(#ID000000)">
            <polyline
               id="polyline3478"
               points="358.536,45.551 131.803,268.714 "
               style="fill:none;stroke:#dd0f23;stroke-width:2pt;stroke-dasharray:none" />
            <g
               id="g3480" />
          </g>
          <g
             id="g3482"
             clip-path="url(#ID000000)">
            <polyline
               id="polyline3484"
               points="316.921,33.318 153.502,306.273 "
               style="fill:none;stroke:#dd0f23;stroke-width:2pt;stroke-dasharray:none" />
            <g
               id="g3486" />
          </g>
          <g
             id="g3488"
             clip-path="url(#ID000000)">
            <polyline
               id="polyline3490"
               points="273.567,31.929 183.938,337.177 "
               style="fill:none;stroke:#dd0f23;stroke-width:2pt;stroke-dasharray:none" />
            <g
               id="g3492" />
          </g>
          <g
             id="g3494"
             clip-path="url(#ID000000)">
            <polyline
               id="polyline3496"
               points="231.254,41.473 221.161,359.448 "
               style="fill:none;stroke:#dd0f23;stroke-width:2pt;stroke-dasharray:none" />
            <g
               id="g3498" />
          </g>
          <g
             id="g3500"
             clip-path="url(#ID000000)">
            <polyline
               id="polyline3502"
               points="192.695,61.338 262.783,371.656 "
               style="fill:none;stroke:#dd0f23;stroke-width:2pt;stroke-dasharray:none" />
            <g
               id="g3504" />
          </g>
          <g
             id="g3506"
             clip-path="url(#ID000000)">
            <polyline
               id="polyline3508"
               points="160.360,90.250 306.137,373.019 "
               style="fill:none;stroke:#dd0f23;stroke-width:2pt;stroke-dasharray:none" />
            <g
               id="g3510" />
          </g>
          <g
             id="g3512"
             clip-path="url(#ID000000)">
            <polyline
               id="polyline3514"
               points="136.322,126.356 348.445,363.451 "
               style="fill:none;stroke:#dd0f23;stroke-width:2pt;stroke-dasharray:none" />
            <g
               id="g3516" />
          </g>
          <g
             id="g3518"
             clip-path="url(#ID000000)">
            <polyline
               id="polyline3520"
               points="122.123,167.342 386.993,343.564 "
               style="fill:none;stroke:#dd0f23;stroke-width:2pt;stroke-dasharray:none" />
            <g
               id="g3522" />
          </g>
          <g
             id="g3524"
             clip-path="url(#ID000000)">
            <polyline
               id="polyline3526"
               points="118.673,210.581 419.311,314.633 "
               style="fill:none;stroke:#dd0f23;stroke-width:2pt;stroke-dasharray:none" />
            <g
               id="g3528" />
          </g>
          <g
             id="g3530"
             clip-path="url(#ID000000)">
            <polyline
               id="polyline3532"
               points="126.193,253.300 443.327,278.512 "
               style="fill:none;stroke:#dd0f23;stroke-width:2pt;stroke-dasharray:none" />
            <g
               id="g3534" />
          </g>
          <g
             id="g3536"
             clip-path="url(#ID000000)">
            <polyline
               id="polyline3538"
               points="144.200,292.761 457.502,237.518 "
               style="fill:none;stroke:#dd0f23;stroke-width:2pt;stroke-dasharray:none" />
            <g
               id="g3540" />
          </g>
          <g
             id="g3542"
             clip-path="url(#ID000000)">
            <polyline
               id="polyline3544"
               points="171.541,326.435 460.927,194.277 "
               style="fill:none;stroke:#dd0f23;stroke-width:2pt;stroke-dasharray:none" />
            <g
               id="g3546" />
          </g>
          <g
             id="g3548"
             clip-path="url(#ID000000)">
            <polyline
               id="polyline3550"
               points="206.463,352.163 453.382,151.563 "
               style="fill:none;stroke:#dd0f23;stroke-width:2pt;stroke-dasharray:none" />
            <g
               id="g3552" />
          </g>
          <g
             id="g3554"
             clip-path="url(#ID000000)">
            <polyline
               id="polyline3556"
               points="246.727,368.296 435.352,112.112 "
               style="fill:none;stroke:#dd0f23;stroke-width:2pt;stroke-dasharray:none" />
            <g
               id="g3558" />
          </g>
          <g
             id="g3560"
             clip-path="url(#ID000000)">
            <polyline
               id="polyline3562"
               points="289.752,373.800 407.991,78.454 "
               style="fill:none;stroke:#dd0f23;stroke-width:2pt;stroke-dasharray:none" />
            <g
               id="g3564" />
          </g>
          <g
             id="g3566"
             clip-path="url(#ID000000)">
            <polyline
               id="polyline3568"
               points="332.781,368.322 373.054,52.746 "
               style="fill:none;stroke:#dd0f23;stroke-width:2pt;stroke-dasharray:none" />
            <g
               id="g3570" />
          </g>
        </g>
      </g>
    </g>
  </g>
  <g
     id="g8"
     transform="translate(-189.9441,169.8218)">
    <clipPath
       id="ID000000">
      <rect
         x="127.377"
         y="31.5"
         width="324.84601"
         height="342.29999"
         id="rect11" />
    </clipPath>
    <g
       id="g13" />
  </g>
  <g
     id="g15"
     transform="translate(-189.9441,169.8218)">
    <clipPath
       id="ID000001">
      <rect
         x="127.588"
         y="31.5"
         width="324.423"
         height="342.29999"
         id="rect18" />
    </clipPath>
    <g
       id="g20" />
  </g>
  <g
     id="g22"
     transform="matrix(0.955785,0,0,0.955785,-178.6656,173.1514)">
    <clipPath
       id="ID000002">
      <rect
         x="127.588"
         y="31.5"
         width="324.423"
         height="342.29999"
         id="rect25" />
    </clipPath>
    <g
       id="g27">
      <g
         clip-path="url(#ID000002)"
         id="g29">
        <polyline
           points="330.526,210.428 331.283,208.894 331.873,207.334 332.294,205.756 332.544,204.165 332.622,202.568 332.527,200.972 332.260,199.382 331.822,197.805 331.215,196.248 330.441,194.716 329.503,193.217 328.406,191.755 327.152,190.338 325.749,188.970 324.201,187.657 322.514,186.404 320.695,185.217 318.752,184.100 316.692,183.057 314.524,182.094 312.256,181.213 309.898,180.419 307.459,179.714 304.949,179.101 302.378,178.584 299.756,178.163 297.094,177.841 294.402,177.618 291.692,177.497 288.974,177.476 286.260,177.558 283.560,177.740 280.884,178.022 278.245,178.404 275.652,178.883 273.116,179.458 270.648,180.126 268.256,180.885 265.951,181.731 263.742,182.662 261.638,183.674 259.647,184.761 257.778,185.921 256.037,187.148 254.433,188.438 252.971,189.784 251.657,191.183 250.496,192.627 249.494,194.112 248.654,195.632 247.980,197.179 247.474,198.749 247.139,200.334 246.975,201.929 246.984,203.527 247.165,205.121 247.517,206.705 248.040,208.273 248.731,209.818 249.587,211.334 250.605,212.815 251.781,214.255 253.110,215.649 254.587,216.990 256.206,218.274 257.959,219.494 259.841,220.647 261.843,221.727 263.958,222.731 266.177,223.653 268.491,224.491 270.891,225.241 273.367,225.900 275.909,226.466 278.507,226.935 281.151,227.307 283.829,227.579 286.531,227.751 289.246,227.822 291.964,227.792 294.672,227.660 297.361,227.428 300.020,227.096 302.637,226.665 305.203,226.138 307.706,225.516 310.138,224.802 312.487,223.999 314.745,223.109 316.903,222.138 318.952,221.088 320.883,219.964 322.688,218.770 324.362,217.511 325.896,216.192 327.285,214.819 328.522,213.396 329.604,211.931 330.526,210.428 "
           id="polyline31"
           style="fill:none;stroke:#0080cc;stroke-width:4pt;stroke-dasharray:none" />
        <g
           id="g33" />
      </g>
      <g
         clip-path="url(#ID000002)"
         id="g35">
        <polyline
           points="331.283,295.524 331.283,122.264 "
           id="polyline37"
           style="fill:none;stroke:#dd0f23;stroke-width:2pt;stroke-dasharray:none" />
        <g
           id="g39" />
      </g>
      <g
         clip-path="url(#ID000002)"
         id="g41">
        <polyline
           points="332.622,289.198 332.622,115.938 "
           id="polyline43"
           style="fill:none;stroke:#dd0f23;stroke-width:2pt;stroke-dasharray:none" />
        <g
           id="g45" />
      </g>
      <g
         clip-path="url(#ID000002)"
         id="g47">
        <polyline
           points="331.215,282.878 331.215,109.618 "
           id="polyline49"
           style="fill:none;stroke:#dd0f23;stroke-width:2pt;stroke-dasharray:none" />
        <g
           id="g51" />
      </g>
      <g
         clip-path="url(#ID000002)"
         id="g53">
        <polyline
           points="327.152,276.968 327.152,103.708 "
           id="polyline55"
           style="fill:none;stroke:#dd0f23;stroke-width:2pt;stroke-dasharray:none" />
        <g
           id="g57" />
      </g>
      <g
         clip-path="url(#ID000002)"
         id="g59">
        <polyline
           points="320.695,271.847 320.695,98.587 "
           id="polyline61"
           style="fill:none;stroke:#dd0f23;stroke-width:2pt;stroke-dasharray:none" />
        <g
           id="g63" />
      </g>
      <g
         clip-path="url(#ID000002)"
         id="g65">
        <polyline
           points="312.256,267.843 312.256,94.583 "
           id="polyline67"
           style="fill:none;stroke:#dd0f23;stroke-width:2pt;stroke-dasharray:none" />
        <g
           id="g69" />
      </g>
      <g
         clip-path="url(#ID000002)"
         id="g71">
        <polyline
           points="302.378,265.214 302.378,91.954 "
           id="polyline73"
           style="fill:none;stroke:#dd0f23;stroke-width:2pt;stroke-dasharray:none" />
        <g
           id="g75" />
      </g>
      <g
         clip-path="url(#ID000002)"
         id="g77">
        <polyline
           points="291.692,264.127 291.692,90.867 "
           id="polyline79"
           style="fill:none;stroke:#dd0f23;stroke-width:2pt;stroke-dasharray:none" />
        <g
           id="g81" />
      </g>
      <g
         clip-path="url(#ID000002)"
         id="g83">
        <polyline
           points="280.884,264.652 280.884,91.392 "
           id="polyline85"
           style="fill:none;stroke:#dd0f23;stroke-width:2pt;stroke-dasharray:none" />
        <g
           id="g87" />
      </g>
      <g
         clip-path="url(#ID000002)"
         id="g89">
        <polyline
           points="270.648,266.756 270.648,93.496 "
           id="polyline91"
           style="fill:none;stroke:#dd0f23;stroke-width:2pt;stroke-dasharray:none" />
        <g
           id="g93" />
      </g>
      <g
         clip-path="url(#ID000002)"
         id="g95">
        <polyline
           points="261.638,270.304 261.638,97.044 "
           id="polyline97"
           style="fill:none;stroke:#dd0f23;stroke-width:2pt;stroke-dasharray:none" />
        <g
           id="g99" />
      </g>
      <g
         clip-path="url(#ID000002)"
         id="g101">
        <polyline
           points="254.433,275.068 254.433,101.807 "
           id="polyline103"
           style="fill:none;stroke:#dd0f23;stroke-width:2pt;stroke-dasharray:none" />
        <g
           id="g105" />
      </g>
      <g
         clip-path="url(#ID000002)"
         id="g107">
        <polyline
           points="249.494,280.742 249.494,107.482 "
           id="polyline109"
           style="fill:none;stroke:#dd0f23;stroke-width:2pt;stroke-dasharray:none" />
        <g
           id="g111" />
      </g>
      <g
         clip-path="url(#ID000002)"
         id="g113">
        <polyline
           points="247.139,286.964 247.139,113.704 "
           id="polyline115"
           style="fill:none;stroke:#dd0f23;stroke-width:2pt;stroke-dasharray:none" />
        <g
           id="g117" />
      </g>
      <g
         clip-path="url(#ID000002)"
         id="g119">
        <polyline
           points="247.517,293.335 247.517,120.075 "
           id="polyline121"
           style="fill:none;stroke:#dd0f23;stroke-width:2pt;stroke-dasharray:none" />
        <g
           id="g123" />
      </g>
      <g
         clip-path="url(#ID000002)"
         id="g125">
        <polyline
           points="250.605,299.445 250.605,126.185 "
           id="polyline127"
           style="fill:none;stroke:#dd0f23;stroke-width:2pt;stroke-dasharray:none" />
        <g
           id="g129" />
      </g>
      <g
         clip-path="url(#ID000002)"
         id="g131">
        <polyline
           points="256.206,304.904 256.206,131.644 "
           id="polyline133"
           style="fill:none;stroke:#dd0f23;stroke-width:2pt;stroke-dasharray:none" />
        <g
           id="g135" />
      </g>
      <g
         clip-path="url(#ID000002)"
         id="g137">
        <polyline
           points="263.958,309.361 263.958,136.101 "
           id="polyline139"
           style="fill:none;stroke:#dd0f23;stroke-width:2pt;stroke-dasharray:none" />
        <g
           id="g141" />
      </g>
      <g
         clip-path="url(#ID000002)"
         id="g143">
        <polyline
           points="273.367,312.530 273.367,139.270 "
           id="polyline145"
           style="fill:none;stroke:#dd0f23;stroke-width:2pt;stroke-dasharray:none" />
        <g
           id="g147" />
      </g>
      <g
         clip-path="url(#ID000002)"
         id="g149">
        <polyline
           points="283.829,314.209 283.829,140.949 "
           id="polyline151"
           style="fill:none;stroke:#dd0f23;stroke-width:2pt;stroke-dasharray:none" />
        <g
           id="g153" />
      </g>
      <g
         clip-path="url(#ID000002)"
         id="g155">
        <polyline
           points="294.672,314.290 294.672,141.030 "
           id="polyline157"
           style="fill:none;stroke:#dd0f23;stroke-width:2pt;stroke-dasharray:none" />
        <g
           id="g159" />
      </g>
      <g
         clip-path="url(#ID000002)"
         id="g161">
        <polyline
           points="305.203,312.768 305.203,139.508 "
           id="polyline163"
           style="fill:none;stroke:#dd0f23;stroke-width:2pt;stroke-dasharray:none" />
        <g
           id="g165" />
      </g>
      <g
         clip-path="url(#ID000002)"
         id="g167">
        <polyline
           points="314.745,309.740 314.745,136.479 "
           id="polyline169"
           style="fill:none;stroke:#dd0f23;stroke-width:2pt;stroke-dasharray:none" />
        <g
           id="g171" />
      </g>
      <g
         clip-path="url(#ID000002)"
         id="g173">
        <polyline
           points="322.688,305.400 322.688,132.140 "
           id="polyline175"
           style="fill:none;stroke:#dd0f23;stroke-width:2pt;stroke-dasharray:none" />
        <g
           id="g177" />
      </g>
      <g
         clip-path="url(#ID000002)"
         id="g179">
        <polyline
           points="328.522,300.026 328.522,126.766 "
           id="polyline181"
           style="fill:none;stroke:#dd0f23;stroke-width:2pt;stroke-dasharray:none" />
        <g
           id="g183" />
      </g>
    </g>
  </g>
</svg>
