<?xml version="1.0" encoding="UTF-8" standalone="no"?>
<!-- Created with Inkscape (http://www.inkscape.org/) -->
<svg
   xmlns:svg="http://www.w3.org/2000/svg"
   xmlns="http://www.w3.org/2000/svg"
   version="1.0"
   width="600"
   height="600"
   id="svg2383">
  <g
     transform="matrix(1.8844089,0,0,1.8858838,-91.741894,-25.326414)"
     id="g2968">
    <path
       d="M 70.724409,310.42913 L 59.314961,321.09449"
       id="path2385"
       style="fill:none;stroke:#3f3d99;stroke-width:1.70078743px;stroke-linejoin:miter;stroke-miterlimit:1;stroke-dasharray:none;stroke-opacity:1" />
    <path
       d="M 62.645669,322.90157 L 61.511811,322.44094 L 60.874016,322.12205 L 60.23622,321.80315 L 59.704724,321.44882 L 59.314961,321.09449 L 59.031496,320.70472 L 58.712598,320.1378 L 58.393701,319.5 L 58.110236,318.79134 L 57.649606,317.58661 L 57.472441,317.05512 L 49.074803,330.66142 L 63.106299,323.07874 L 62.645669,322.90157 z"
       id="path2387"
       style="fill:#3f3d99;fill-opacity:1;fill-rule:evenodd;stroke:none" />
    <path
       d="M 71.007874,283.6063 L 59.279528,294.27165"
       id="path2389"
       style="fill:none;stroke:#3f3d99;stroke-width:1.70078743px;stroke-linejoin:miter;stroke-miterlimit:1;stroke-dasharray:none;stroke-opacity:1" />
    <path
       d="M 62.645669,296.14961 L 61.511811,295.65354 L 60.874016,295.33465 L 60.23622,294.98031 L 59.704724,294.62598 L 59.279528,294.27165 L 58.996063,293.88189 L 58.712598,293.27953 L 58.393701,292.6063 L 58.110236,291.89764 L 57.649606,290.65748 L 57.472441,290.12598 L 48.791339,303.80315 L 63.141732,296.32677 L 62.645669,296.14961 z"
       id="path2391"
       style="fill:#3f3d99;fill-opacity:1;fill-rule:evenodd;stroke:none" />
    <path
       d="M 70.440945,256.74803 L 59.314961,267.41339"
       id="path2393"
       style="fill:none;stroke:#3f3d99;stroke-width:1.70078743px;stroke-linejoin:miter;stroke-miterlimit:1;stroke-dasharray:none;stroke-opacity:1" />
    <path
       d="M 62.645669,269.18504 L 61.511811,268.72441 L 60.874016,268.40551 L 60.271654,268.08661 L 59.704724,267.76772 L 59.314961,267.41339 L 59.031496,267.05906 L 58.712598,266.49213 L 58.429134,265.85433 L 58.110236,265.14567 L 57.649606,263.94094 L 57.437008,263.44488 L 49.322835,276.98031 L 63.106299,269.32677 L 62.645669,269.18504 z"
       id="path2395"
       style="fill:#3f3d99;fill-opacity:1;fill-rule:evenodd;stroke:none" />
    <path
       d="M 69.129921,229.9252 L 59.385827,240.59055"
       id="path2397"
       style="fill:none;stroke:#3f3d99;stroke-width:1.70078743px;stroke-linejoin:miter;stroke-miterlimit:1;stroke-dasharray:none;stroke-opacity:1" />
    <path
       d="M 62.610236,242.00787 L 61.511811,241.65354 L 60.909449,241.40551 L 60.307087,241.15748 L 59.775591,240.87402 L 59.385827,240.59055 L 59.102362,240.23622 L 58.783465,239.74016 L 58.429134,239.17323 L 58.110236,238.53543 L 57.614173,237.43701 L 57.401575,236.97638 L 50.669291,250.12205 L 63.035433,242.14961 L 62.610236,242.00787 z"
       id="path2399"
       style="fill:#3f3d99;fill-opacity:1;fill-rule:evenodd;stroke:none" />
    <path
       d="M 67.145669,203.06693 L 59.492126,213.73228"
       id="path2401"
       style="fill:none;stroke:#3f3d99;stroke-width:1.70078743px;stroke-linejoin:miter;stroke-miterlimit:1;stroke-dasharray:none;stroke-opacity:1" />
    <path
       d="M 62.53937,214.68898 L 61.547244,214.47638 L 60.944882,214.33465 L 60.377953,214.15748 L 59.88189,213.94488 L 59.492126,213.73228 L 59.208661,213.48425 L 58.854331,213.05906 L 58.5,212.56299 L 58.145669,212.0315 L 57.543307,211.11024 L 57.330709,210.72047 L 52.653543,223.29921 L 62.964567,214.75984 L 62.53937,214.68898 z"
       id="path2403"
       style="fill:#3f3d99;fill-opacity:1;fill-rule:evenodd;stroke:none" />
    <path
       d="M 64.594488,176.24409 L 59.633858,186.90945"
       id="path2405"
       style="fill:none;stroke:#3f3d99;stroke-width:1.70078743px;stroke-linejoin:miter;stroke-miterlimit:1;stroke-dasharray:none;stroke-opacity:1" />
    <path
       d="M 62.468504,187.22835 L 61.547244,187.22835 L 61.015748,187.19291 L 60.484252,187.12205 L 60.023622,187.01575 L 59.633858,186.90945 L 59.314961,186.69685 L 58.96063,186.41339 L 58.570866,186.02362 L 58.145669,185.63386 L 57.472441,184.88976 L 57.224409,184.6063 L 55.204724,196.44094 L 62.858268,187.22835 L 62.468504,187.22835 z"
       id="path2407"
       style="fill:#3f3d99;fill-opacity:1;fill-rule:evenodd;stroke:none" />
    <path
       d="M 61.688976,149.42126 L 59.811024,160.05118"
       id="path2409"
       style="fill:none;stroke:#3f3d99;stroke-width:1.70078743px;stroke-linejoin:miter;stroke-miterlimit:1;stroke-dasharray:none;stroke-opacity:1" />
    <path
       d="M 62.397638,159.69685 L 61.582677,159.87402 L 61.086614,159.98031 L 60.590551,160.05118 L 60.165354,160.08661 L 59.811024,160.05118 L 59.492126,159.98031 L 59.066929,159.76772 L 58.641732,159.55512 L 58.181102,159.27165 L 57.401575,158.77559 L 57.082677,158.56299 L 58.074803,169.61811 L 62.751969,159.59055 L 62.397638,159.69685 z"
       id="path2411"
       style="fill:#3f3d99;fill-opacity:1;fill-rule:evenodd;stroke:none" />
    <path
       d="M 58.677165,122.56299 L 59.952756,133.22835"
       id="path2413"
       style="fill:none;stroke:#3f3d99;stroke-width:1.70078743px;stroke-linejoin:miter;stroke-miterlimit:1;stroke-dasharray:none;stroke-opacity:1" />
    <path
       d="M 62.326772,132.09449 L 61.61811,132.55512 L 61.15748,132.76772 L 60.732283,132.98031 L 60.307087,133.15748 L 59.952756,133.22835 L 59.633858,133.22835 L 59.208661,133.15748 L 58.712598,133.05118 L 58.216535,132.94488 L 57.330709,132.69685 L 56.976378,132.59055 L 61.122047,142.75984 L 62.610236,131.91732 L 62.326772,132.09449 z"
       id="path2415"
       style="fill:#3f3d99;fill-opacity:1;fill-rule:evenodd;stroke:none" />
    <path
       d="M 55.73622,95.740157 L 60.129921,106.37008"
       id="path2417"
       style="fill:none;stroke:#3f3d99;stroke-width:1.70078743px;stroke-linejoin:miter;stroke-miterlimit:1;stroke-dasharray:none;stroke-opacity:1" />
    <path
       d="M 62.255906,104.56299 L 61.61811,105.20079 L 61.228346,105.55512 L 60.838583,105.90945 L 60.448819,106.19291 L 60.129921,106.37008 L 59.775591,106.47638 L 59.314961,106.54724 L 58.783465,106.58268 L 58.216535,106.58268 L 57.259843,106.61811 L 56.834646,106.58268 L 64.027559,115.93701 L 62.503937,104.27953 L 62.255906,104.56299 z"
       id="path2419"
       style="fill:#3f3d99;fill-opacity:1;fill-rule:evenodd;stroke:none" />
    <path
       d="M 53.114173,68.88189 L 60.271654,79.547244"
       id="path2421"
       style="fill:none;stroke:#3f3d99;stroke-width:1.70078743px;stroke-linejoin:miter;stroke-miterlimit:1;stroke-dasharray:none;stroke-opacity:1" />
    <path
       d="M 62.185039,77.066929 L 61.653543,77.917323 L 61.299213,78.413386 L 60.944882,78.874016 L 60.590551,79.26378 L 60.271654,79.547244 L 59.917323,79.724409 L 59.42126,79.901575 L 58.854331,80.043307 L 58.251969,80.220472 L 57.188976,80.433071 L 56.728346,80.503937 L 66.649606,89.114173 L 62.397638,76.712598 L 62.185039,77.066929 z"
       id="path2423"
       style="fill:#3f3d99;fill-opacity:1;fill-rule:evenodd;stroke:none" />
    <path
       d="M 50.988189,42.059055 L 60.377953,52.688976"
       id="path2425"
       style="fill:none;stroke:#3f3d99;stroke-width:1.70078743px;stroke-linejoin:miter;stroke-miterlimit:1;stroke-dasharray:none;stroke-opacity:1" />
    <path
       d="M 62.114173,49.712598 L 61.653543,50.740157 L 61.370079,51.307087 L 61.051181,51.874016 L 60.69685,52.334646 L 60.377953,52.688976 L 60.023622,52.937008 L 59.492126,53.220472 L 58.889764,53.468504 L 58.251969,53.716535 L 57.11811,54.106299 L 56.65748,54.248031 L 68.775591,62.255906 L 62.291339,49.287402 L 62.114173,49.712598 z"
       id="path2427"
       style="fill:#3f3d99;fill-opacity:1;fill-rule:evenodd;stroke:none" />
    <path
       d="M 49.535433,15.200787 L 60.448819,25.866142"
       id="path2429"
       style="fill:none;stroke:#3f3d99;stroke-width:1.70078743px;stroke-linejoin:miter;stroke-miterlimit:1;stroke-dasharray:none;stroke-opacity:1" />
    <path
       d="M 62.07874,22.535433 L 61.653543,23.633858 L 61.405512,24.271654 L 61.086614,24.909449 L 60.767717,25.440945 L 60.448819,25.866142 L 60.094488,26.149606 L 59.562992,26.468504 L 58.925197,26.822835 L 58.251969,27.141732 L 57.082677,27.637795 L 56.586614,27.850394 L 70.26378,35.433071 L 62.220472,22.03937 L 62.07874,22.535433 z"
       id="path2431"
       style="fill:#3f3d99;fill-opacity:1;fill-rule:evenodd;stroke:none" />
    <path
       d="M 97.547244,309.57874 L 86.137795,321.12992"
       id="path2433"
       style="fill:none;stroke:#3f3d99;stroke-width:1.70078743px;stroke-linejoin:miter;stroke-miterlimit:1;stroke-dasharray:none;stroke-opacity:1" />
    <path
       d="M 89.681102,322.90157 L 88.511811,322.44094 L 87.80315,322.15748 L 87.165354,321.83858 L 86.562992,321.48425 L 86.137795,321.12992 L 85.818898,320.74016 L 85.5,320.17323 L 85.145669,319.5 L 84.791339,318.79134 L 84.259843,317.55118 L 84.047244,317.01969 L 75.897638,331.51181 L 90.177165,323.04331 L 89.681102,322.90157 z"
       id="path2435"
       style="fill:#3f3d99;fill-opacity:1;fill-rule:evenodd;stroke:none" />
    <path
       d="M 97.830709,282.72047 L 86.137795,294.30709"
       id="path2437"
       style="fill:none;stroke:#3f3d99;stroke-width:1.70078743px;stroke-linejoin:miter;stroke-miterlimit:1;stroke-dasharray:none;stroke-opacity:1" />
    <path
       d="M 89.681102,296.11417 L 88.511811,295.65354 L 87.80315,295.33465 L 87.129921,295.01575 L 86.562992,294.66142 L 86.137795,294.30709 L 85.818898,293.91732 L 85.464567,293.31496 L 85.145669,292.64173 L 84.791339,291.89764 L 84.295276,290.62205 L 84.082677,290.09055 L 75.614173,304.68898 L 90.212598,296.29134 L 89.681102,296.11417 z"
       id="path2439"
       style="fill:#3f3d99;fill-opacity:1;fill-rule:evenodd;stroke:none" />
    <path
       d="M 97.299213,255.89764 L 86.173228,267.48425"
       id="path2441"
       style="fill:none;stroke:#3f3d99;stroke-width:1.70078743px;stroke-linejoin:miter;stroke-miterlimit:1;stroke-dasharray:none;stroke-opacity:1" />
    <path
       d="M 89.681102,269.14961 L 88.511811,268.72441 L 87.838583,268.44094 L 87.165354,268.12205 L 86.598425,267.80315 L 86.173228,267.48425 L 85.854331,267.09449 L 85.5,266.52756 L 85.145669,265.85433 L 84.791339,265.1811 L 84.259843,263.94094 L 84.047244,263.40945 L 76.181102,277.83071 L 90.177165,269.29134 L 89.681102,269.14961 z"
       id="path2443"
       style="fill:#3f3d99;fill-opacity:1;fill-rule:evenodd;stroke:none" />
    <path
       d="M 95.988189,229.03937 L 86.244094,240.62598"
       id="path2445"
       style="fill:none;stroke:#3f3d99;stroke-width:1.70078743px;stroke-linejoin:miter;stroke-miterlimit:1;stroke-dasharray:none;stroke-opacity:1" />
    <path
       d="M 89.645669,241.97244 L 88.511811,241.65354 L 87.874016,241.44094 L 87.200787,241.19291 L 86.669291,240.90945 L 86.244094,240.62598 L 85.925197,240.30709 L 85.535433,239.77559 L 85.181102,239.17323 L 84.826772,238.53543 L 84.224409,237.43701 L 83.976378,236.94094 L 77.492126,251.00787 L 90.141732,242.11417 L 89.645669,241.97244 z"
       id="path2447"
       style="fill:#3f3d99;fill-opacity:1;fill-rule:evenodd;stroke:none" />
    <path
       d="M 93.968504,202.21654 L 86.350394,213.80315"
       id="path2449"
       style="fill:none;stroke:#3f3d99;stroke-width:1.70078743px;stroke-linejoin:miter;stroke-miterlimit:1;stroke-dasharray:none;stroke-opacity:1" />
    <path
       d="M 89.574803,214.65354 L 88.511811,214.47638 L 87.909449,214.37008 L 87.307087,214.19291 L 86.740157,214.01575 L 86.350394,213.80315 L 85.996063,213.51969 L 85.641732,213.09449 L 85.216535,212.59843 L 84.826772,212.0315 L 84.188976,211.0748 L 83.905512,210.68504 L 79.511811,224.18504 L 90.035433,214.72441 L 89.574803,214.65354 z"
       id="path2451"
       style="fill:#3f3d99;fill-opacity:1;fill-rule:evenodd;stroke:none" />
    <path
       d="M 91.417323,175.35827 L 86.492126,186.94488"
       id="path2453"
       style="fill:none;stroke:#3f3d99;stroke-width:1.70078743px;stroke-linejoin:miter;stroke-miterlimit:1;stroke-dasharray:none;stroke-opacity:1" />
    <path
       d="M 89.53937,187.19291 L 88.547244,187.22835 L 87.980315,187.19291 L 87.413386,187.15748 L 86.88189,187.08661 L 86.492126,186.94488 L 86.137795,186.76772 L 85.748031,186.44882 L 85.287402,186.05906 L 84.862205,185.63386 L 84.11811,184.88976 L 83.799213,184.57087 L 82.027559,197.32677 L 89.929134,187.19291 L 89.53937,187.19291 z"
       id="path2455"
       style="fill:#3f3d99;fill-opacity:1;fill-rule:evenodd;stroke:none" />
    <path
       d="M 88.547244,148.53543 L 86.633858,160.12205"
       id="path2457"
       style="fill:none;stroke:#3f3d99;stroke-width:1.70078743px;stroke-linejoin:miter;stroke-miterlimit:1;stroke-dasharray:none;stroke-opacity:1" />
    <path
       d="M 89.433071,159.66142 L 88.582677,159.87402 L 88.051181,160.01575 L 87.519685,160.08661 L 87.023622,160.12205 L 86.633858,160.12205 L 86.279528,160.01575 L 85.854331,159.80315 L 85.358268,159.55512 L 84.862205,159.27165 L 84.047244,158.77559 L 83.692913,158.52756 L 84.933071,170.50394 L 89.822835,159.55512 L 89.433071,159.66142 z"
       id="path2459"
       style="fill:#3f3d99;fill-opacity:1;fill-rule:evenodd;stroke:none" />
    <path
       d="M 85.535433,121.67717 L 86.811024,133.26378"
       id="path2461"
       style="fill:none;stroke:#3f3d99;stroke-width:1.70078743px;stroke-linejoin:miter;stroke-miterlimit:1;stroke-dasharray:none;stroke-opacity:1" />
    <path
       d="M 89.362205,132.09449 L 88.582677,132.55512 L 88.122047,132.80315 L 87.625984,133.01575 L 87.200787,133.19291 L 86.811024,133.26378 L 86.456693,133.26378 L 85.96063,133.19291 L 85.429134,133.08661 L 84.897638,132.94488 L 83.940945,132.69685 L 83.551181,132.55512 L 87.944882,143.64567 L 89.681102,131.88189 L 89.362205,132.09449 z"
       id="path2463"
       style="fill:#3f3d99;fill-opacity:1;fill-rule:evenodd;stroke:none" />
    <path
       d="M 82.594488,94.854331 L 86.952756,106.44094"
       id="path2465"
       style="fill:none;stroke:#3f3d99;stroke-width:1.70078743px;stroke-linejoin:miter;stroke-miterlimit:1;stroke-dasharray:none;stroke-opacity:1" />
    <path
       d="M 89.291339,104.52756 L 88.61811,105.20079 L 88.192913,105.59055 L 87.767717,105.94488 L 87.34252,106.22835 L 86.952756,106.44094 L 86.598425,106.51181 L 86.102362,106.58268 L 85.5,106.61811 L 84.897638,106.61811 L 83.870079,106.58268 L 83.444882,106.54724 L 90.885827,116.82283 L 89.574803,104.24409 L 89.291339,104.52756 z"
       id="path2467"
       style="fill:#3f3d99;fill-opacity:1;fill-rule:evenodd;stroke:none" />
    <path
       d="M 79.972441,67.996063 L 87.094488,79.582677"
       id="path2469"
       style="fill:none;stroke:#3f3d99;stroke-width:1.70078743px;stroke-linejoin:miter;stroke-miterlimit:1;stroke-dasharray:none;stroke-opacity:1" />
    <path
       d="M 89.220472,77.066929 L 88.61811,77.917323 L 88.26378,78.413386 L 87.874016,78.909449 L 87.484252,79.299213 L 87.094488,79.582677 L 86.740157,79.759843 L 86.208661,79.937008 L 85.570866,80.07874 L 84.933071,80.220472 L 83.799213,80.397638 L 83.338583,80.468504 L 93.507874,89.964567 L 89.468504,76.677165 L 89.220472,77.066929 z"
       id="path2471"
       style="fill:#3f3d99;fill-opacity:1;fill-rule:evenodd;stroke:none" />
    <path
       d="M 77.846457,41.173228 L 87.200787,52.759843"
       id="path2473"
       style="fill:none;stroke:#3f3d99;stroke-width:1.70078743px;stroke-linejoin:miter;stroke-miterlimit:1;stroke-dasharray:none;stroke-opacity:1" />
    <path
       d="M 89.149606,49.712598 L 88.653543,50.740157 L 88.299213,51.34252 L 87.944882,51.909449 L 87.590551,52.405512 L 87.200787,52.759843 L 86.846457,53.007874 L 86.279528,53.255906 L 85.641732,53.503937 L 84.933071,53.716535 L 83.76378,54.070866 L 83.232283,54.212598 L 95.633858,63.141732 L 89.362205,49.251969 L 89.149606,49.712598 z"
       id="path2475"
       style="fill:#3f3d99;fill-opacity:1;fill-rule:evenodd;stroke:none" />
    <path
       d="M 76.358268,14.350394 L 87.307087,25.901575"
       id="path2477"
       style="fill:none;stroke:#3f3d99;stroke-width:1.70078743px;stroke-linejoin:miter;stroke-miterlimit:1;stroke-dasharray:none;stroke-opacity:1" />
    <path
       d="M 89.114173,22.5 L 88.653543,23.633858 L 88.334646,24.307087 L 88.015748,24.944882 L 87.661417,25.511811 L 87.307087,25.901575 L 86.917323,26.220472 L 86.350394,26.503937 L 85.677165,26.822835 L 84.968504,27.141732 L 83.728346,27.602362 L 83.161417,27.814961 L 97.086614,36.283465 L 89.326772,22.003937 L 89.114173,22.5 z"
       id="path2479"
       style="fill:#3f3d99;fill-opacity:1;fill-rule:evenodd;stroke:none" />
    <path
       d="M 124.40551,309.50787 L 112.99606,321.16535"
       id="path2481"
       style="fill:none;stroke:#3f3d99;stroke-width:1.70078743px;stroke-linejoin:miter;stroke-miterlimit:1;stroke-dasharray:none;stroke-opacity:1" />
    <path
       d="M 116.53937,322.90157 L 115.37008,322.44094 L 114.66142,322.15748 L 113.98819,321.83858 L 113.42126,321.48425 L 112.99606,321.16535 L 112.67717,320.77559 L 112.32283,320.20866 L 111.9685,319.5 L 111.64961,318.79134 L 111.08268,317.55118 L 110.87008,317.01969 L 102.75591,331.58268 L 117.03543,323.04331 L 116.53937,322.90157 z"
       id="path2483"
       style="fill:#3f3d99;fill-opacity:1;fill-rule:evenodd;stroke:none" />
    <path
       d="M 124.68898,282.68504 L 112.96063,294.30709"
       id="path2485"
       style="fill:none;stroke:#3f3d99;stroke-width:1.70078743px;stroke-linejoin:miter;stroke-miterlimit:1;stroke-dasharray:none;stroke-opacity:1" />
    <path
       d="M 116.53937,296.11417 L 115.33465,295.65354 L 114.66142,295.33465 L 113.98819,295.01575 L 113.38583,294.66142 L 112.96063,294.30709 L 112.64173,293.91732 L 112.32283,293.31496 L 111.9685,292.64173 L 111.64961,291.89764 L 111.11811,290.62205 L 110.90551,290.09055 L 102.47244,304.75984 L 117.07087,296.29134 L 116.53937,296.11417 z"
       id="path2487"
       style="fill:#3f3d99;fill-opacity:1;fill-rule:evenodd;stroke:none" />
    <path
       d="M 124.12205,255.82677 L 112.99606,267.48425"
       id="path2489"
       style="fill:none;stroke:#3f3d99;stroke-width:1.70078743px;stroke-linejoin:miter;stroke-miterlimit:1;stroke-dasharray:none;stroke-opacity:1" />
    <path
       d="M 116.53937,269.14961 L 115.37008,268.72441 L 114.66142,268.44094 L 114.02362,268.12205 L 113.42126,267.80315 L 112.99606,267.48425 L 112.67717,267.09449 L 112.32283,266.52756 L 111.9685,265.85433 L 111.64961,265.1811 L 111.08268,263.94094 L 110.87008,263.40945 L 103.00394,277.90157 L 117.03543,269.29134 L 116.53937,269.14961 z"
       id="path2491"
       style="fill:#3f3d99;fill-opacity:1;fill-rule:evenodd;stroke:none" />
    <path
       d="M 122.81102,229.00394 L 113.06693,240.62598"
       id="path2493"
       style="fill:none;stroke:#3f3d99;stroke-width:1.70078743px;stroke-linejoin:miter;stroke-miterlimit:1;stroke-dasharray:none;stroke-opacity:1" />
    <path
       d="M 116.50394,241.97244 L 115.37008,241.65354 L 114.69685,241.44094 L 114.05906,241.19291 L 113.49213,240.90945 L 113.06693,240.62598 L 112.74803,240.30709 L 112.3937,239.77559 L 112.00394,239.17323 L 111.64961,238.53543 L 111.04724,237.43701 L 110.79921,236.94094 L 104.31496,251.07874 L 117,242.11417 L 116.50394,241.97244 z"
       id="path2495"
       style="fill:#3f3d99;fill-opacity:1;fill-rule:evenodd;stroke:none" />
    <path
       d="M 120.82677,202.14567 L 113.17323,213.80315"
       id="path2497"
       style="fill:none;stroke:#3f3d99;stroke-width:1.70078743px;stroke-linejoin:miter;stroke-miterlimit:1;stroke-dasharray:none;stroke-opacity:1" />
    <path
       d="M 116.43307,214.65354 L 115.37008,214.47638 L 114.76772,214.37008 L 114.12992,214.19291 L 113.59843,214.01575 L 113.17323,213.80315 L 112.85433,213.51969 L 112.46457,213.09449 L 112.0748,212.59843 L 111.64961,212.0315 L 111.01181,211.0748 L 110.72835,210.64961 L 106.33465,224.22047 L 116.8937,214.72441 L 116.43307,214.65354 z"
       id="path2499"
       style="fill:#3f3d99;fill-opacity:1;fill-rule:evenodd;stroke:none" />
    <path
       d="M 118.27559,175.32283 L 113.31496,186.94488"
       id="path2501"
       style="fill:none;stroke:#3f3d99;stroke-width:1.70078743px;stroke-linejoin:miter;stroke-miterlimit:1;stroke-dasharray:none;stroke-opacity:1" />
    <path
       d="M 116.3622,187.19291 L 115.40551,187.22835 L 114.80315,187.19291 L 114.23622,187.15748 L 113.74016,187.08661 L 113.31496,186.94488 L 112.99606,186.76772 L 112.57087,186.44882 L 112.11024,186.05906 L 111.68504,185.63386 L 110.94094,184.88976 L 110.62205,184.53543 L 108.88583,197.39764 L 116.7874,187.19291 L 116.3622,187.19291 z"
       id="path2503"
       style="fill:#3f3d99;fill-opacity:1;fill-rule:evenodd;stroke:none" />
    <path
       d="M 115.37008,148.46457 L 113.49213,160.12205"
       id="path2505"
       style="fill:none;stroke:#3f3d99;stroke-width:1.70078743px;stroke-linejoin:miter;stroke-miterlimit:1;stroke-dasharray:none;stroke-opacity:1" />
    <path
       d="M 116.29134,159.66142 L 115.40551,159.90945 L 114.87402,160.01575 L 114.34252,160.08661 L 113.88189,160.12205 L 113.49213,160.12205 L 113.1378,160.01575 L 112.67717,159.80315 L 112.1811,159.55512 L 111.68504,159.27165 L 110.87008,158.77559 L 110.51575,158.52756 L 111.75591,170.53937 L 116.6811,159.55512 L 116.29134,159.66142 z"
       id="path2507"
       style="fill:#3f3d99;fill-opacity:1;fill-rule:evenodd;stroke:none" />
    <path
       d="M 112.35827,121.64173 L 113.63386,133.26378"
       id="path2509"
       style="fill:none;stroke:#3f3d99;stroke-width:1.70078743px;stroke-linejoin:miter;stroke-miterlimit:1;stroke-dasharray:none;stroke-opacity:1" />
    <path
       d="M 116.22047,132.09449 L 115.44094,132.55512 L 114.98031,132.80315 L 114.48425,133.01575 L 114.02362,133.19291 L 113.63386,133.26378 L 113.27953,133.26378 L 112.8189,133.19291 L 112.2874,133.08661 L 111.72047,132.94488 L 110.76378,132.69685 L 110.37402,132.55512 L 114.76772,143.71654 L 116.53937,131.88189 L 116.22047,132.09449 z"
       id="path2511"
       style="fill:#3f3d99;fill-opacity:1;fill-rule:evenodd;stroke:none" />
    <path
       d="M 109.41732,94.783465 L 113.81102,106.44094"
       id="path2513"
       style="fill:none;stroke:#3f3d99;stroke-width:1.70078743px;stroke-linejoin:miter;stroke-miterlimit:1;stroke-dasharray:none;stroke-opacity:1" />
    <path
       d="M 116.14961,104.52756 L 115.47638,105.20079 L 115.05118,105.59055 L 114.59055,105.94488 L 114.16535,106.22835 L 113.81102,106.44094 L 113.42126,106.51181 L 112.9252,106.58268 L 112.35827,106.61811 L 111.75591,106.61811 L 110.69291,106.58268 L 110.26772,106.54724 L 117.70866,116.85827 L 116.43307,104.24409 L 116.14961,104.52756 z"
       id="path2515"
       style="fill:#3f3d99;fill-opacity:1;fill-rule:evenodd;stroke:none" />
    <path
       d="M 106.79528,67.96063 L 113.95276,79.582677"
       id="path2517"
       style="fill:none;stroke:#3f3d99;stroke-width:1.70078743px;stroke-linejoin:miter;stroke-miterlimit:1;stroke-dasharray:none;stroke-opacity:1" />
    <path
       d="M 116.07874,77.066929 L 115.47638,77.917323 L 115.08661,78.448819 L 114.69685,78.909449 L 114.30709,79.299213 L 113.95276,79.582677 L 113.56299,79.759843 L 113.0315,79.937008 L 112.3937,80.07874 L 111.75591,80.220472 L 110.62205,80.397638 L 110.16142,80.468504 L 120.33071,90.035433 L 116.32677,76.677165 L 116.07874,77.066929 z"
       id="path2519"
       style="fill:#3f3d99;fill-opacity:1;fill-rule:evenodd;stroke:none" />
    <path
       d="M 104.66929,41.102362 L 114.05906,52.759843"
       id="path2521"
       style="fill:none;stroke:#3f3d99;stroke-width:1.70078743px;stroke-linejoin:miter;stroke-miterlimit:1;stroke-dasharray:none;stroke-opacity:1" />
    <path
       d="M 116.00787,49.712598 L 115.47638,50.740157 L 115.15748,51.34252 L 114.80315,51.909449 L 114.41339,52.405512 L 114.05906,52.759843 L 113.66929,53.007874 L 113.10236,53.255906 L 112.46457,53.503937 L 111.79134,53.716535 L 110.58661,54.070866 L 110.05512,54.212598 L 122.45669,63.177165 L 116.22047,49.251969 L 116.00787,49.712598 z"
       id="path2523"
       style="fill:#3f3d99;fill-opacity:1;fill-rule:evenodd;stroke:none" />
    <path
       d="M 103.21654,14.279528 L 114.12992,25.901575"
       id="path2525"
       style="fill:none;stroke:#3f3d99;stroke-width:1.70078743px;stroke-linejoin:miter;stroke-miterlimit:1;stroke-dasharray:none;stroke-opacity:1" />
    <path
       d="M 115.97244,22.5 L 115.51181,23.633858 L 115.19291,24.307087 L 114.83858,24.944882 L 114.48425,25.511811 L 114.12992,25.901575 L 113.74016,26.220472 L 113.17323,26.503937 L 112.5,26.822835 L 111.79134,27.141732 L 110.55118,27.602362 L 109.98425,27.814961 L 123.94488,36.354331 L 116.18504,22.003937 L 115.97244,22.5 z"
       id="path2527"
       style="fill:#3f3d99;fill-opacity:1;fill-rule:evenodd;stroke:none" />
    <path
       d="M 151.22835,310.25197 L 139.8189,321.09449"
       id="path2529"
       style="fill:none;stroke:#3f3d99;stroke-width:1.70078743px;stroke-linejoin:miter;stroke-miterlimit:1;stroke-dasharray:none;stroke-opacity:1" />
    <path
       d="M 143.18504,322.90157 L 142.05118,322.44094 L 141.41339,322.12205 L 140.77559,321.80315 L 140.24409,321.44882 L 139.8189,321.09449 L 139.53543,320.70472 L 139.21654,320.17323 L 138.89764,319.5 L 138.61417,318.79134 L 138.11811,317.55118 L 137.94094,317.01969 L 129.57874,330.83858 L 143.6811,323.07874 L 143.18504,322.90157 z"
       id="path2531"
       style="fill:#3f3d99;fill-opacity:1;fill-rule:evenodd;stroke:none" />
    <path
       d="M 151.51181,283.42913 L 139.8189,294.27165"
       id="path2533"
       style="fill:none;stroke:#3f3d99;stroke-width:1.70078743px;stroke-linejoin:miter;stroke-miterlimit:1;stroke-dasharray:none;stroke-opacity:1" />
    <path
       d="M 143.22047,296.14961 L 142.05118,295.65354 L 141.41339,295.33465 L 140.77559,294.98031 L 140.20866,294.62598 L 139.8189,294.27165 L 139.53543,293.88189 L 139.21654,293.31496 L 138.89764,292.6063 L 138.61417,291.89764 L 138.11811,290.65748 L 137.94094,290.12598 L 129.29528,303.98031 L 143.6811,296.32677 L 143.22047,296.14961 z"
       id="path2535"
       style="fill:#3f3d99;fill-opacity:1;fill-rule:evenodd;stroke:none" />
    <path
       d="M 150.98031,256.57087 L 139.85433,267.41339"
       id="path2537"
       style="fill:none;stroke:#3f3d99;stroke-width:1.70078743px;stroke-linejoin:miter;stroke-miterlimit:1;stroke-dasharray:none;stroke-opacity:1" />
    <path
       d="M 143.18504,269.14961 L 142.05118,268.72441 L 141.41339,268.44094 L 140.77559,268.08661 L 140.24409,267.76772 L 139.85433,267.41339 L 139.53543,267.05906 L 139.21654,266.49213 L 138.89764,265.85433 L 138.61417,265.14567 L 138.11811,263.94094 L 137.90551,263.44488 L 129.8622,277.15748 L 143.6811,269.32677 L 143.18504,269.14961 z"
       id="path2539"
       style="fill:#3f3d99;fill-opacity:1;fill-rule:evenodd;stroke:none" />
    <path
       d="M 149.66929,229.74803 L 139.9252,240.59055"
       id="path2541"
       style="fill:none;stroke:#3f3d99;stroke-width:1.70078743px;stroke-linejoin:miter;stroke-miterlimit:1;stroke-dasharray:none;stroke-opacity:1" />
    <path
       d="M 143.14961,242.00787 L 142.08661,241.65354 L 141.44882,241.40551 L 140.84646,241.15748 L 140.31496,240.87402 L 139.9252,240.59055 L 139.6063,240.27165 L 139.2874,239.77559 L 138.93307,239.17323 L 138.61417,238.53543 L 138.08268,237.43701 L 137.87008,236.97638 L 131.17323,250.29921 L 143.61024,242.14961 L 143.14961,242.00787 z"
       id="path2543"
       style="fill:#3f3d99;fill-opacity:1;fill-rule:evenodd;stroke:none" />
    <path
       d="M 147.64961,202.88976 L 140.0315,213.73228"
       id="path2545"
       style="fill:none;stroke:#3f3d99;stroke-width:1.70078743px;stroke-linejoin:miter;stroke-miterlimit:1;stroke-dasharray:none;stroke-opacity:1" />
    <path
       d="M 143.11417,214.68898 L 142.08661,214.47638 L 141.48425,214.33465 L 140.91732,214.15748 L 140.42126,213.98031 L 140.0315,213.73228 L 139.7126,213.48425 L 139.35827,213.05906 L 139.00394,212.56299 L 138.61417,212.0315 L 138.04724,211.11024 L 137.79921,210.68504 L 133.19291,223.47638 L 143.53937,214.75984 L 143.11417,214.68898 z"
       id="path2547"
       style="fill:#3f3d99;fill-opacity:1;fill-rule:evenodd;stroke:none" />
    <path
       d="M 145.09843,176.06693 L 140.17323,186.90945"
       id="path2549"
       style="fill:none;stroke:#3f3d99;stroke-width:1.70078743px;stroke-linejoin:miter;stroke-miterlimit:1;stroke-dasharray:none;stroke-opacity:1" />
    <path
       d="M 143.04331,187.22835 L 142.12205,187.22835 L 141.55512,187.19291 L 141.02362,187.12205 L 140.52756,187.05118 L 140.17323,186.90945 L 139.85433,186.73228 L 139.46457,186.41339 L 139.03937,186.02362 L 138.64961,185.63386 L 137.97638,184.88976 L 137.69291,184.57087 L 135.70866,196.61811 L 143.43307,187.19291 L 143.04331,187.22835 z"
       id="path2551"
       style="fill:#3f3d99;fill-opacity:1;fill-rule:evenodd;stroke:none" />
    <path
       d="M 142.22835,149.20866 L 140.31496,160.08661"
       id="path2553"
       style="fill:none;stroke:#3f3d99;stroke-width:1.70078743px;stroke-linejoin:miter;stroke-miterlimit:1;stroke-dasharray:none;stroke-opacity:1" />
    <path
       d="M 142.97244,159.66142 L 142.12205,159.87402 L 141.62598,159.98031 L 141.12992,160.05118 L 140.70472,160.08661 L 140.31496,160.08661 L 139.99606,159.98031 L 139.57087,159.80315 L 139.11024,159.55512 L 138.64961,159.27165 L 137.87008,158.77559 L 137.55118,158.56299 L 138.61417,169.79528 L 143.29134,159.59055 L 142.97244,159.66142 z"
       id="path2555"
       style="fill:#3f3d99;fill-opacity:1;fill-rule:evenodd;stroke:none" />
    <path
       d="M 139.21654,122.38583 L 140.49213,133.22835"
       id="path2557"
       style="fill:none;stroke:#3f3d99;stroke-width:1.70078743px;stroke-linejoin:miter;stroke-miterlimit:1;stroke-dasharray:none;stroke-opacity:1" />
    <path
       d="M 142.86614,132.09449 L 142.15748,132.55512 L 141.69685,132.76772 L 141.27165,132.98031 L 140.84646,133.15748 L 140.49213,133.22835 L 140.1378,133.22835 L 139.7126,133.15748 L 139.21654,133.08661 L 138.68504,132.94488 L 137.79921,132.69685 L 137.44488,132.59055 L 141.62598,142.93701 L 143.18504,131.91732 L 142.86614,132.09449 z"
       id="path2559"
       style="fill:#3f3d99;fill-opacity:1;fill-rule:evenodd;stroke:none" />
    <path
       d="M 136.27559,95.562992 L 140.63386,106.40551"
       id="path2561"
       style="fill:none;stroke:#3f3d99;stroke-width:1.70078743px;stroke-linejoin:miter;stroke-miterlimit:1;stroke-dasharray:none;stroke-opacity:1" />
    <path
       d="M 142.79528,104.56299 L 142.15748,105.20079 L 141.76772,105.59055 L 141.37795,105.90945 L 140.98819,106.19291 L 140.63386,106.40551 L 140.27953,106.47638 L 139.8189,106.54724 L 139.2874,106.58268 L 138.72047,106.61811 L 137.72835,106.58268 L 137.30315,106.58268 L 144.56693,116.11417 L 143.04331,104.27953 L 142.79528,104.56299 z"
       id="path2563"
       style="fill:#3f3d99;fill-opacity:1;fill-rule:evenodd;stroke:none" />
    <path
       d="M 133.65354,68.704724 L 140.77559,79.547244"
       id="path2565"
       style="fill:none;stroke:#3f3d99;stroke-width:1.70078743px;stroke-linejoin:miter;stroke-miterlimit:1;stroke-dasharray:none;stroke-opacity:1" />
    <path
       d="M 142.72441,77.066929 L 142.19291,77.917323 L 141.83858,78.413386 L 141.48425,78.874016 L 141.12992,79.26378 L 140.77559,79.547244 L 140.42126,79.724409 L 139.9252,79.901575 L 139.32283,80.07874 L 138.72047,80.220472 L 137.65748,80.397638 L 137.19685,80.503937 L 147.18898,89.291339 L 142.93701,76.712598 L 142.72441,77.066929 z"
       id="path2567"
       style="fill:#3f3d99;fill-opacity:1;fill-rule:evenodd;stroke:none" />
    <path
       d="M 131.52756,41.88189 L 140.88189,52.724409"
       id="path2569"
       style="fill:none;stroke:#3f3d99;stroke-width:1.70078743px;stroke-linejoin:miter;stroke-miterlimit:1;stroke-dasharray:none;stroke-opacity:1" />
    <path
       d="M 142.68898,49.712598 L 142.19291,50.740157 L 141.90945,51.307087 L 141.55512,51.874016 L 141.23622,52.370079 L 140.88189,52.724409 L 140.52756,52.972441 L 139.99606,53.220472 L 139.3937,53.468504 L 138.75591,53.716535 L 137.62205,54.106299 L 137.12598,54.248031 L 149.31496,62.433071 L 142.86614,49.287402 L 142.68898,49.712598 z"
       id="path2571"
       style="fill:#3f3d99;fill-opacity:1;fill-rule:evenodd;stroke:none" />
    <path
       d="M 130.03937,15.023622 L 140.98819,25.866142"
       id="path2573"
       style="fill:none;stroke:#3f3d99;stroke-width:1.70078743px;stroke-linejoin:miter;stroke-miterlimit:1;stroke-dasharray:none;stroke-opacity:1" />
    <path
       d="M 142.65354,22.535433 L 142.22835,23.633858 L 141.94488,24.307087 L 141.62598,24.909449 L 141.30709,25.476378 L 140.98819,25.866142 L 140.59843,26.185039 L 140.06693,26.503937 L 139.42913,26.822835 L 138.75591,27.141732 L 137.55118,27.637795 L 137.05512,27.850394 L 150.76772,35.610236 L 142.79528,22.03937 L 142.65354,22.535433 z"
       id="path2575"
       style="fill:#3f3d99;fill-opacity:1;fill-rule:evenodd;stroke:none" />
    <path
       d="M 178.08661,311.77559 L 166.67717,321.02362"
       id="path2577"
       style="fill:none;stroke:#3f3d99;stroke-width:1.70078743px;stroke-linejoin:miter;stroke-miterlimit:1;stroke-dasharray:none;stroke-opacity:1" />
    <path
       d="M 169.65354,322.93701 L 168.66142,322.44094 L 168.05906,322.08661 L 167.49213,321.73228 L 167.0315,321.37795 L 166.67717,321.02362 L 166.42913,320.63386 L 166.1811,320.10236 L 165.93307,319.46457 L 165.68504,318.79134 L 165.33071,317.62205 L 165.18898,317.09055 L 156.43701,329.31496 L 170.11417,323.14961 L 169.65354,322.93701 z"
       id="path2579"
       style="fill:#3f3d99;fill-opacity:1;fill-rule:evenodd;stroke:none" />
    <path
       d="M 178.37008,284.95276 L 166.64173,294.20079"
       id="path2581"
       style="fill:none;stroke:#3f3d99;stroke-width:1.70078743px;stroke-linejoin:miter;stroke-miterlimit:1;stroke-dasharray:none;stroke-opacity:1" />
    <path
       d="M 169.68898,296.18504 L 168.66142,295.65354 L 168.05906,295.29921 L 167.49213,294.90945 L 166.99606,294.55512 L 166.64173,294.20079 L 166.3937,293.81102 L 166.14567,293.24409 L 165.93307,292.57087 L 165.68504,291.89764 L 165.36614,290.69291 L 165.22441,290.16142 L 156.15354,302.49213 L 170.11417,296.39764 L 169.68898,296.18504 z"
       id="path2583"
       style="fill:#3f3d99;fill-opacity:1;fill-rule:evenodd;stroke:none" />
    <path
       d="M 177.80315,258.09449 L 166.67717,267.34252"
       id="path2585"
       style="fill:none;stroke:#3f3d99;stroke-width:1.70078743px;stroke-linejoin:miter;stroke-miterlimit:1;stroke-dasharray:none;stroke-opacity:1" />
    <path
       d="M 169.65354,269.22047 L 168.66142,268.68898 L 168.05906,268.37008 L 167.52756,268.05118 L 167.0315,267.69685 L 166.67717,267.34252 L 166.42913,266.98819 L 166.1811,266.45669 L 165.93307,265.8189 L 165.68504,265.14567 L 165.33071,263.97638 L 165.18898,263.48031 L 156.68504,275.63386 L 170.11417,269.39764 L 169.65354,269.22047 z"
       id="path2587"
       style="fill:#3f3d99;fill-opacity:1;fill-rule:evenodd;stroke:none" />
    <path
       d="M 176.49213,231.27165 L 166.74803,240.51969"
       id="path2589"
       style="fill:none;stroke:#3f3d99;stroke-width:1.70078743px;stroke-linejoin:miter;stroke-miterlimit:1;stroke-dasharray:none;stroke-opacity:1" />
    <path
       d="M 169.61811,242.04331 L 168.66142,241.65354 L 168.09449,241.37008 L 167.56299,241.08661 L 167.10236,240.80315 L 166.74803,240.51969 L 166.5,240.16535 L 166.25197,239.70472 L 165.9685,239.1378 L 165.72047,238.53543 L 165.29528,237.47244 L 165.15354,237.01181 L 157.99606,248.81102 L 170.04331,242.18504 L 169.61811,242.04331 z"
       id="path2591"
       style="fill:#3f3d99;fill-opacity:1;fill-rule:evenodd;stroke:none" />
    <path
       d="M 174.47244,204.41339 L 166.85433,213.66142"
       id="path2593"
       style="fill:none;stroke:#3f3d99;stroke-width:1.70078743px;stroke-linejoin:miter;stroke-miterlimit:1;stroke-dasharray:none;stroke-opacity:1" />
    <path
       d="M 169.58268,214.72441 L 168.66142,214.47638 L 168.16535,214.29921 L 167.63386,214.12205 L 167.20866,213.90945 L 166.85433,213.66142 L 166.6063,213.41339 L 166.32283,213.02362 L 166.00394,212.52756 L 165.72047,212.0315 L 165.25984,211.14567 L 165.04724,210.75591 L 160.01575,221.95276 L 169.97244,214.79528 L 169.58268,214.72441 z"
       id="path2595"
       style="fill:#3f3d99;fill-opacity:1;fill-rule:evenodd;stroke:none" />
    <path
       d="M 171.95669,177.59055 L 166.99606,186.83858"
       id="path2597"
       style="fill:none;stroke:#3f3d99;stroke-width:1.70078743px;stroke-linejoin:miter;stroke-miterlimit:1;stroke-dasharray:none;stroke-opacity:1" />
    <path
       d="M 169.51181,187.26378 L 168.69685,187.19291 L 168.20079,187.15748 L 167.74016,187.05118 L 167.31496,186.94488 L 166.99606,186.83858 L 166.74803,186.66142 L 166.42913,186.34252 L 166.0748,185.98819 L 165.75591,185.63386 L 165.18898,184.9252 L 164.94094,184.64173 L 162.56693,195.12992 L 169.86614,187.26378 L 169.51181,187.26378 z"
       id="path2599"
       style="fill:#3f3d99;fill-opacity:1;fill-rule:evenodd;stroke:none" />
    <path
       d="M 169.05118,150.73228 L 167.1378,159.98031"
       id="path2601"
       style="fill:none;stroke:#3f3d99;stroke-width:1.70078743px;stroke-linejoin:miter;stroke-miterlimit:1;stroke-dasharray:none;stroke-opacity:1" />
    <path
       d="M 169.44094,159.73228 L 168.73228,159.87402 L 168.27165,159.94488 L 167.84646,160.01575 L 167.45669,160.01575 L 167.1378,159.98031 L 166.88976,159.90945 L 166.53543,159.73228 L 166.14567,159.51969 L 165.75591,159.27165 L 165.11811,158.81102 L 164.83465,158.63386 L 165.43701,168.27165 L 169.72441,159.62598 L 169.44094,159.73228 z"
       id="path2603"
       style="fill:#3f3d99;fill-opacity:1;fill-rule:evenodd;stroke:none" />
    <path
       d="M 166.03937,123.90945 L 167.31496,133.15748"
       id="path2605"
       style="fill:none;stroke:#3f3d99;stroke-width:1.70078743px;stroke-linejoin:miter;stroke-miterlimit:1;stroke-dasharray:none;stroke-opacity:1" />
    <path
       d="M 169.33465,132.12992 L 168.73228,132.51969 L 168.37795,132.73228 L 167.98819,132.94488 L 167.63386,133.08661 L 167.31496,133.15748 L 167.0315,133.15748 L 166.64173,133.12205 L 166.21654,133.05118 L 165.79134,132.94488 L 165.01181,132.73228 L 164.69291,132.66142 L 168.44882,141.44882 L 169.61811,131.98819 L 169.33465,132.12992 z"
       id="path2607"
       style="fill:#3f3d99;fill-opacity:1;fill-rule:evenodd;stroke:none" />
    <path
       d="M 163.09843,97.051181 L 167.49213,106.29921"
       id="path2609"
       style="fill:none;stroke:#3f3d99;stroke-width:1.70078743px;stroke-linejoin:miter;stroke-miterlimit:1;stroke-dasharray:none;stroke-opacity:1" />
    <path
       d="M 169.26378,104.59843 L 168.76772,105.20079 L 168.44882,105.55512 L 168.09449,105.87402 L 167.77559,106.12205 L 167.49213,106.29921 L 167.17323,106.40551 L 166.78346,106.47638 L 166.2874,106.54724 L 165.79134,106.58268 L 164.94094,106.65354 L 164.58661,106.65354 L 171.38976,114.59055 L 169.47638,104.31496 L 169.26378,104.59843 z"
       id="path2611"
       style="fill:#3f3d99;fill-opacity:1;fill-rule:evenodd;stroke:none" />
    <path
       d="M 160.47638,70.228346 L 167.63386,79.476378"
       id="path2613"
       style="fill:none;stroke:#3f3d99;stroke-width:1.70078743px;stroke-linejoin:miter;stroke-miterlimit:1;stroke-dasharray:none;stroke-opacity:1" />
    <path
       d="M 169.19291,77.102362 L 168.76772,77.917323 L 168.48425,78.377953 L 168.20079,78.80315 L 167.91732,79.192913 L 167.63386,79.476378 L 167.31496,79.653543 L 166.88976,79.830709 L 166.35827,80.007874 L 165.82677,80.185039 L 164.87008,80.468504 L 164.48031,80.53937 L 174.01181,87.767717 L 169.37008,76.783465 L 169.19291,77.102362 z"
       id="path2615"
       style="fill:#3f3d99;fill-opacity:1;fill-rule:evenodd;stroke:none" />
    <path
       d="M 158.35039,43.370079 L 167.74016,52.61811"
       id="path2617"
       style="fill:none;stroke:#3f3d99;stroke-width:1.70078743px;stroke-linejoin:miter;stroke-miterlimit:1;stroke-dasharray:none;stroke-opacity:1" />
    <path
       d="M 169.15748,49.748031 L 168.80315,50.704724 L 168.55512,51.271654 L 168.30709,51.80315 L 168.02362,52.26378 L 167.74016,52.61811 L 167.42126,52.866142 L 166.96063,53.149606 L 166.42913,53.433071 L 165.82677,53.716535 L 164.83465,54.141732 L 164.37402,54.318898 L 176.1378,60.909449 L 169.29921,49.358268 L 169.15748,49.748031 z"
       id="path2619"
       style="fill:#3f3d99;fill-opacity:1;fill-rule:evenodd;stroke:none" />
    <path
       d="M 156.89764,16.547244 L 167.81102,25.795276"
       id="path2621"
       style="fill:none;stroke:#3f3d99;stroke-width:1.70078743px;stroke-linejoin:miter;stroke-miterlimit:1;stroke-dasharray:none;stroke-opacity:1" />
    <path
       d="M 169.12205,22.570866 L 168.80315,23.633858 L 168.59055,24.23622 L 168.34252,24.874016 L 168.09449,25.405512 L 167.81102,25.795276 L 167.49213,26.07874 L 167.0315,26.433071 L 166.46457,26.787402 L 165.8622,27.106299 L 164.79921,27.673228 L 164.33858,27.885827 L 177.62598,34.086614 L 169.22835,22.110236 L 169.12205,22.570866 z"
       id="path2623"
       style="fill:#3f3d99;fill-opacity:1;fill-rule:evenodd;stroke:none" />
    <path
       d="M 204.90945,313.93701 L 193.5,320.91732"
       id="path2625"
       style="fill:none;stroke:#3f3d99;stroke-width:1.70078743px;stroke-linejoin:miter;stroke-miterlimit:1;stroke-dasharray:none;stroke-opacity:1" />
    <path
       d="M 195.98031,323.00787 L 195.12992,322.40551 L 194.63386,322.05118 L 194.17323,321.66142 L 193.78346,321.27165 L 193.5,320.91732 L 193.32283,320.52756 L 193.1811,320.0315 L 193.03937,319.3937 L 192.89764,318.75591 L 192.72047,317.65748 L 192.64961,317.19685 L 183.25984,327.15354 L 196.37008,323.25591 L 195.98031,323.00787 z"
       id="path2627"
       style="fill:#3f3d99;fill-opacity:1;fill-rule:evenodd;stroke:none" />
    <path
       d="M 205.19291,287.11417 L 193.5,294.05906"
       id="path2629"
       style="fill:none;stroke:#3f3d99;stroke-width:1.70078743px;stroke-linejoin:miter;stroke-miterlimit:1;stroke-dasharray:none;stroke-opacity:1" />
    <path
       d="M 195.98031,296.22047 L 195.12992,295.61811 L 194.63386,295.22835 L 194.17323,294.83858 L 193.74803,294.44882 L 193.5,294.05906 L 193.32283,293.66929 L 193.14567,293.1378 L 193.00394,292.53543 L 192.89764,291.89764 L 192.72047,290.76378 L 192.68504,290.26772 L 182.97638,300.33071 L 196.37008,296.4685 L 195.98031,296.22047 z"
       id="path2631"
       style="fill:#3f3d99;fill-opacity:1;fill-rule:evenodd;stroke:none" />
    <path
       d="M 204.66142,260.25591 L 193.5,267.23622"
       id="path2633"
       style="fill:none;stroke:#3f3d99;stroke-width:1.70078743px;stroke-linejoin:miter;stroke-miterlimit:1;stroke-dasharray:none;stroke-opacity:1" />
    <path
       d="M 195.98031,269.25591 L 195.12992,268.68898 L 194.63386,268.33465 L 194.17323,267.94488 L 193.78346,267.59055 L 193.5,267.23622 L 193.35827,266.88189 L 193.1811,266.35039 L 193.03937,265.74803 L 192.89764,265.14567 L 192.72047,264.04724 L 192.64961,263.58661 L 183.54331,273.47244 L 196.33465,269.50394 L 195.98031,269.25591 z"
       id="path2635"
       style="fill:#3f3d99;fill-opacity:1;fill-rule:evenodd;stroke:none" />
    <path
       d="M 203.35039,233.43307 L 193.6063,240.37795"
       id="path2637"
       style="fill:none;stroke:#3f3d99;stroke-width:1.70078743px;stroke-linejoin:miter;stroke-miterlimit:1;stroke-dasharray:none;stroke-opacity:1" />
    <path
       d="M 195.94488,242.11417 L 195.12992,241.61811 L 194.66929,241.33465 L 194.24409,241.01575 L 193.85433,240.69685 L 193.6063,240.37795 L 193.3937,240.05906 L 193.21654,239.59843 L 193.0748,239.06693 L 192.89764,238.5 L 192.68504,237.54331 L 192.57874,237.11811 L 184.85433,246.64961 L 196.29921,242.29134 L 195.94488,242.11417 z"
       id="path2639"
       style="fill:#3f3d99;fill-opacity:1;fill-rule:evenodd;stroke:none" />
    <path
       d="M 201.33071,206.5748 L 193.7126,213.55512"
       id="path2641"
       style="fill:none;stroke:#3f3d99;stroke-width:1.70078743px;stroke-linejoin:miter;stroke-miterlimit:1;stroke-dasharray:none;stroke-opacity:1" />
    <path
       d="M 195.87402,214.75984 L 195.16535,214.44094 L 194.74016,214.22835 L 194.31496,214.01575 L 193.96063,213.76772 L 193.7126,213.55512 L 193.5,213.30709 L 193.32283,212.91732 L 193.11024,212.49213 L 192.93307,212.0315 L 192.61417,211.21654 L 192.50787,210.8622 L 186.83858,219.79134 L 196.19291,214.90157 L 195.87402,214.75984 z"
       id="path2643"
       style="fill:#3f3d99;fill-opacity:1;fill-rule:evenodd;stroke:none" />
    <path
       d="M 198.77953,179.75197 L 193.85433,186.69685"
       id="path2645"
       style="fill:none;stroke:#3f3d99;stroke-width:1.70078743px;stroke-linejoin:miter;stroke-miterlimit:1;stroke-dasharray:none;stroke-opacity:1" />
    <path
       d="M 195.83858,187.29921 L 195.16535,187.19291 L 194.77559,187.08661 L 194.42126,186.98031 L 194.10236,186.83858 L 193.85433,186.69685 L 193.64173,186.51969 L 193.42913,186.27165 L 193.1811,185.95276 L 192.93307,185.59843 L 192.57874,184.99606 L 192.40157,184.74803 L 189.38976,192.9685 L 196.08661,187.37008 L 195.83858,187.29921 z"
       id="path2647"
       style="fill:#3f3d99;fill-opacity:1;fill-rule:evenodd;stroke:none" />
    <path
       d="M 195.90945,152.8937 L 193.99606,159.87402"
       id="path2649"
       style="fill:none;stroke:#3f3d99;stroke-width:1.70078743px;stroke-linejoin:miter;stroke-miterlimit:1;stroke-dasharray:none;stroke-opacity:1" />
    <path
       d="M 195.73228,159.76772 L 195.20079,159.87402 L 194.84646,159.90945 L 194.52756,159.90945 L 194.24409,159.90945 L 193.99606,159.87402 L 193.78346,159.80315 L 193.53543,159.62598 L 193.25197,159.44882 L 192.9685,159.23622 L 192.47244,158.88189 L 192.29528,158.70472 L 192.29528,166.11024 L 195.98031,159.73228 L 195.73228,159.76772 z"
       id="path2651"
       style="fill:#3f3d99;fill-opacity:1;fill-rule:evenodd;stroke:none" />
    <path
       d="M 192.89764,126.07087 L 194.17323,133.01575"
       id="path2653"
       style="fill:none;stroke:#3f3d99;stroke-width:1.70078743px;stroke-linejoin:miter;stroke-miterlimit:1;stroke-dasharray:none;stroke-opacity:1" />
    <path
       d="M 195.66142,132.20079 L 195.20079,132.51969 L 194.95276,132.69685 L 194.66929,132.83858 L 194.38583,132.98031 L 194.17323,133.01575 L 193.9252,133.05118 L 193.64173,133.01575 L 193.32283,132.98031 L 193.00394,132.90945 L 192.40157,132.80315 L 192.15354,132.73228 L 195.30709,139.2874 L 195.83858,132.05906 L 195.66142,132.20079 z"
       id="path2655"
       style="fill:#3f3d99;fill-opacity:1;fill-rule:evenodd;stroke:none" />
    <path
       d="M 189.95669,99.212598 L 194.31496,106.19291"
       id="path2657"
       style="fill:none;stroke:#3f3d99;stroke-width:1.70078743px;stroke-linejoin:miter;stroke-miterlimit:1;stroke-dasharray:none;stroke-opacity:1" />
    <path
       d="M 195.59055,104.63386 L 195.23622,105.16535 L 195.02362,105.48425 L 194.77559,105.76772 L 194.52756,106.01575 L 194.31496,106.19291 L 194.10236,106.29921 L 193.78346,106.40551 L 193.3937,106.51181 L 193.00394,106.58268 L 192.33071,106.68898 L 192.04724,106.72441 L 198.24803,112.42913 L 195.73228,104.42126 L 195.59055,104.63386 z"
       id="path2659"
       style="fill:#3f3d99;fill-opacity:1;fill-rule:evenodd;stroke:none" />
    <path
       d="M 187.33465,72.389764 L 194.45669,79.334646"
       id="path2661"
       style="fill:none;stroke:#3f3d99;stroke-width:1.70078743px;stroke-linejoin:miter;stroke-miterlimit:1;stroke-dasharray:none;stroke-opacity:1" />
    <path
       d="M 195.51969,77.173228 L 195.23622,77.917323 L 195.05906,78.307087 L 194.88189,78.732283 L 194.66929,79.086614 L 194.45669,79.334646 L 194.20866,79.547244 L 193.88976,79.759843 L 193.46457,79.972441 L 193.03937,80.185039 L 192.25984,80.503937 L 191.94094,80.645669 L 200.87008,85.606299 L 195.62598,76.854331 L 195.51969,77.173228 z"
       id="path2663"
       style="fill:#3f3d99;fill-opacity:1;fill-rule:evenodd;stroke:none" />
    <path
       d="M 185.20866,45.531496 L 194.56299,52.511811"
       id="path2665"
       style="fill:none;stroke:#3f3d99;stroke-width:1.70078743px;stroke-linejoin:miter;stroke-miterlimit:1;stroke-dasharray:none;stroke-opacity:1" />
    <path
       d="M 195.44882,49.818898 L 195.27165,50.704724 L 195.12992,51.23622 L 194.95276,51.732283 L 194.77559,52.15748 L 194.56299,52.511811 L 194.31496,52.759843 L 193.96063,53.07874 L 193.5,53.397638 L 193.03937,53.681102 L 192.18898,54.212598 L 191.83465,54.425197 L 202.99606,58.748031 L 195.51969,49.429134 L 195.44882,49.818898 z"
       id="path2667"
       style="fill:#3f3d99;fill-opacity:1;fill-rule:evenodd;stroke:none" />
    <path
       d="M 183.72047,18.708661 L 194.66929,25.688976"
       id="path2669"
       style="fill:none;stroke:#3f3d99;stroke-width:1.70078743px;stroke-linejoin:miter;stroke-miterlimit:1;stroke-dasharray:none;stroke-opacity:1" />
    <path
       d="M 195.41339,22.606299 L 195.27165,23.633858 L 195.16535,24.200787 L 195.02362,24.767717 L 194.84646,25.26378 L 194.66929,25.688976 L 194.42126,25.972441 L 194.0315,26.326772 L 193.53543,26.716535 L 193.03937,27.106299 L 192.15354,27.744094 L 191.76378,27.992126 L 204.44882,31.925197 L 195.48425,22.181102 L 195.41339,22.606299 z"
       id="path2671"
       style="fill:#3f3d99;fill-opacity:1;fill-rule:evenodd;stroke:none" />
    <path
       d="M 231.76772,316.59449 L 220.35827,320.77559"
       id="path2673"
       style="fill:none;stroke:#3f3d99;stroke-width:1.70078743px;stroke-linejoin:miter;stroke-miterlimit:1;stroke-dasharray:none;stroke-opacity:1" />
    <path
       d="M 222.16535,323.07874 L 221.52756,322.40551 L 221.1378,321.98031 L 220.8189,321.55512 L 220.53543,321.12992 L 220.35827,320.77559 L 220.25197,320.38583 L 220.21654,319.88976 L 220.1811,319.32283 L 220.1811,318.75591 L 220.21654,317.72835 L 220.25197,317.30315 L 210.11811,324.49606 L 222.48425,323.3622 L 222.16535,323.07874 z"
       id="path2675"
       style="fill:#3f3d99;fill-opacity:1;fill-rule:evenodd;stroke:none" />
    <path
       d="M 232.05118,289.77165 L 220.32283,293.91732"
       id="path2677"
       style="fill:none;stroke:#3f3d99;stroke-width:1.70078743px;stroke-linejoin:miter;stroke-miterlimit:1;stroke-dasharray:none;stroke-opacity:1" />
    <path
       d="M 222.20079,296.29134 L 221.52756,295.61811 L 221.1378,295.15748 L 220.78346,294.73228 L 220.5,294.30709 L 220.32283,293.91732 L 220.25197,293.56299 L 220.1811,293.0315 L 220.1811,292.46457 L 220.1811,291.8622 L 220.25197,290.83465 L 220.25197,290.37402 L 209.83465,297.67323 L 222.48425,296.5748 L 222.20079,296.29134 z"
       id="path2679"
       style="fill:#3f3d99;fill-opacity:1;fill-rule:evenodd;stroke:none" />
    <path
       d="M 231.48425,262.91339 L 220.35827,267.09449"
       id="path2681"
       style="fill:none;stroke:#3f3d99;stroke-width:1.70078743px;stroke-linejoin:miter;stroke-miterlimit:1;stroke-dasharray:none;stroke-opacity:1" />
    <path
       d="M 222.16535,269.32677 L 221.52756,268.68898 L 221.17323,268.26378 L 220.8189,267.83858 L 220.53543,267.44882 L 220.35827,267.09449 L 220.25197,266.74016 L 220.21654,266.24409 L 220.1811,265.67717 L 220.1811,265.11024 L 220.21654,264.11811 L 220.25197,263.69291 L 210.36614,270.81496 L 222.44882,269.61024 L 222.16535,269.32677 z"
       id="path2683"
       style="fill:#3f3d99;fill-opacity:1;fill-rule:evenodd;stroke:none" />
    <path
       d="M 230.17323,236.09055 L 220.42913,240.23622"
       id="path2685"
       style="fill:none;stroke:#3f3d99;stroke-width:1.70078743px;stroke-linejoin:miter;stroke-miterlimit:1;stroke-dasharray:none;stroke-opacity:1" />
    <path
       d="M 222.12992,242.18504 L 221.52756,241.61811 L 221.17323,241.26378 L 220.85433,240.90945 L 220.6063,240.55512 L 220.42913,240.23622 L 220.32283,239.91732 L 220.25197,239.49213 L 220.21654,238.99606 L 220.21654,238.5 L 220.1811,237.61417 L 220.1811,237.22441 L 211.67717,243.99213 L 222.41339,242.39764 L 222.12992,242.18504 z"
       id="path2687"
       style="fill:#3f3d99;fill-opacity:1;fill-rule:evenodd;stroke:none" />
    <path
       d="M 228.15354,209.23228 L 220.53543,213.41339"
       id="path2689"
       style="fill:none;stroke:#3f3d99;stroke-width:1.70078743px;stroke-linejoin:miter;stroke-miterlimit:1;stroke-dasharray:none;stroke-opacity:1" />
    <path
       d="M 222.09449,214.83071 L 221.56299,214.44094 L 221.24409,214.19291 L 220.96063,213.90945 L 220.7126,213.66142 L 220.53543,213.41339 L 220.42913,213.16535 L 220.35827,212.81102 L 220.2874,212.42126 L 220.21654,211.99606 L 220.14567,211.2874 L 220.11024,210.9685 L 213.69685,217.13386 L 222.30709,215.00787 L 222.09449,214.83071 z"
       id="path2691"
       style="fill:#3f3d99;fill-opacity:1;fill-rule:evenodd;stroke:none" />
    <path
       d="M 225.6378,182.40945 L 220.67717,186.55512"
       id="path2693"
       style="fill:none;stroke:#3f3d99;stroke-width:1.70078743px;stroke-linejoin:miter;stroke-miterlimit:1;stroke-dasharray:none;stroke-opacity:1" />
    <path
       d="M 222.02362,187.37008 L 221.56299,187.15748 L 221.31496,187.01575 L 221.06693,186.87402 L 220.8189,186.73228 L 220.67717,186.55512 L 220.57087,186.41339 L 220.46457,186.16535 L 220.32283,185.88189 L 220.21654,185.59843 L 220.0748,185.06693 L 220.00394,184.85433 L 216.24803,190.31102 L 222.20079,187.47638 L 222.02362,187.37008 z"
       id="path2695"
       style="fill:#3f3d99;fill-opacity:1;fill-rule:evenodd;stroke:none" />
    <path
       d="M 222.73228,155.55118 L 220.8189,159.73228"
       id="path2697"
       style="fill:none;stroke:#3f3d99;stroke-width:1.70078743px;stroke-linejoin:miter;stroke-miterlimit:1;stroke-dasharray:none;stroke-opacity:1" />
    <path
       d="M 221.95276,159.83858 L 221.59843,159.83858 L 221.38583,159.83858 L 221.17323,159.80315 L 220.99606,159.76772 L 220.8189,159.73228 L 220.7126,159.66142 L 220.57087,159.51969 L 220.3937,159.37795 L 220.25197,159.23622 L 220.00394,158.95276 L 219.89764,158.84646 L 219.11811,163.45276 L 222.09449,159.83858 L 221.95276,159.83858 z"
       id="path2699"
       style="fill:#3f3d99;fill-opacity:1;fill-rule:evenodd;stroke:none" />
    <path
       d="M 219.72047,128.72835 L 220.99606,132.87402"
       id="path2701"
       style="fill:none;stroke:#3f3d99;stroke-width:1.70078743px;stroke-linejoin:miter;stroke-miterlimit:1;stroke-dasharray:none;stroke-opacity:1" />
    <path
       d="M 221.84646,132.27165 L 221.59843,132.48425 L 221.45669,132.62598 L 221.27953,132.73228 L 221.1378,132.83858 L 220.99606,132.87402 L 220.85433,132.90945 L 220.67717,132.90945 L 220.5,132.90945 L 220.2874,132.90945 L 219.89764,132.87402 L 219.75591,132.83858 L 222.12992,136.62992 L 221.95276,132.16535 L 221.84646,132.27165 z"
       id="path2703"
       style="fill:#3f3d99;fill-opacity:1;fill-rule:evenodd;stroke:none" />
    <path
       d="M 216.77953,101.87008 L 221.17323,106.05118"
       id="path2705"
       style="fill:none;stroke:#3f3d99;stroke-width:1.70078743px;stroke-linejoin:miter;stroke-miterlimit:1;stroke-dasharray:none;stroke-opacity:1" />
    <path
       d="M 221.77559,104.70472 L 221.63386,105.16535 L 221.52756,105.41339 L 221.42126,105.66142 L 221.27953,105.87402 L 221.17323,106.05118 L 221.0315,106.15748 L 220.8189,106.29921 L 220.57087,106.44094 L 220.2874,106.54724 L 219.82677,106.75984 L 219.64961,106.83071 L 225.07087,109.77165 L 221.84646,104.52756 L 221.77559,104.70472 z"
       id="path2707"
       style="fill:#3f3d99;fill-opacity:1;fill-rule:evenodd;stroke:none" />
    <path
       d="M 214.15748,75.047244 L 221.31496,79.192913"
       id="path2709"
       style="fill:none;stroke:#3f3d99;stroke-width:1.70078743px;stroke-linejoin:miter;stroke-miterlimit:1;stroke-dasharray:none;stroke-opacity:1" />
    <path
       d="M 221.70472,77.244094 L 221.63386,77.88189 L 221.59843,78.271654 L 221.52756,78.625984 L 221.42126,78.944882 L 221.31496,79.192913 L 221.1378,79.405512 L 220.9252,79.653543 L 220.6063,79.901575 L 220.32283,80.149606 L 219.75591,80.574803 L 219.50787,80.751969 L 227.69291,82.948819 L 221.74016,76.96063 L 221.70472,77.244094 z"
       id="path2711"
       style="fill:#3f3d99;fill-opacity:1;fill-rule:evenodd;stroke:none" />
    <path
       d="M 212.0315,48.188976 L 221.42126,52.370079"
       id="path2713"
       style="fill:none;stroke:#3f3d99;stroke-width:1.70078743px;stroke-linejoin:miter;stroke-miterlimit:1;stroke-dasharray:none;stroke-opacity:1" />
    <path
       d="M 221.66929,49.889764 L 221.66929,50.669291 L 221.63386,51.165354 L 221.59843,51.625984 L 221.52756,52.051181 L 221.42126,52.370079 L 221.24409,52.653543 L 220.99606,52.972441 L 220.67717,53.326772 L 220.32283,53.681102 L 219.72047,54.283465 L 219.43701,54.531496 L 229.8189,56.090551 L 221.63386,49.535433 L 221.66929,49.889764 z"
       id="path2715"
       style="fill:#3f3d99;fill-opacity:1;fill-rule:evenodd;stroke:none" />
    <path
       d="M 210.57874,21.366142 L 221.49213,25.511811"
       id="path2717"
       style="fill:none;stroke:#3f3d99;stroke-width:1.70078743px;stroke-linejoin:miter;stroke-miterlimit:1;stroke-dasharray:none;stroke-opacity:1" />
    <path
       d="M 221.63386,22.677165 L 221.66929,23.598425 L 221.66929,24.129921 L 221.66929,24.661417 L 221.59843,25.15748 L 221.49213,25.511811 L 221.31496,25.830709 L 221.06693,26.220472 L 220.7126,26.645669 L 220.32283,27.070866 L 219.68504,27.814961 L 219.36614,28.098425 L 231.30709,29.267717 L 221.59843,22.322835 L 221.63386,22.677165 z"
       id="path2719"
       style="fill:#3f3d99;fill-opacity:1;fill-rule:evenodd;stroke:none" />
    <path
       d="M 258.59055,319.53543 L 247.1811,320.59843"
       id="path2721"
       style="fill:none;stroke:#3f3d99;stroke-width:1.70078743px;stroke-linejoin:miter;stroke-miterlimit:1;stroke-dasharray:none;stroke-opacity:1" />
    <path
       d="M 248.31496,323.14961 L 247.85433,322.37008 L 247.64173,321.90945 L 247.42913,321.41339 L 247.25197,320.98819 L 247.1811,320.59843 L 247.1811,320.24409 L 247.25197,319.78346 L 247.3937,319.25197 L 247.53543,318.72047 L 247.8189,317.79921 L 247.9252,317.40945 L 236.94094,321.55512 L 248.49213,323.4685 L 248.31496,323.14961 z"
       id="path2723"
       style="fill:#3f3d99;fill-opacity:1;fill-rule:evenodd;stroke:none" />
    <path
       d="M 258.87402,292.7126 L 247.1811,293.77559"
       id="path2725"
       style="fill:none;stroke:#3f3d99;stroke-width:1.70078743px;stroke-linejoin:miter;stroke-miterlimit:1;stroke-dasharray:none;stroke-opacity:1" />
    <path
       d="M 248.31496,296.3622 L 247.85433,295.58268 L 247.6063,295.08661 L 247.3937,294.62598 L 247.25197,294.16535 L 247.1811,293.77559 L 247.1811,293.38583 L 247.25197,292.9252 L 247.35827,292.3937 L 247.53543,291.82677 L 247.8189,290.90551 L 247.96063,290.51575 L 236.65748,294.73228 L 248.52756,296.71654 L 248.31496,296.3622 z"
       id="path2727"
       style="fill:#3f3d99;fill-opacity:1;fill-rule:evenodd;stroke:none" />
    <path
       d="M 258.34252,265.85433 L 247.1811,266.91732"
       id="path2729"
       style="fill:none;stroke:#3f3d99;stroke-width:1.70078743px;stroke-linejoin:miter;stroke-miterlimit:1;stroke-dasharray:none;stroke-opacity:1" />
    <path
       d="M 248.27953,269.39764 L 247.85433,268.65354 L 247.64173,268.19291 L 247.42913,267.73228 L 247.2874,267.30709 L 247.1811,266.91732 L 247.21654,266.56299 L 247.2874,266.1378 L 247.3937,265.6063 L 247.53543,265.11024 L 247.78346,264.18898 L 247.9252,263.79921 L 237.22441,267.87402 L 248.49213,269.71654 L 248.27953,269.39764 z"
       id="path2731"
       style="fill:#3f3d99;fill-opacity:1;fill-rule:evenodd;stroke:none" />
    <path
       d="M 256.99606,239.0315 L 247.25197,240.09449"
       id="path2733"
       style="fill:none;stroke:#3f3d99;stroke-width:1.70078743px;stroke-linejoin:miter;stroke-miterlimit:1;stroke-dasharray:none;stroke-opacity:1" />
    <path
       d="M 248.24409,242.25591 L 247.88976,241.58268 L 247.67717,241.19291 L 247.46457,240.80315 L 247.32283,240.41339 L 247.25197,240.09449 L 247.2874,239.77559 L 247.32283,239.38583 L 247.42913,238.9252 L 247.53543,238.46457 L 247.74803,237.68504 L 247.85433,237.36614 L 238.53543,241.05118 L 248.42126,242.50394 L 248.24409,242.25591 z"
       id="path2735"
       style="fill:#3f3d99;fill-opacity:1;fill-rule:evenodd;stroke:none" />
    <path
       d="M 255.01181,212.17323 L 247.3937,213.23622"
       id="path2737"
       style="fill:none;stroke:#3f3d99;stroke-width:1.70078743px;stroke-linejoin:miter;stroke-miterlimit:1;stroke-dasharray:none;stroke-opacity:1" />
    <path
       d="M 248.20866,214.93701 L 247.88976,214.40551 L 247.7126,214.12205 L 247.57087,213.80315 L 247.42913,213.48425 L 247.3937,213.23622 L 247.35827,213.02362 L 247.3937,212.70472 L 247.46457,212.35039 L 247.53543,211.96063 L 247.7126,211.35827 L 247.78346,211.0748 L 240.51969,214.19291 L 248.35039,215.11417 L 248.20866,214.93701 z"
       id="path2739"
       style="fill:#3f3d99;fill-opacity:1;fill-rule:evenodd;stroke:none" />
    <path
       d="M 252.46063,185.35039 L 247.5,186.41339"
       id="path2741"
       style="fill:none;stroke:#3f3d99;stroke-width:1.70078743px;stroke-linejoin:miter;stroke-miterlimit:1;stroke-dasharray:none;stroke-opacity:1" />
    <path
       d="M 248.1378,187.47638 L 247.9252,187.15748 L 247.78346,186.94488 L 247.67717,186.76772 L 247.57087,186.55512 L 247.5,186.41339 L 247.5,186.23622 L 247.5,186.05906 L 247.53543,185.81102 L 247.57087,185.56299 L 247.64173,185.1378 L 247.67717,184.96063 L 243.07087,187.37008 L 248.24409,187.58268 L 248.1378,187.47638 z"
       id="path2743"
       style="fill:#3f3d99;fill-opacity:1;fill-rule:evenodd;stroke:none" />
    <path
       d="M 249.59055,158.49213 L 247.67717,159.55512"
       id="path2745"
       style="fill:none;stroke:#3f3d99;stroke-width:1.70078743px;stroke-linejoin:miter;stroke-miterlimit:1;stroke-dasharray:none;stroke-opacity:1" />
    <path
       d="M 248.06693,159.90945 L 247.9252,159.83858 L 247.85433,159.76772 L 247.78346,159.69685 L 247.7126,159.62598 L 247.67717,159.55512 L 247.64173,159.51969 L 247.64173,159.41339 L 247.6063,159.30709 L 247.6063,159.20079 L 247.57087,159.02362 L 247.57087,158.95276 L 245.97638,160.51181 L 248.1378,159.98031 L 248.06693,159.90945 z"
       id="path2747"
       style="fill:#3f3d99;fill-opacity:1;fill-rule:evenodd;stroke:none" />
    <path
       d="M 246.57874,131.66929 L 247.85433,132.73228"
       id="path2749"
       style="fill:none;stroke:#3f3d99;stroke-width:1.70078743px;stroke-linejoin:miter;stroke-miterlimit:1;stroke-dasharray:none;stroke-opacity:1" />
    <path
       d="M 247.99606,132.34252 L 247.96063,132.48425 L 247.9252,132.55512 L 247.88976,132.62598 L 247.85433,132.66142 L 247.85433,132.73228 L 247.8189,132.76772 L 247.74803,132.80315 L 247.67717,132.83858 L 247.6063,132.87402 L 247.5,132.94488 L 247.42913,132.98031 L 248.98819,133.68898 L 247.99606,132.30709 L 247.99606,132.34252 z"
       id="path2751"
       style="fill:#3f3d99;fill-opacity:1;fill-rule:evenodd;stroke:none" />
    <path
       d="M 243.6378,104.81102 L 247.99606,105.87402"
       id="path2753"
       style="fill:none;stroke:#3f3d99;stroke-width:1.70078743px;stroke-linejoin:miter;stroke-miterlimit:1;stroke-dasharray:none;stroke-opacity:1" />
    <path
       d="M 247.9252,104.81102 L 247.96063,105.12992 L 247.99606,105.34252 L 248.0315,105.55512 L 248.0315,105.73228 L 247.99606,105.87402 L 247.96063,106.01575 L 247.85433,106.19291 L 247.74803,106.37008 L 247.64173,106.54724 L 247.3937,106.83071 L 247.32283,106.97244 L 251.92913,106.83071 L 247.88976,104.66929 L 247.9252,104.81102 z"
       id="path2755"
       style="fill:#3f3d99;fill-opacity:1;fill-rule:evenodd;stroke:none" />
    <path
       d="M 241.01575,77.988189 L 248.1378,79.051181"
       id="path2757"
       style="fill:none;stroke:#3f3d99;stroke-width:1.70078743px;stroke-linejoin:miter;stroke-miterlimit:1;stroke-dasharray:none;stroke-opacity:1" />
    <path
       d="M 247.85433,77.314961 L 247.99606,77.846457 L 248.06693,78.165354 L 248.1378,78.519685 L 248.1378,78.80315 L 248.1378,79.051181 L 248.06693,79.26378 L 247.96063,79.547244 L 247.8189,79.830709 L 247.64173,80.149606 L 247.35827,80.645669 L 247.21654,80.893701 L 254.55118,80.007874 L 247.78346,77.102362 L 247.85433,77.314961 z"
       id="path2759"
       style="fill:#3f3d99;fill-opacity:1;fill-rule:evenodd;stroke:none" />
    <path
       d="M 238.88976,51.129921 L 248.24409,52.192913"
       id="path2761"
       style="fill:none;stroke:#3f3d99;stroke-width:1.70078743px;stroke-linejoin:miter;stroke-miterlimit:1;stroke-dasharray:none;stroke-opacity:1" />
    <path
       d="M 247.78346,49.96063 L 247.99606,50.669291 L 248.10236,51.094488 L 248.20866,51.484252 L 248.24409,51.874016 L 248.24409,52.192913 L 248.20866,52.476378 L 248.06693,52.866142 L 247.85433,53.255906 L 247.67717,53.645669 L 247.2874,54.354331 L 247.11024,54.637795 L 256.67717,53.149606 L 247.67717,49.677165 L 247.78346,49.96063 z"
       id="path2763"
       style="fill:#3f3d99;fill-opacity:1;fill-rule:evenodd;stroke:none" />
    <path
       d="M 237.40157,24.307087 L 248.35039,25.370079"
       id="path2765"
       style="fill:none;stroke:#3f3d99;stroke-width:1.70078743px;stroke-linejoin:miter;stroke-miterlimit:1;stroke-dasharray:none;stroke-opacity:1" />
    <path
       d="M 247.74803,22.783465 L 248.0315,23.562992 L 248.1378,24.059055 L 248.27953,24.555118 L 248.35039,24.980315 L 248.35039,25.370079 L 248.27953,25.688976 L 248.10236,26.114173 L 247.88976,26.574803 L 247.67717,27.070866 L 247.25197,27.885827 L 247.03937,28.240157 L 258.12992,26.326772 L 247.6063,22.429134 L 247.74803,22.783465 z"
       id="path2767"
       style="fill:#3f3d99;fill-opacity:1;fill-rule:evenodd;stroke:none" />
    <path
       d="M 285.44882,322.54724 L 274.03937,320.42126"
       id="path2769"
       style="fill:none;stroke:#3f3d99;stroke-width:1.70078743px;stroke-linejoin:miter;stroke-miterlimit:1;stroke-dasharray:none;stroke-opacity:1" />
    <path
       d="M 274.3937,323.22047 L 274.1811,322.37008 L 274.11024,321.83858 L 274.00394,321.30709 L 274.00394,320.84646 L 274.03937,320.42126 L 274.11024,320.10236 L 274.32283,319.67717 L 274.57087,319.1811 L 274.88976,318.72047 L 275.38583,317.90551 L 275.63386,317.55118 L 263.79921,318.54331 L 274.5,323.61024 L 274.3937,323.22047 z"
       id="path2771"
       style="fill:#3f3d99;fill-opacity:1;fill-rule:evenodd;stroke:none" />
    <path
       d="M 285.73228,295.72441 L 274.00394,293.59843"
       id="path2773"
       style="fill:none;stroke:#3f3d99;stroke-width:1.70078743px;stroke-linejoin:miter;stroke-miterlimit:1;stroke-dasharray:none;stroke-opacity:1" />
    <path
       d="M 274.42913,296.4685 L 274.1811,295.54724 L 274.0748,295.01575 L 274.00394,294.48425 L 273.9685,293.98819 L 274.00394,293.59843 L 274.11024,293.24409 L 274.32283,292.8189 L 274.57087,292.32283 L 274.88976,291.82677 L 275.42126,290.97638 L 275.63386,290.62205 L 263.51575,291.68504 L 274.53543,296.82283 L 274.42913,296.4685 z"
       id="path2775"
       style="fill:#3f3d99;fill-opacity:1;fill-rule:evenodd;stroke:none" />
    <path
       d="M 285.16535,268.86614 L 274.03937,266.77559"
       id="path2777"
       style="fill:none;stroke:#3f3d99;stroke-width:1.70078743px;stroke-linejoin:miter;stroke-miterlimit:1;stroke-dasharray:none;stroke-opacity:1" />
    <path
       d="M 274.3937,269.50394 L 274.21654,268.61811 L 274.11024,268.12205 L 274.03937,267.62598 L 274.00394,267.12992 L 274.03937,266.77559 L 274.14567,266.42126 L 274.32283,265.99606 L 274.6063,265.53543 L 274.88976,265.0748 L 275.38583,264.29528 L 275.63386,263.94094 L 264.04724,264.8622 L 274.5,269.85827 L 274.3937,269.50394 z"
       id="path2779"
       style="fill:#3f3d99;fill-opacity:1;fill-rule:evenodd;stroke:none" />
    <path
       d="M 283.85433,242.04331 L 274.11024,239.91732"
       id="path2781"
       style="fill:none;stroke:#3f3d99;stroke-width:1.70078743px;stroke-linejoin:miter;stroke-miterlimit:1;stroke-dasharray:none;stroke-opacity:1" />
    <path
       d="M 274.35827,242.32677 L 274.21654,241.58268 L 274.14567,241.12205 L 274.0748,240.66142 L 274.0748,240.27165 L 274.11024,239.91732 L 274.21654,239.63386 L 274.3937,239.27953 L 274.64173,238.85433 L 274.88976,238.46457 L 275.35039,237.75591 L 275.56299,237.47244 L 265.35827,238.00394 L 274.42913,242.64567 L 274.35827,242.32677 z"
       id="path2783"
       style="fill:#3f3d99;fill-opacity:1;fill-rule:evenodd;stroke:none" />
    <path
       d="M 281.83465,215.18504 L 274.21654,213.09449"
       id="path2785"
       style="fill:none;stroke:#3f3d99;stroke-width:1.70078743px;stroke-linejoin:miter;stroke-miterlimit:1;stroke-dasharray:none;stroke-opacity:1" />
    <path
       d="M 274.32283,215.00787 L 274.21654,214.40551 L 274.1811,214.01575 L 274.1811,213.66142 L 274.1811,213.34252 L 274.21654,213.09449 L 274.32283,212.84646 L 274.46457,212.56299 L 274.67717,212.27953 L 274.88976,211.96063 L 275.31496,211.42913 L 275.49213,211.21654 L 267.37795,211.1811 L 274.35827,215.25591 L 274.32283,215.00787 z"
       id="path2787"
       style="fill:#3f3d99;fill-opacity:1;fill-rule:evenodd;stroke:none" />
    <path
       d="M 279.3189,188.3622 L 274.35827,186.23622"
       id="path2789"
       style="fill:none;stroke:#3f3d99;stroke-width:1.70078743px;stroke-linejoin:miter;stroke-miterlimit:1;stroke-dasharray:none;stroke-opacity:1" />
    <path
       d="M 274.25197,187.54724 L 274.25197,187.12205 L 274.25197,186.87402 L 274.25197,186.62598 L 274.2874,186.41339 L 274.35827,186.23622 L 274.42913,186.09449 L 274.57087,185.91732 L 274.74803,185.74016 L 274.9252,185.52756 L 275.24409,185.24409 L 275.38583,185.10236 L 269.92913,184.32283 L 274.25197,187.72441 L 274.25197,187.54724 z"
       id="path2791"
       style="fill:#3f3d99;fill-opacity:1;fill-rule:evenodd;stroke:none" />
    <path
       d="M 276.41339,161.50394 L 274.5,159.41339"
       id="path2793"
       style="fill:none;stroke:#3f3d99;stroke-width:1.70078743px;stroke-linejoin:miter;stroke-miterlimit:1;stroke-dasharray:none;stroke-opacity:1" />
    <path
       d="M 274.1811,160.01575 L 274.25197,159.80315 L 274.32283,159.69685 L 274.3937,159.55512 L 274.46457,159.48425 L 274.5,159.41339 L 274.57087,159.34252 L 274.67717,159.30709 L 274.8189,159.23622 L 274.9252,159.20079 L 275.17323,159.09449 L 275.24409,159.09449 L 272.79921,157.5 L 274.14567,160.08661 L 274.1811,160.01575 z"
       id="path2795"
       style="fill:#3f3d99;fill-opacity:1;fill-rule:evenodd;stroke:none" />
    <path
       d="M 273.40157,134.6811 L 274.67717,132.55512"
       id="path2797"
       style="fill:none;stroke:#3f3d99;stroke-width:1.70078743px;stroke-linejoin:miter;stroke-miterlimit:1;stroke-dasharray:none;stroke-opacity:1" />
    <path
       d="M 274.0748,132.41339 L 274.2874,132.44882 L 274.3937,132.48425 L 274.5,132.48425 L 274.6063,132.51969 L 274.67717,132.55512 L 274.74803,132.59055 L 274.8189,132.69685 L 274.88976,132.76772 L 274.96063,132.87402 L 275.06693,133.01575 L 275.1378,133.08661 L 275.81102,130.67717 L 274.00394,132.41339 L 274.0748,132.41339 z"
       id="path2799"
       style="fill:#3f3d99;fill-opacity:1;fill-rule:evenodd;stroke:none" />
    <path
       d="M 270.46063,107.82283 L 274.85433,105.73228"
       id="path2801"
       style="fill:none;stroke:#3f3d99;stroke-width:1.70078743px;stroke-linejoin:miter;stroke-miterlimit:1;stroke-dasharray:none;stroke-opacity:1" />
    <path
       d="M 274.00394,104.88189 L 274.2874,105.12992 L 274.46457,105.27165 L 274.6063,105.41339 L 274.74803,105.59055 L 274.85433,105.73228 L 274.88976,105.87402 L 274.9252,106.05118 L 274.96063,106.26378 L 274.99606,106.51181 L 274.99606,106.93701 L 274.99606,107.07874 L 278.75197,103.8189 L 273.89764,104.77559 L 274.00394,104.88189 z"
       id="path2803"
       style="fill:#3f3d99;fill-opacity:1;fill-rule:evenodd;stroke:none" />
    <path
       d="M 267.83858,81 L 274.99606,78.874016"
       id="path2805"
       style="fill:none;stroke:#3f3d99;stroke-width:1.70078743px;stroke-linejoin:miter;stroke-miterlimit:1;stroke-dasharray:none;stroke-opacity:1" />
    <path
       d="M 273.93307,77.385827 L 274.32283,77.846457 L 274.53543,78.094488 L 274.7126,78.377953 L 274.88976,78.661417 L 274.99606,78.874016 L 275.0315,79.122047 L 275.0315,79.405512 L 275.0315,79.759843 L 274.99606,80.114173 L 274.9252,80.751969 L 274.88976,81 L 281.37402,76.996063 L 273.79134,77.208661 L 273.93307,77.385827 z"
       id="path2807"
       style="fill:#3f3d99;fill-opacity:1;fill-rule:evenodd;stroke:none" />
    <path
       d="M 265.7126,54.177165 L 275.10236,52.051181"
       id="path2809"
       style="fill:none;stroke:#3f3d99;stroke-width:1.70078743px;stroke-linejoin:miter;stroke-miterlimit:1;stroke-dasharray:none;stroke-opacity:1" />
    <path
       d="M 273.89764,50.031496 L 274.32283,50.633858 L 274.57087,51.023622 L 274.8189,51.377953 L 274.99606,51.732283 L 275.10236,52.051181 L 275.1378,52.334646 L 275.10236,52.724409 L 275.06693,53.185039 L 274.99606,53.645669 L 274.88976,54.425197 L 274.8189,54.779528 L 283.5,50.137795 L 273.68504,49.783465 L 273.89764,50.031496 z"
       id="path2811"
       style="fill:#3f3d99;fill-opacity:1;fill-rule:evenodd;stroke:none" />
    <path
       d="M 264.25984,27.318898 L 275.17323,25.192913"
       id="path2813"
       style="fill:none;stroke:#3f3d99;stroke-width:1.70078743px;stroke-linejoin:miter;stroke-miterlimit:1;stroke-dasharray:none;stroke-opacity:1" />
    <path
       d="M 273.8622,22.854331 L 274.35827,23.562992 L 274.6063,23.988189 L 274.85433,24.413386 L 275.06693,24.838583 L 275.17323,25.192913 L 275.20866,25.547244 L 275.17323,26.007874 L 275.10236,26.503937 L 275.0315,27.035433 L 274.85433,27.956693 L 274.74803,28.346457 L 284.98819,23.314961 L 273.61417,22.570866 L 273.8622,22.854331 z"
       id="path2815"
       style="fill:#3f3d99;fill-opacity:1;fill-rule:evenodd;stroke:none" />
    <path
       d="M 312.27165,325.41732 L 300.8622,320.27953"
       id="path2817"
       style="fill:none;stroke:#3f3d99;stroke-width:1.70078743px;stroke-linejoin:miter;stroke-miterlimit:1;stroke-dasharray:none;stroke-opacity:1" />
    <path
       d="M 300.54331,323.29134 L 300.54331,322.33465 L 300.57874,321.76772 L 300.64961,321.20079 L 300.72047,320.66929 L 300.8622,320.27953 L 301.0748,319.96063 L 301.3937,319.53543 L 301.78346,319.11024 L 302.20866,318.68504 L 302.95276,317.97638 L 303.30709,317.65748 L 290.62205,315.67323 L 300.57874,323.71654 L 300.54331,323.29134 z"
       id="path2819"
       style="fill:#3f3d99;fill-opacity:1;fill-rule:evenodd;stroke:none" />
    <path
       d="M 312.55512,298.59449 L 300.8622,293.45669"
       id="path2821"
       style="fill:none;stroke:#3f3d99;stroke-width:1.70078743px;stroke-linejoin:miter;stroke-miterlimit:1;stroke-dasharray:none;stroke-opacity:1" />
    <path
       d="M 300.54331,296.53937 L 300.54331,295.54724 L 300.57874,294.94488 L 300.61417,294.37795 L 300.72047,293.84646 L 300.8622,293.45669 L 301.03937,293.10236 L 301.35827,292.67717 L 301.78346,292.25197 L 302.20866,291.79134 L 302.95276,291.04724 L 303.30709,290.76378 L 290.33858,288.81496 L 300.57874,296.96457 L 300.54331,296.53937 z"
       id="path2823"
       style="fill:#3f3d99;fill-opacity:1;fill-rule:evenodd;stroke:none" />
    <path
       d="M 312.02362,271.73622 L 300.8622,266.59843"
       id="path2825"
       style="fill:none;stroke:#3f3d99;stroke-width:1.70078743px;stroke-linejoin:miter;stroke-miterlimit:1;stroke-dasharray:none;stroke-opacity:1" />
    <path
       d="M 300.54331,269.5748 L 300.54331,268.61811 L 300.57874,268.05118 L 300.64961,267.48425 L 300.75591,266.98819 L 300.8622,266.59843 L 301.0748,266.27953 L 301.3937,265.88976 L 301.78346,265.46457 L 302.20866,265.03937 L 302.95276,264.36614 L 303.27165,264.04724 L 290.90551,261.99213 L 300.54331,269.96457 L 300.54331,269.5748 z"
       id="path2827"
       style="fill:#3f3d99;fill-opacity:1;fill-rule:evenodd;stroke:none" />
    <path
       d="M 310.67717,244.91339 L 300.93307,239.77559"
       id="path2829"
       style="fill:none;stroke:#3f3d99;stroke-width:1.70078743px;stroke-linejoin:miter;stroke-miterlimit:1;stroke-dasharray:none;stroke-opacity:1" />
    <path
       d="M 300.50787,242.39764 L 300.57874,241.54724 L 300.61417,241.05118 L 300.68504,240.55512 L 300.79134,240.09449 L 300.93307,239.77559 L 301.14567,239.49213 L 301.42913,239.1378 L 301.8189,238.78346 L 302.20866,238.42913 L 302.91732,237.8622 L 303.23622,237.61417 L 292.21654,235.13386 L 300.50787,242.75197 L 300.50787,242.39764 z"
       id="path2831"
       style="fill:#3f3d99;fill-opacity:1;fill-rule:evenodd;stroke:none" />
    <path
       d="M 308.69291,218.05512 L 301.0748,212.91732"
       id="path2833"
       style="fill:none;stroke:#3f3d99;stroke-width:1.70078743px;stroke-linejoin:miter;stroke-miterlimit:1;stroke-dasharray:none;stroke-opacity:1" />
    <path
       d="M 300.47244,215.07874 L 300.57874,214.37008 L 300.68504,213.94488 L 300.79134,213.55512 L 300.89764,213.20079 L 301.0748,212.91732 L 301.25197,212.70472 L 301.53543,212.45669 L 301.85433,212.20866 L 302.20866,211.9252 L 302.84646,211.5 L 303.12992,211.32283 L 294.20079,208.31102 L 300.40157,215.3622 L 300.47244,215.07874 z"
       id="path2835"
       style="fill:#3f3d99;fill-opacity:1;fill-rule:evenodd;stroke:none" />
    <path
       d="M 306.14173,191.23228 L 301.1811,186.09449"
       id="path2837"
       style="fill:none;stroke:#3f3d99;stroke-width:1.70078743px;stroke-linejoin:miter;stroke-miterlimit:1;stroke-dasharray:none;stroke-opacity:1" />
    <path
       d="M 300.40157,187.61811 L 300.61417,187.12205 L 300.72047,186.80315 L 300.89764,186.51969 L 301.03937,186.27165 L 301.1811,186.09449 L 301.35827,185.95276 L 301.6063,185.81102 L 301.9252,185.66929 L 302.24409,185.52756 L 302.81102,185.31496 L 303.02362,185.20866 L 296.75197,181.45276 L 300.29528,187.83071 L 300.40157,187.61811 z"
       id="path2839"
       style="fill:#3f3d99;fill-opacity:1;fill-rule:evenodd;stroke:none" />
    <path
       d="M 303.27165,164.37402 L 301.35827,159.23622"
       id="path2841"
       style="fill:none;stroke:#3f3d99;stroke-width:1.70078743px;stroke-linejoin:miter;stroke-miterlimit:1;stroke-dasharray:none;stroke-opacity:1" />
    <path
       d="M 300.33071,160.08661 L 300.61417,159.76772 L 300.79134,159.62598 L 301.00394,159.44882 L 301.1811,159.34252 L 301.35827,159.23622 L 301.5,159.20079 L 301.74803,159.16535 L 301.99606,159.16535 L 302.24409,159.16535 L 302.70472,159.20079 L 302.91732,159.20079 L 299.65748,154.62992 L 300.18898,160.19291 L 300.33071,160.08661 z"
       id="path2843"
       style="fill:#3f3d99;fill-opacity:1;fill-rule:evenodd;stroke:none" />
    <path
       d="M 300.22441,137.55118 L 301.5,132.41339"
       id="path2845"
       style="fill:none;stroke:#3f3d99;stroke-width:1.70078743px;stroke-linejoin:miter;stroke-miterlimit:1;stroke-dasharray:none;stroke-opacity:1" />
    <path
       d="M 300.22441,132.51969 L 300.64961,132.44882 L 300.89764,132.41339 L 301.11024,132.37795 L 301.32283,132.37795 L 301.5,132.41339 L 301.67717,132.44882 L 301.85433,132.55512 L 302.06693,132.69685 L 302.27953,132.83858 L 302.63386,133.08661 L 302.77559,133.22835 L 302.66929,127.80709 L 300.04724,132.55512 L 300.22441,132.51969 z"
       id="path2847"
       style="fill:#3f3d99;fill-opacity:1;fill-rule:evenodd;stroke:none" />
    <path
       d="M 297.3189,110.69291 L 301.67717,105.55512"
       id="path2849"
       style="fill:none;stroke:#3f3d99;stroke-width:1.70078743px;stroke-linejoin:miter;stroke-miterlimit:1;stroke-dasharray:none;stroke-opacity:1" />
    <path
       d="M 300.15354,104.95276 L 300.64961,105.09449 L 300.9685,105.20079 L 301.25197,105.30709 L 301.5,105.44882 L 301.67717,105.55512 L 301.8189,105.73228 L 301.96063,105.94488 L 302.1378,106.19291 L 302.31496,106.51181 L 302.56299,107.00787 L 302.66929,107.22047 L 305.61024,100.94882 L 299.94094,104.88189 L 300.15354,104.95276 z"
       id="path2851"
       style="fill:#3f3d99;fill-opacity:1;fill-rule:evenodd;stroke:none" />
    <path
       d="M 294.69685,83.870079 L 301.8189,78.732283"
       id="path2853"
       style="fill:none;stroke:#3f3d99;stroke-width:1.70078743px;stroke-linejoin:miter;stroke-miterlimit:1;stroke-dasharray:none;stroke-opacity:1" />
    <path
       d="M 300.08268,77.492126 L 300.68504,77.811024 L 301.00394,78.023622 L 301.35827,78.271654 L 301.6063,78.519685 L 301.8189,78.732283 L 301.96063,78.944882 L 302.06693,79.299213 L 302.20866,79.688976 L 302.31496,80.114173 L 302.49213,80.822835 L 302.56299,81.106299 L 308.23228,74.125984 L 299.83465,77.350394 L 300.08268,77.492126 z"
       id="path2855"
       style="fill:#3f3d99;fill-opacity:1;fill-rule:evenodd;stroke:none" />
    <path
       d="M 292.57087,57.047244 L 301.9252,51.874016"
       id="path2857"
       style="fill:none;stroke:#3f3d99;stroke-width:1.70078743px;stroke-linejoin:miter;stroke-miterlimit:1;stroke-dasharray:none;stroke-opacity:1" />
    <path
       d="M 300.04724,50.137795 L 300.68504,50.633858 L 301.0748,50.952756 L 301.42913,51.271654 L 301.7126,51.590551 L 301.9252,51.874016 L 302.06693,52.192913 L 302.17323,52.61811 L 302.24409,53.114173 L 302.35039,53.610236 L 302.42126,54.496063 L 302.45669,54.885827 L 310.35827,47.267717 L 299.72835,49.925197 L 300.04724,50.137795 z"
       id="path2859"
       style="fill:#3f3d99;fill-opacity:1;fill-rule:evenodd;stroke:none" />
    <path
       d="M 291.08268,30.188976 L 302.0315,25.051181"
       id="path2861"
       style="fill:none;stroke:#3f3d99;stroke-width:1.70078743px;stroke-linejoin:miter;stroke-miterlimit:1;stroke-dasharray:none;stroke-opacity:1" />
    <path
       d="M 299.97638,22.925197 L 300.72047,23.527559 L 301.11024,23.917323 L 301.5,24.307087 L 301.8189,24.69685 L 302.0315,25.051181 L 302.1378,25.405512 L 302.24409,25.866142 L 302.31496,26.433071 L 302.35039,27.035433 L 302.38583,28.027559 L 302.42126,28.452756 L 311.81102,20.444882 L 299.69291,22.677165 L 299.97638,22.925197 z"
       id="path2863"
       style="fill:#3f3d99;fill-opacity:1;fill-rule:evenodd;stroke:none" />
    <path
       d="M 339.12992,327.93307 L 327.68504,320.1378"
       id="path2865"
       style="fill:none;stroke:#3f3d99;stroke-width:1.70078743px;stroke-linejoin:miter;stroke-miterlimit:1;stroke-dasharray:none;stroke-opacity:1" />
    <path
       d="M 326.79921,323.3622 L 326.97638,322.29921 L 327.11811,321.69685 L 327.29528,321.09449 L 327.47244,320.56299 L 327.68504,320.1378 L 327.9685,319.8189 L 328.3937,319.46457 L 328.9252,319.0748 L 329.45669,318.68504 L 330.41339,318.04724 L 330.83858,317.76378 L 317.48031,313.15748 L 326.72835,323.82283 L 326.79921,323.3622 z"
       id="path2867"
       style="fill:#3f3d99;fill-opacity:1;fill-rule:evenodd;stroke:none" />
    <path
       d="M 339.37795,301.11024 L 327.68504,293.31496"
       id="path2869"
       style="fill:none;stroke:#3f3d99;stroke-width:1.70078743px;stroke-linejoin:miter;stroke-miterlimit:1;stroke-dasharray:none;stroke-opacity:1" />
    <path
       d="M 326.79921,296.61024 L 326.97638,295.51181 L 327.11811,294.90945 L 327.25984,294.27165 L 327.47244,293.74016 L 327.68504,293.31496 L 327.9685,292.96063 L 328.3937,292.6063 L 328.9252,292.1811 L 329.45669,291.79134 L 330.44882,291.11811 L 330.87402,290.83465 L 317.19685,286.33465 L 326.72835,297.07087 L 326.79921,296.61024 z"
       id="path2871"
       style="fill:#3f3d99;fill-opacity:1;fill-rule:evenodd;stroke:none" />
    <path
       d="M 338.84646,274.25197 L 327.72047,266.45669"
       id="path2873"
       style="fill:none;stroke:#3f3d99;stroke-width:1.70078743px;stroke-linejoin:miter;stroke-miterlimit:1;stroke-dasharray:none;stroke-opacity:1" />
    <path
       d="M 326.76378,269.64567 L 326.97638,268.58268 L 327.11811,267.98031 L 327.29528,267.37795 L 327.50787,266.88189 L 327.72047,266.45669 L 328.00394,266.1378 L 328.42913,265.78346 L 328.9252,265.3937 L 329.45669,265.03937 L 330.41339,264.43701 L 330.83858,264.15354 L 317.72835,259.47638 L 326.69291,270.07087 L 326.76378,269.64567 z"
       id="path2875"
       style="fill:#3f3d99;fill-opacity:1;fill-rule:evenodd;stroke:none" />
    <path
       d="M 337.53543,247.42913 L 327.79134,239.63386"
       id="path2877"
       style="fill:none;stroke:#3f3d99;stroke-width:1.70078743px;stroke-linejoin:miter;stroke-miterlimit:1;stroke-dasharray:none;stroke-opacity:1" />
    <path
       d="M 326.72835,242.4685 L 326.97638,241.54724 L 327.15354,240.98031 L 327.33071,240.44882 L 327.54331,239.98819 L 327.79134,239.63386 L 328.0748,239.35039 L 328.46457,239.06693 L 328.96063,238.7126 L 329.45669,238.42913 L 330.37795,237.89764 L 330.76772,237.68504 L 319.03937,232.65354 L 326.65748,242.85827 L 326.72835,242.4685 z"
       id="path2879"
       style="fill:#3f3d99;fill-opacity:1;fill-rule:evenodd;stroke:none" />
    <path
       d="M 335.51575,220.57087 L 327.89764,212.77559"
       id="path2881"
       style="fill:none;stroke:#3f3d99;stroke-width:1.70078743px;stroke-linejoin:miter;stroke-miterlimit:1;stroke-dasharray:none;stroke-opacity:1" />
    <path
       d="M 326.69291,215.14961 L 327.01181,214.37008 L 327.18898,213.90945 L 327.43701,213.44882 L 327.64961,213.05906 L 327.89764,212.77559 L 328.14567,212.59843 L 328.53543,212.35039 L 328.99606,212.1378 L 329.49213,211.9252 L 330.34252,211.57087 L 330.69685,211.42913 L 321.05906,205.79528 L 326.55118,215.4685 L 326.69291,215.14961 z"
       id="path2883"
       style="fill:#3f3d99;fill-opacity:1;fill-rule:evenodd;stroke:none" />
    <path
       d="M 333,193.74803 L 328.03937,185.95276"
       id="path2885"
       style="fill:none;stroke:#3f3d99;stroke-width:1.70078743px;stroke-linejoin:miter;stroke-miterlimit:1;stroke-dasharray:none;stroke-opacity:1" />
    <path
       d="M 326.62205,187.68898 L 327.01181,187.08661 L 327.25984,186.73228 L 327.54331,186.41339 L 327.79134,186.12992 L 328.03937,185.95276 L 328.2874,185.81102 L 328.64173,185.70472 L 329.06693,185.59843 L 329.49213,185.49213 L 330.27165,185.38583 L 330.59055,185.31496 L 323.61024,178.97244 L 326.44488,187.93701 L 326.62205,187.68898 z"
       id="path2887"
       style="fill:#3f3d99;fill-opacity:1;fill-rule:evenodd;stroke:none" />
    <path
       d="M 330.09449,166.88976 L 328.1811,159.09449"
       id="path2889"
       style="fill:none;stroke:#3f3d99;stroke-width:1.70078743px;stroke-linejoin:miter;stroke-miterlimit:1;stroke-dasharray:none;stroke-opacity:1" />
    <path
       d="M 326.55118,160.15748 L 327.04724,159.76772 L 327.33071,159.55512 L 327.64961,159.34252 L 327.93307,159.20079 L 328.1811,159.09449 L 328.42913,159.05906 L 328.74803,159.09449 L 329.1378,159.09449 L 329.52756,159.16535 L 330.20079,159.23622 L 330.48425,159.30709 L 326.48031,152.11417 L 326.33858,160.29921 L 326.55118,160.15748 z"
       id="path2891"
       style="fill:#3f3d99;fill-opacity:1;fill-rule:evenodd;stroke:none" />
    <path
       d="M 327.08268,140.06693 L 328.35827,132.27165"
       id="path2893"
       style="fill:none;stroke:#3f3d99;stroke-width:1.70078743px;stroke-linejoin:miter;stroke-miterlimit:1;stroke-dasharray:none;stroke-opacity:1" />
    <path
       d="M 326.48031,132.55512 L 327.04724,132.41339 L 327.40157,132.34252 L 327.75591,132.27165 L 328.0748,132.23622 L 328.35827,132.27165 L 328.6063,132.34252 L 328.88976,132.44882 L 329.20866,132.62598 L 329.56299,132.83858 L 330.09449,133.15748 L 330.34252,133.33465 L 329.49213,125.29134 L 326.23228,132.66142 L 326.48031,132.55512 z"
       id="path2895"
       style="fill:#3f3d99;fill-opacity:1;fill-rule:evenodd;stroke:none" />
    <path
       d="M 324.14173,113.20866 L 328.5,105.41339"
       id="path2897"
       style="fill:none;stroke:#3f3d99;stroke-width:1.70078743px;stroke-linejoin:miter;stroke-miterlimit:1;stroke-dasharray:none;stroke-opacity:1" />
    <path
       d="M 326.37402,105.02362 L 327.08268,105.09449 L 327.47244,105.12992 L 327.89764,105.20079 L 328.25197,105.30709 L 328.5,105.41339 L 328.74803,105.59055 L 328.99606,105.83858 L 329.27953,106.15748 L 329.56299,106.47638 L 330.02362,107.07874 L 330.23622,107.32677 L 332.43307,98.433071 L 326.09055,104.98819 L 326.37402,105.02362 z"
       id="path2899"
       style="fill:#3f3d99;fill-opacity:1;fill-rule:evenodd;stroke:none" />
    <path
       d="M 321.51969,86.385827 L 328.67717,78.590551"
       id="path2901"
       style="fill:none;stroke:#3f3d99;stroke-width:1.70078743px;stroke-linejoin:miter;stroke-miterlimit:1;stroke-dasharray:none;stroke-opacity:1" />
    <path
       d="M 326.30315,77.527559 L 327.08268,77.811024 L 327.54331,77.988189 L 328.00394,78.165354 L 328.35827,78.377953 L 328.67717,78.590551 L 328.88976,78.838583 L 329.10236,79.192913 L 329.35039,79.61811 L 329.59843,80.07874 L 329.95276,80.893701 L 330.12992,81.212598 L 335.05512,71.610236 L 325.98425,77.456693 L 326.30315,77.527559 z"
       id="path2903"
       style="fill:#3f3d99;fill-opacity:1;fill-rule:evenodd;stroke:none" />
    <path
       d="M 319.3937,59.527559 L 328.78346,51.732283"
       id="path2905"
       style="fill:none;stroke:#3f3d99;stroke-width:1.70078743px;stroke-linejoin:miter;stroke-miterlimit:1;stroke-dasharray:none;stroke-opacity:1" />
    <path
       d="M 326.26772,50.173228 L 327.11811,50.598425 L 327.61417,50.88189 L 328.0748,51.165354 L 328.46457,51.448819 L 328.78346,51.732283 L 328.99606,52.051181 L 329.20866,52.511811 L 329.42126,53.043307 L 329.59843,53.610236 L 329.91732,54.566929 L 330.02362,54.992126 L 337.1811,44.751969 L 325.87795,50.031496 L 326.26772,50.173228 z"
       id="path2907"
       style="fill:#3f3d99;fill-opacity:1;fill-rule:evenodd;stroke:none" />
    <path
       d="M 317.94094,32.704724 L 328.85433,24.909449"
       id="path2909"
       style="fill:none;stroke:#3f3d99;stroke-width:1.70078743px;stroke-linejoin:miter;stroke-miterlimit:1;stroke-dasharray:none;stroke-opacity:1" />
    <path
       d="M 326.23228,22.996063 L 327.11811,23.527559 L 327.64961,23.846457 L 328.14567,24.200787 L 328.57087,24.555118 L 328.85433,24.909449 L 329.06693,25.26378 L 329.24409,25.795276 L 329.45669,26.362205 L 329.59843,27 L 329.88189,28.098425 L 329.95276,28.559055 L 338.63386,17.929134 L 325.84252,22.783465 L 326.23228,22.996063 z"
       id="path2911"
       style="fill:#3f3d99;fill-opacity:1;fill-rule:evenodd;stroke:none" />
    <path
       d="M 365.95276,329.91732 L 354.54331,320.0315"
       id="path2913"
       style="fill:none;stroke:#3f3d99;stroke-width:1.70078743px;stroke-linejoin:miter;stroke-miterlimit:1;stroke-dasharray:none;stroke-opacity:1" />
    <path
       d="M 353.16142,323.43307 L 353.48031,322.29921 L 353.72835,321.66142 L 353.97638,321.02362 L 354.25984,320.45669 L 354.54331,320.0315 L 354.89764,319.7126 L 355.3937,319.35827 L 355.99606,319.00394 L 356.63386,318.64961 L 357.76772,318.08268 L 358.26378,317.87008 L 344.30315,311.20866 L 353.01969,323.8937 L 353.16142,323.43307 z"
       id="path2915"
       style="fill:#3f3d99;fill-opacity:1;fill-rule:evenodd;stroke:none" />
    <path
       d="M 366.23622,303.05906 L 354.54331,293.20866"
       id="path2917"
       style="fill:none;stroke:#3f3d99;stroke-width:1.70078743px;stroke-linejoin:miter;stroke-miterlimit:1;stroke-dasharray:none;stroke-opacity:1" />
    <path
       d="M 353.16142,296.64567 L 353.48031,295.51181 L 353.69291,294.83858 L 353.94094,294.20079 L 354.22441,293.63386 L 354.54331,293.20866 L 354.8622,292.88976 L 355.3937,292.5 L 355.99606,292.14567 L 356.63386,291.75591 L 357.76772,291.18898 L 358.26378,290.94094 L 344.01969,284.35039 L 353.01969,297.14173 L 353.16142,296.64567 z"
       id="path2919"
       style="fill:#3f3d99;fill-opacity:1;fill-rule:evenodd;stroke:none" />
    <path
       d="M 365.70472,276.23622 L 354.54331,266.35039"
       id="path2921"
       style="fill:none;stroke:#3f3d99;stroke-width:1.70078743px;stroke-linejoin:miter;stroke-miterlimit:1;stroke-dasharray:none;stroke-opacity:1" />
    <path
       d="M 353.12598,269.6811 L 353.48031,268.58268 L 353.72835,267.94488 L 353.97638,267.30709 L 354.25984,266.77559 L 354.54331,266.35039 L 354.89764,266.06693 L 355.3937,265.7126 L 355.99606,265.35827 L 356.63386,265.03937 L 357.76772,264.47244 L 358.22835,264.25984 L 344.55118,257.52756 L 353.01969,270.14173 L 353.12598,269.6811 z"
       id="path2923"
       style="fill:#3f3d99;fill-opacity:1;fill-rule:evenodd;stroke:none" />
    <path
       d="M 364.35827,249.37795 L 354.61417,239.52756"
       id="path2925"
       style="fill:none;stroke:#3f3d99;stroke-width:1.70078743px;stroke-linejoin:miter;stroke-miterlimit:1;stroke-dasharray:none;stroke-opacity:1" />
    <path
       d="M 353.09055,242.50394 L 353.48031,241.51181 L 353.76378,240.94488 L 354.04724,240.37795 L 354.33071,239.88189 L 354.61417,239.52756 L 354.9685,239.24409 L 355.46457,238.96063 L 356.0315,238.67717 L 356.63386,238.3937 L 357.73228,237.9685 L 358.19291,237.79134 L 345.89764,230.66929 L 352.94882,242.96457 L 353.09055,242.50394 z"
       id="path2927"
       style="fill:#3f3d99;fill-opacity:1;fill-rule:evenodd;stroke:none" />
    <path
       d="M 362.37402,222.55512 L 354.72047,212.66929"
       id="path2929"
       style="fill:none;stroke:#3f3d99;stroke-width:1.70078743px;stroke-linejoin:miter;stroke-miterlimit:1;stroke-dasharray:none;stroke-opacity:1" />
    <path
       d="M 353.05512,215.18504 L 353.51575,214.33465 L 353.79921,213.83858 L 354.11811,213.37795 L 354.43701,212.98819 L 354.72047,212.66929 L 355.0748,212.49213 L 355.53543,212.27953 L 356.06693,212.06693 L 356.66929,211.88976 L 357.66142,211.64173 L 358.08661,211.5 L 347.88189,203.84646 L 352.87795,215.5748 L 353.05512,215.18504 z"
       id="path2931"
       style="fill:#3f3d99;fill-opacity:1;fill-rule:evenodd;stroke:none" />
    <path
       d="M 359.82283,195.69685 L 354.8622,185.84646"
       id="path2933"
       style="fill:none;stroke:#3f3d99;stroke-width:1.70078743px;stroke-linejoin:miter;stroke-miterlimit:1;stroke-dasharray:none;stroke-opacity:1" />
    <path
       d="M 352.98425,187.72441 L 353.51575,187.08661 L 353.87008,186.69685 L 354.22441,186.34252 L 354.54331,186.05906 L 354.8622,185.84646 L 355.1811,185.74016 L 355.64173,185.63386 L 356.1378,185.56299 L 356.66929,185.49213 L 357.59055,185.42126 L 357.98031,185.38583 L 350.43307,176.98819 L 352.77165,188.04331 L 352.98425,187.72441 z"
       id="path2935"
       style="fill:#3f3d99;fill-opacity:1;fill-rule:evenodd;stroke:none" />
    <path
       d="M 356.95276,168.87402 L 355.03937,158.98819"
       id="path2937"
       style="fill:none;stroke:#3f3d99;stroke-width:1.70078743px;stroke-linejoin:miter;stroke-miterlimit:1;stroke-dasharray:none;stroke-opacity:1" />
    <path
       d="M 352.91339,160.19291 L 353.55118,159.73228 L 353.94094,159.48425 L 354.33071,159.27165 L 354.72047,159.09449 L 355.03937,158.98819 L 355.32283,158.98819 L 355.74803,158.98819 L 356.20866,159.05906 L 356.70472,159.12992 L 357.51969,159.30709 L 357.87402,159.37795 L 353.30315,150.16535 L 352.62992,160.40551 L 352.91339,160.19291 z"
       id="path2939"
       style="fill:#3f3d99;fill-opacity:1;fill-rule:evenodd;stroke:none" />
    <path
       d="M 353.90551,142.01575 L 355.1811,132.16535"
       id="path2941"
       style="fill:none;stroke:#3f3d99;stroke-width:1.70078743px;stroke-linejoin:miter;stroke-miterlimit:1;stroke-dasharray:none;stroke-opacity:1" />
    <path
       d="M 352.84252,132.62598 L 353.55118,132.41339 L 354.01181,132.30709 L 354.43701,132.20079 L 354.8622,132.16535 L 355.1811,132.16535 L 355.5,132.23622 L 355.85433,132.37795 L 356.27953,132.59055 L 356.70472,132.80315 L 357.44882,133.22835 L 357.73228,133.40551 L 356.35039,123.30709 L 352.52362,132.73228 L 352.84252,132.62598 z"
       id="path2943"
       style="fill:#3f3d99;fill-opacity:1;fill-rule:evenodd;stroke:none" />
    <path
       d="M 351,115.19291 L 355.35827,105.30709"
       id="path2945"
       style="fill:none;stroke:#3f3d99;stroke-width:1.70078743px;stroke-linejoin:miter;stroke-miterlimit:1;stroke-dasharray:none;stroke-opacity:1" />
    <path
       d="M 352.73622,105.05906 L 353.58661,105.05906 L 354.08268,105.09449 L 354.57874,105.12992 L 355.00394,105.20079 L 355.35827,105.30709 L 355.64173,105.48425 L 355.99606,105.76772 L 356.35039,106.08661 L 356.74016,106.47638 L 357.37795,107.11417 L 357.62598,107.39764 L 359.25591,96.484252 L 352.38189,105.09449 L 352.73622,105.05906 z"
       id="path2947"
       style="fill:#3f3d99;fill-opacity:1;fill-rule:evenodd;stroke:none" />
    <path
       d="M 348.37795,88.334646 L 355.5,78.484252"
       id="path2949"
       style="fill:none;stroke:#3f3d99;stroke-width:1.70078743px;stroke-linejoin:miter;stroke-miterlimit:1;stroke-dasharray:none;stroke-opacity:1" />
    <path
       d="M 352.66535,77.598425 L 353.62205,77.775591 L 354.15354,77.917323 L 354.68504,78.094488 L 355.14567,78.271654 L 355.5,78.484252 L 355.78346,78.732283 L 356.10236,79.122047 L 356.42126,79.582677 L 356.74016,80.07874 L 357.30709,80.929134 L 357.51969,81.318898 L 361.91339,69.625984 L 352.27559,77.527559 L 352.66535,77.598425 z"
       id="path2951"
       style="fill:#3f3d99;fill-opacity:1;fill-rule:evenodd;stroke:none" />
    <path
       d="M 346.25197,61.511811 L 355.6063,51.625984"
       id="path2953"
       style="fill:none;stroke:#3f3d99;stroke-width:1.70078743px;stroke-linejoin:miter;stroke-miterlimit:1;stroke-dasharray:none;stroke-opacity:1" />
    <path
       d="M 352.62992,50.244094 L 353.62205,50.598425 L 354.18898,50.811024 L 354.75591,51.094488 L 355.25197,51.34252 L 355.6063,51.625984 L 355.88976,51.944882 L 356.17323,52.440945 L 356.49213,53.007874 L 356.77559,53.574803 L 357.23622,54.637795 L 357.41339,55.062992 L 364.03937,42.80315 L 352.20472,50.102362 L 352.62992,50.244094 z"
       id="path2955"
       style="fill:#3f3d99;fill-opacity:1;fill-rule:evenodd;stroke:none" />
    <path
       d="M 344.76378,34.653543 L 355.7126,24.80315"
       id="path2957"
       style="fill:none;stroke:#3f3d99;stroke-width:1.70078743px;stroke-linejoin:miter;stroke-miterlimit:1;stroke-dasharray:none;stroke-opacity:1" />
    <path
       d="M 352.59449,23.031496 L 353.62205,23.492126 L 354.22441,23.811024 L 354.82677,24.129921 L 355.32283,24.484252 L 355.7126,24.80315 L 355.96063,25.15748 L 356.24409,25.688976 L 356.52756,26.326772 L 356.77559,27 L 357.20079,28.169291 L 357.37795,28.665354 L 365.49213,15.944882 L 352.13386,22.854331 L 352.59449,23.031496 z"
       id="path2959"
       style="fill:#3f3d99;fill-opacity:1;fill-rule:evenodd;stroke:none" />
  </g>
  <defs
     id="defs2962" />
</svg>
