<?xml version="1.0"?>
<svg width="394" height="394" xmlns="http://www.w3.org/2000/svg" xmlns:xlink="http://www.w3.org/1999/xlink" viewBox="-197 -197 394 394">
<defs>
<marker id="flx" viewBox="0 0 2 2" refX="0" refY="1" markerUnits="strokeWidth" markerWidth="5" markerHeight="5" orient="auto">
<polygon points="0,0 2,1 0,2"/>
</marker>
</defs>
<g fill="none" stroke-width="1" stroke="#000">
<rect x="-170" y="-170" width="340" height="340"/>
<g id="qtr" marker-end="url(#flx)">
<path d="M10,10l10,-10"/>
<path d="M10,30l30,-10"/>
<path d="M10,50l50,-10"/>
<path d="M10,70l70,-10"/>
<path d="M10,90l90,-10"/>
<path d="M10,110l110,-10"/>
<path d="M10,130l130,-10"/>
<path d="M10,150l150,-10"/>
<path d="M10,170l170,-10"/>
<path d="M30,10l10,-30"/>
<path d="M30,30l30,-30"/>
<path d="M30,50l50,-30"/>
<path d="M30,70l70,-30"/>
<path d="M30,90l90,-30"/>
<path d="M30,110l110,-30"/>
<path d="M30,130l130,-30"/>
<path d="M30,150l150,-30"/>
<path d="M30,170l170,-30"/>
<path d="M50,10l10,-50"/>
<path d="M50,30l30,-50"/>
<path d="M50,50l50,-50"/>
<path d="M50,70l70,-50"/>
<path d="M50,90l90,-50"/>
<path d="M50,110l110,-50"/>
<path d="M50,130l130,-50"/>
<path d="M50,150l150,-50"/>
<path d="M50,170l170,-50"/>
<path d="M70,10l10,-70"/>
<path d="M70,30l30,-70"/>
<path d="M70,50l50,-70"/>
<path d="M70,70l70,-70"/>
<path d="M70,90l90,-70"/>
<path d="M70,110l110,-70"/>
<path d="M70,130l130,-70"/>
<path d="M70,150l150,-70"/>
<path d="M70,170l170,-70"/>
<path d="M90,10l10,-90"/>
<path d="M90,30l30,-90"/>
<path d="M90,50l50,-90"/>
<path d="M90,70l70,-90"/>
<path d="M90,90l90,-90"/>
<path d="M90,110l110,-90"/>
<path d="M90,130l130,-90"/>
<path d="M90,150l150,-90"/>
<path d="M90,170l170,-90"/>
<path d="M110,10l10,-110"/>
<path d="M110,30l30,-110"/>
<path d="M110,50l50,-110"/>
<path d="M110,70l70,-110"/>
<path d="M110,90l90,-110"/>
<path d="M110,110l110,-110"/>
<path d="M110,130l130,-110"/>
<path d="M110,150l150,-110"/>
<path d="M110,170l170,-110"/>
<path d="M130,10l10,-130"/>
<path d="M130,30l30,-130"/>
<path d="M130,50l50,-130"/>
<path d="M130,70l70,-130"/>
<path d="M130,90l90,-130"/>
<path d="M130,110l110,-130"/>
<path d="M130,130l130,-130"/>
<path d="M130,150l150,-130"/>
<path d="M130,170l170,-130"/>
<path d="M150,10l10,-150"/>
<path d="M150,30l30,-150"/>
<path d="M150,50l50,-150"/>
<path d="M150,70l70,-150"/>
<path d="M150,90l90,-150"/>
<path d="M150,110l110,-150"/>
<path d="M150,130l130,-150"/>
<path d="M150,150l150,-150"/>
<path d="M150,170l170,-150"/>
<path d="M170,10l10,-170"/>
<path d="M170,30l30,-170"/>
<path d="M170,50l50,-170"/>
<path d="M170,70l70,-170"/>
<path d="M170,90l90,-170"/>
<path d="M170,110l110,-170"/>
<path d="M170,130l130,-170"/>
<path d="M170,150l150,-170"/>
<path d="M170,170l170,-170"/>
</g>
<use xlink:href="#qtr" transform="rotate(90)"/>
<use xlink:href="#qtr" transform="rotate(-90)"/>
<use xlink:href="#qtr" transform="scale(-1)"/>
</g>
</svg>
